<mxfile host="Electron" agent="Mozilla/5.0 (Windows NT 10.0; Win64; x64) AppleWebKit/537.36 (KHTML, like Gecko) draw.io/28.0.6 Chrome/138.0.7204.100 Electron/37.2.3 Safari/537.36" version="28.0.6">
  <diagram name="Page-1" id="xMHCLAxi1LEonsNPkQo2">
    <mxGraphModel dx="1426" dy="841" grid="1" gridSize="10" guides="1" tooltips="1" connect="1" arrows="1" fold="1" page="1" pageScale="1" pageWidth="827" pageHeight="1169" math="0" shadow="0">
      <root>
        <mxCell id="0" />
        <mxCell id="1" parent="0" />
        <mxCell id="2fRyMZQDYy7qSL2sGxyz-9" value="" style="shape=stencil(lVnbchU3EPya8zolaXR9JuQ/qMLgUxibMiYJf88oJ1pWrd12/HYw07tSz61n9qLvvt9/+HZ3Ce77y/PTl7u/rx9f7i/6xyWE6+P93fP1xX5d9P1F3316er77/Pz04/Hj7d/fPnTL/uvr01/9Cf/ccDmIix0V3M/bX3yUGv79y583wMP1cQdIUXKaAUlaPQfEIgpvKFIbATjxMyA4CfEcoCptPlII9A6hiiszIEliAJVUZ0CRoucAu+J/zxsANaLJG4xEN99BkygDBInzkbRJSeeANigZ9jFKIFeo0txsXyUSL9RByLC3SFFyHrPPk302vztmX2eCchwnPDv/fN9izy+MH/WzfZLsiQO8xDYDzAEkEczFYb5xDZJIIvg28mQDRBoTYWN8A2RxhCO7dJkToVZRciRLtQRvaNIySWYvYX5DCzQsrFy0jABWLlIWPwde01HTDgFZxbc3ASxUAx4pEE+XIGWuYM3RN1io1cVxkTiuVCxIVUVZNhiJsx9KGQl4DEjoh+IlsXpRsCDlIpkB2qiIG0BphTESE5QYS1qW0n70jQ0QpJEjdcB8BwtHTzKuA6BKeqmEVgM4KNuFxpJdugGAN7cOmFmyXpUJoGcwNDeVzCp9xlgKjtJqwZdngPXHQFjq4T2nqN9kxzHAWJ/9YP2ROc5y2s0seYsuciTrTm3uD3VUtuOy5LHalxEqx3XPSvF85cwLq1HkwV6ZfVmSZ+Trsb29fvZZpBUpLkGhVLTFgvyYw0i7tft68PCQiWd8Qio7iSRGk5PiwN6RiLNKEhZ7cp6kIwl35yF8poh6zVN5lEytIJ+OxIO1TSxEoy2e2kOlo33czhPn8yRa3O2+aX6+xTPzl4UXdA9p7Pke9SbPR4sHEC5lEHYWnw3zMbN8sSHIAz+V23vkv5D60/MRBgraBWLBeLABgz2/oHT01L/GT535d1QddP492Htm7w/yl/n3jfZ5qT9hJNyZpItzfCYab9YjHYwTEtn4ZP6a+bEGxqS7KQ8sKDYAMkDC8cO6NhtwWsWW0Ws6m4icw6LStQrpAq3hqP+aGmpLGryitxqK/a7oOCAtmpF5ui2TZuLa3QDg6rQ15zNHQO/LfsidY0BGzZgT7R4WG2l2dW4j3o8BEZc6xeoRozXgBqUUOn+Y7s0g0Dyt2H3Und/Qx2sG0BEIu+E3kwyyA+gymjJRZLoXQsOIZlK8RBTKrQwdeQxwY2LaAG000tNpeb70LmtPlULAVzQmFfwyX7exvDldKWYEVNZ8rEgoAlh31jp2YxugUnmhOg6wdwS5dN83ASDTYdb6B146jludrY9gI9dXLwyQliM5nnIjg3fbI6bh85JwiZZWxRJgTZKtmj0up0qjyeCwRZc8GDixh271ykrR4Zr5lZWlw1TL2xNO7HU+j4lolssOV/eRb2gCjiyRa7w0nrbrtY7VR3y+Bh7Riqu+PoQTQn0eM/1u0c8iKLgFoDyNE66YLAoLKxRLT/Bbez8GFBws7FZMwcSEJd54o1JbMY68p7uN7NDRjeaxqY/o0Z71nLBsaAcHZ/ZIkaPLgbyssfv2h6n/iJ9nDMDWM3nbluw4TewOERWV5wuRDkgIKIzV5euA57rTWGpLILE22/e3ENuRhqo5rlQEsCn1zZ8r/wfAfvz+Ovrp+vBw+7i6/3/8mmp/un2J1fe/AA==);lineShape=1;strokeColor=default;" vertex="1" parent="1">
          <mxGeometry x="123.7208491227625" y="137.03888943914603" width="58.602738684888514" height="75.24392176371786" as="geometry" />
        </mxCell>
        <mxCell id="2fRyMZQDYy7qSL2sGxyz-10" value="" style="shape=stencil(lVdJcttADHwNr6gZYNaz4/zDVZYjVhTJJctZfh8wLEocUGqGN4pCE1ujB9PJ08f+5X3Xsfu4nE/fd7/618u+ky8dc3/c7879RZ86ee7k6e103n07nz6Pr+Pv95fBcnj6cfo5fOH3iEtMuQwodn/GN0w1/3vxdbQ/9Me5vaPsGnvPFMNjQKwUY+vAU3DAA1OpDUCuPu8DCsU2JKlUymNAjpTanIN+Ij0GlECuDSkmisBDKSSpAaRAAQCq1qStUvYkDAAakrSATAwaVxN5bgBFCx0BoBAbQIaN886RaxuhTkOFLlxuAZmSBwCevncFFEqgTEWotGWqFSaRhZy3AESm5Mm3nZvV4S4iVMtXdZEB/ZTOXCzAg16LtzOnZRIQEmfyYhvBgBycJjrPWu1B57hSMq2O5EDnJNkRGigPkg6RigEICWBf1KQXABRSqlYGVgDFTVz7z5BKtdq3krRWPdZFWdEEVav3K40bqBa2UEMjzoZLmHwqK8uRQ/TOiXK1ADRAKdoc1mY0yp2RQzIQ2Ar4itCILJLAUsaqx842AomlziibkcNyvB2gNWk7N5wpoEri7UDoqSUCAGyrpOdiQLIhE5tnJ28COehyYWRDdcGBhYaFapuDbg8VDIRPU8RXgJuO1vsTNInKbAGqICLlasvulQ2LybXcXlnhFsc6XhE1WG/MkV4IJbNQwtUq2+qrO9BeL9Nmd7OPaGi0NdYeaRFfZ/Bmj4RFVIrKBnvVlSgb4tHlgq09yjcGe+Lgeuo671t73C5dj0qrKZgNm+8jq/b6cLv8vPWHw3h3mv9vL0v6arxoyfNf);lineShape=1;strokeColor=default;" vertex="1" parent="1">
          <mxGeometry x="154.68580969006098" y="209.69781282855706" width="5.248190367443992" height="55.05292385203556" as="geometry" />
        </mxCell>
        <mxCell id="2fRyMZQDYy7qSL2sGxyz-11" value="" style="shape=stencil(lVfLctswDPwaXTEkwRfOafofmYlTa+raGcd9/X3hOpRNyNpEN1leUAB2FyQHfnjbPr1uhuDeTsfD983v8fm0HfjLEMK4326O40mfBn4c+OHlcNx8Ox5+7p8vv1+fzsjz04/Dr/MKfy5xEqmGc1Rwf9/fUI7/X3y94Hfj/gZfM0U2eC/L+JIo5g7vC0UQkIVS6QJCIl9AAFPuM2Im8csBqVDxXUAMsObkqcYuIDkqoIaoKfVFJyFxywGsCfRFF0fCywFhSqAFVC06gS6R9HiprQsLeNf3SIQiYGEuI4EkMCWe4SsomNhZ/HuP7+I9hdn6DjDgrEy1Pw7007V/J3yGhM3xiQrQ3DyfSDmsqVc1CPsZxOLdKr5UssgCVL3FF8DXXG8M50puarnBC1i/UE62n0hvhcToOZMHfOlMMfkUYtDPQsHkU4lhvWz0IG2F+zPrjv4r5FfMmHYOGkbpnBkSfcBTWlWAa/L9ZINco+eWAGCYqbpPEuwomHywgHR+m3ywQNfifSTuFVR0wiHHq8V6SefUTH1fEtqQvuSk3wQBcTYkYoIba1QJ9KLgQhWILqVW4nQ4EDims29nh0nXAudW1rHf1+AdHKQlU+1TYugbPUCVnmjsM90njHF06wcbscrYGNNBnapNSq8jTxFwpjY0kzSQBz5Tm7PFC8pf7M7xgQ/czMkJ7mTXg8nkA+gbxSdjNPKIsNoOAtPRDOdT23JXfAGSVsKc2brbXr4kILtVUkb5r7wRfIzXh+v142Xc7S63l9v/7XVFX12uOvz4Dw==);lineShape=1;strokeColor=default;" vertex="1" parent="1">
          <mxGeometry x="120.20713359822867" y="209.29233912930704" width="36.2005935416975" height="39.18553965869971" as="geometry" />
        </mxCell>
        <mxCell id="2fRyMZQDYy7qSL2sGxyz-12" value="" style="shape=stencil(lVfLctswDPwaXTEkwRfOafofmYlTa+raGcfp4+8L1qFiUNFmepNELgEsFiA08d3L/uF5NwX3cjmfvu9+zY+X/cRfphDm4353ni/6NPH9xHdPp/Pu2/n0eny8vj8/tJ3t6cfpZzvh9xXnPaXQUMH9eftCNf/78PW6/zAfb/brchj26wkFAKQvLwAhCdsAruTEAEKlKtuAmKhkA+BM1W0DElO0LukRKOjsKHkD0CPevnwIKEzZspQTcdwGSCRxBlCEIghaCvlkAFUzA/IgSuIAYBIQgwhVG3RVmxgg1oIobwkCQrQApopiKGOmJVNBLiXKA6BSQbQy+QGgNFQA0BB5BQAxVJV3XLkExFfTitZMGVmIFOuKVsCSCqHYitOokPiacmwMKg0HMq0uia0HPaIigIZoaW3yZkhrtTG0AgK0iu/LC0DzACxoiboyWvCgkWma4lBxDrZKFQJbl2roud8qoGQzrbw50Pm8c319QShNACGr9i0BNtcWxFAQ2lxR61OabJ/RIwKyoImwYlInM7LgRws3PGyqKY4mAtLr/wKK7y7fpC4DNaXa87TIL8Hel9zoUq5dkB/fozyOAnrvecCrXrN5uBY9dElnAWe10WwCl4IbOxNHKqCEfOgOLMODygvEEHp3X6SRSUDb8OPF7vViB63SUbYB+GX42NjvbdJ0vGJA6aqepV8vG9uDDTfD69B1LpZ8UQFlE0ZnArw7uY9E76NnBA049nGlb3ewwecxU5+UPHEatwNmvBubkEoVlG+bknkIFo2cn8/l+vA+1D/Nh8P1n+B2ffwJ0E/XHwi+/ws=);lineShape=1;strokeColor=default;" vertex="1" parent="1">
          <mxGeometry x="149.3197232818202" y="206.3277956073066" width="44.16425043748632" height="33.711425597910534" as="geometry" />
        </mxCell>
        <mxCell id="2fRyMZQDYy7qSL2sGxyz-13" value="" style="shape=stencil(lVjZbttADPwavRLc5Z7PafofAeLURl07cJwef1+qwkpeyhqjb7I1lHjOcDXI08f+5X03eP64Xs7fd78Or9f9IF8G7w+n/e5yuOrVIM+DPL2dL7tvl/Pn6XX6/f4yIserH+ef4xN+T3a1UEqjlec/0z+OUvn3x9cJfzycbvCOmZg7g0Ketw1qJR/7FyRiBwz0du0MvFCswMARS2cgjjx4QxFyfQhSmpN3DbJQzp1BCORk2yAFSn0MoVIBWYqJXOkMYqAAYtDnZdcbFOhSiBT6LCWmCoIOnrjvjCQkYdtAMtU+SylSAYUTravvDTSGtG3ga7vdDDK3R9w3iCR9WrOH7a3d7/os5UQR1MFp54TeQCsDXHLaGmZ+NK3IQJu5T2vJ5EDhSouw4StTAXVb5Ug5gUHZAlW2eNhIjR9mfKUIaqDpiBZfgf+eQljhEYVRzBafQLyaPbF4B1qCSVb5ETD7Sqj9FNQM50zxJt70AC8GrxWH8dr6zi27kU+jIIpn0A+eovFHIDcKhbjCZ9hv1frjAasES1uKr4BJlUi9zSfkdjvwWq8M+lOfb/zPD/BGL2uBHBdW+awUYP7TCl8QS1M2gr/sDBsNVNYvQIxohUnxAgrGq4ALXCjU22ILkEDDrTYiLTDG+166tYEwAa3xGeQzkPT5UcFAA5mb/sx4TxX441YMkUtbkLY0z3iUlYKQqmY7Y6rbjHRbbI6SDg0SDdVQs3vE1rf3p2BFc2kmpvsG0WYpqfKANpVZtuaVrsLNIIhllpgx05UmXDdbJsqS3jazH7X24A3JWzINqZXyfu95q36B4f5UuJHPvLxHciCGUuy2rxsS4tPq7QI1MhQ6sWgz90G72HaSrSOOab4Ku1sFyTCkughyNOKdwTt0RgtNUJdDIDxxxcYnCx4+PzZ+bniGCrXw4YJHG86YT2fwaENTvFkBsUAp/5uVi/ERNlsJZ7ixK95QBUNFrsWeqXVmwFSOetfnR+uF6vufHwUe4/Vi+QLxdjgepw8Yt/ftFwv9a/raIc9/AQ==);lineShape=1;strokeColor=default;" vertex="1" parent="1">
          <mxGeometry x="119.27637731483037" y="259.1422258371563" width="44.1557165831573" height="39.87494180423573" as="geometry" />
        </mxCell>
        <mxCell id="2fRyMZQDYy7qSL2sGxyz-14" value="" style="shape=stencil(lVjLctswDPwaXzEkQRLEOU3/IzNxak/dOOMkffx9oXqoiJC8ndxsCSsQwAJYacd3r4eHl/0uhde3y/n7/tfx8e2w4y+7lI7Ph/3l+Ga/dny/47un82X/7XJ+f368/n95mCynXz/OP6cn/L7iGglPoBT+XC8E4vzvwter+en4vDCPlaZ7C/tEMd62T0wsg32m2m7bs7nXwb5RrsC+9uN2+5ioggByIo4jQKgUABCSMkacqAEPxTy4FAlpAgCh0AYAp561TUANpGEEWFkYADLJeKQcehq2AXbisQw5UwJ1k9BDnAGNIjiSMNWRGJY36KF4pharPfIglMYYPvK2DdB+4hlQKYLCtUipDgCJlEFaW/YepJKCSjfj5kjvligAtmqgOh6p1d5R2wCmMpLPHhFADKpUxrRqhQ0Ugz1wpKsKMQpCSdyZjExgCthtLR6ASm0H8EEoZZSmQq16QAOVs7zqWOpFHrYRqed96QJFHTzBpyAQm7bS1EDPGSCuAKirja/eg/RpeMsDu1IbmxBA/YKYSgMAlqW2AjCug0QPgIXLvufsiqLCVd/V5iGCOui6DoUq7iC3g8wnDFo9XXXeSjcByQNgy+mKra2vgFtBhxW9EZcsxCweIMhD3pgCiqbArC2WAKAFJvKxB1TUQNon4wIQQVqnBlq1KBr4nwdY0G5825YDQTebc25pCay0beroRB9Dtpp4cJWW1n1u6xn1ikkS9GACiEeAaQHU0yaxnIcaYYtWi2FsINOBjDxEL0QLQy4V9Vo9G/mQEK399gyw2QpisAOIk4lYnhRbWU652tQAYybX3l8zwIQo4FKOfgMl7fzdfoMQXwd7RWkIELv8nze79hWz/Q5U/EKJeAPZO1geF0qMsHAxeOlQoQ5Nq7JB8WPOvTkSAauZx7D7gxfRTBG08kpMJirw6e7dKsIJH3oiPswzCNVeAMa8h75Gb+TdzbkAtQ57bRS6u23qkwRnDmeiX69YnornZMB76XPfFf5rbj8+PmE8HU+n6xeQ5X3/ycMuXT+X8P1f);lineShape=1;strokeColor=default;" vertex="1" parent="1">
          <mxGeometry x="154.8728233625227" y="268.87237853075067" width="19.56032541452555" height="46.679336837742085" as="geometry" />
        </mxCell>
        <mxCell id="2fRyMZQDYy7qSL2sGxyz-15" value="" style="shape=stencil(lVbLctswDPwaXTEkIZLgOU3/IzNxak1dO+O4r78vVFWpAI1W8U0isQSBXQDs+OHt+PR66FJ4u10vXw8/h+fbseNPXUrD+Xi4Djf96vix44eXy/Xw5Xr5fn6e/l+fRsvx69vlx3jCrwkXSPIISuH3vBDC34XPk/lpOC/MM3Fw5r1sm0em3Jy98LZ9qhR7Y5+olW37PlOy56tHztuAkilbBxyogQiESayHrDHVbUBrxMUAJMxBbQGyWECkAIJWQHUAzVKCgH/b7wBNA6BhBNigRajEewAtkuCgW7SAfk70ZtA2ra1Sj2PIDtAoYg/MVksBF4MiQvMuKtKGkFQLEMqIOU2781CIgVzH85wHnuW1CbDaaFrSiGoF2I4hlRIGFFcQ/dxFNrNkidCCaJi5YItaS25H30k8YKfkcvSAgvVdXcklnKVGIj5LBYuviechg9a3UPOCaihXdWHzqmLaaTTixFRm8rcAxVKt5Fccde/6RttrNLF6ABopdwN0QlRbEJUhczqDepvWHCkB5sYpZ7PEygPwMI5Ry0PCgPWc1sGbgDRW7wC1L0AZq2eGXiiCC71X1+L8CkjQnuXOj1DawTcAXUHDQXft+VEognLWUnP2GfaLVWnGNNfeB+31hjA/7j51TtjHwu1hA15nE6ptRVYkhtpxWgjEMDV3vWh3zfXj/+P5ZTidprf3ct8/tnVpeqjz4x8=);lineShape=1;strokeColor=default;" vertex="1" parent="1">
          <mxGeometry x="200.12328308199812" y="251.1168488278522" width="103.34352424171266" height="7.647961981112076" as="geometry" />
        </mxCell>
        <mxCell id="2fRyMZQDYy7qSL2sGxyz-16" value="" style="shape=stencil(lVfZbhsxDPyafSVEUedzmv5HgDi1UdcOHPf6+3Kx0NaivJPkbS1zJIozPDTJw9v+6XU3efd2vZy/734fnq/7Sb5M3h9O+93lcNWvSR4neXg5X3bfLuefp+fl9+vTbDl//Tj/mnf4s+ACOTeDvPu7LLi28HUxPx5ON+YcqGZj79O2vS8UU2fPxLJtH3T/0NkLCdg/Vkq+s0/EwD4zhdjZV+KybV8cxd6ePbkIAIki9wBpIbgLqImkjygXEuASO2c585E8gyMKhT5IEillAOC2XwOERNmDsNa2XwMoMQHwnCLlPq7KjIC4Rk+pdoDClIBSAzdiV6ax9ISp9lGqlXyAABctIAPmRIkzyeBwuqk6DUKPKIA5zTcefArohNx4WgGFEiBCE8xUgJobNVuAYuKaWtJuuWT0XWPLws07GKoD1IZGyRuXBIdVq0SwAKRvpXoECLi0iokHlyJwaZbrcGlGcvW2VNa1mG8B7AmxrdwHCDlzQm763TohmyipfgFxCuBkARWIT9aqcpMPCRMXnAWgKKk0pA4ApFatxsECIkqg3BLy9tLgDnMCVQtwKOM0RY1LCTI9F4EhRSsuM964FN4D1GgBDrn0WYCoS33lK9qUQBsNhXJ/6RypAHknFV8P0LYXwaVzIN8DotYlNJ4EO85o20ONumiH6nnQpGUA0KYpvTR02EDjyexS3x88w4kpl2HEKlSAvLOzfZcxcXEcQrW0AeJ0CmXbqCFxc0PpL71q5YNjdGlV5L5DtiPiHq112CibIkp/23rWIeK+8yT97hkOuI5S30USHJKczUqcY8MsHKgA3wdzzS/A0+CMb+nzsasynCqGQHKr21s09eZYk4MIHH55fe4h+K65fvx/c74cjsflyXr7v32j6tLyvpXHfw==);lineShape=1;strokeColor=default;" vertex="1" parent="1">
          <mxGeometry x="296.9533057849958" y="249.94562406190585" width="26.199955974937893" height="24.383087258570185" as="geometry" />
        </mxCell>
        <mxCell id="2fRyMZQDYy7qSL2sGxyz-17" value="" style="shape=stencil(nVzbkhQ3DP2afXXZlq/PhPwHVSxhKwQoILe/j5yNe8ZH08czedsMR922JetypM6TvPn+8d3X56fov//49uXX5z9f3v/4+CQ/PcX48vnj87eXH/rXk7x9kjcfvnx7/uXbl98/v3/976/vBnL89duXP8YT/nqVi86nIRT93//9oL+Uf3/5+RX/6eXzgpe+4rMrFN/8ghfvYjvHi4vreiS7nhi+tgWfogsEn1xY15+ai53h87qeLK6R9SfX6opvrsVzfHY+LPgSXSfrUfz6/FJc4c9f91v9fOMJPqz6qqoR/wi+uMTx635rd4mvZ8U3tUCh+40rPk+LOtPXej6tukrWk1zJC76rPZPzT05WffXoMsWDffbkEsGrNcJ6ihOyfnEZ8LrfzPCynn9v88RO1h8r4rl+czDrIfutZv1lauQmPnhzQPpK4rBCnv7vSgOVWHT0ZsuJuiDdc4c9y/zltg6CSxkFmFORYjatfpJpLZo9qKFUIqB6EBRgfj1Hl+BY1dERxeWCN1MFCtFD8a6aNySi6ZKmIVwLsDc0FzIKCDmlqoozt1/Ikqq6i/iQQJm2eS1AjrU219sjp9TC9D9XAo1Ya0vmlGRa122BYhR3RPXbAh2dvN44FqTUR1frVcmmdYvBOIFGjlVXnOANmfrt4VTACZQZ2m8LZNcEBVjkV0eKeyjU83Vr3kJ9sQoU2IPnx3rkQke0LdPgzwQ6CATql8YbTD7CvIYK5PWK6qVl5q0Csr6hVK7pioorshMAd587jdFD06se1HkKiUBqCHAfNKuN7A0F05680bSaGuTZegx8SaCHlJ0QJ3Ax5kNA98AUVzB1SGHekFMBqF36btMQ46RO+z0VWE1DtopLq6ZF/chGAPYgs+K7V0BPiesB4kPsLm5OCUrOSlPoIbCaxqVqutP4Ig9Z4z7AHvzuWNu6h6CeipQlKtBX0wh16v5UYI3TobjATwkFtFbhe+jrsQaZxeKpwHqsIUxfeOaXoLjltd7Ar2rQLJOZnnl+ntX3nRtItJa0ShPKjXSTyATu81RBcKA8ogcMn5qbsTypoj8Kk725jY9YrAbqjao1OWoPGlm7BzyrGTSwZoNnCb3MMHmFJ1FtVAx4nowryPXG+hnekBeBcxfBOAlq/6lZfdHaPM1U6HBznLsIuP44PfHtsrMh2RTp+iVjohOp/UvE+xuphxM/a6cLniXx6m5kXY/wQl7wvosrZL8aVDyQlTT7VY8P+XWa2e1tvGBNkWlZpO67ALlJU67g53Fc8Jk8X3PxgnBinhW9YabMjk1JKXGXp2qu4MSXpMnSHUk7vSqCNHGdSc4JK97XtTd68BFJ1qEJplikf4amyckHLJoCN+SA5YOmGizQWbzWuoy0cxX8WqWBK5i42yiBEDBOjJv5yPM3gcjiI79YuF+1J+ZoAzY9hrny87RNG+Z4DL5wx2PW3+htCTO5vioZWIEb0DNoTZJJIFX8uh7h7I3ioQzL1PEHJK0Vz+1TzPOZJwx434X7NsNxDzxZv8e4Ipned49Nv7F+cv7eRbNf1pQwcUXxrEj1sxK6roLJffTYVFE8S5y90VeiiaRHMlzxjMvzeF+0KO/UP0BdtMXH8sh6guEt+H4D5pGb8wyzRXynvgKG9o09BKSCNvYWHrTngwG5+750Y8+b+2jWw+876ov7k6Plfqe/8sgcb/zhrfvI/O3/wBtOivsfD/GdxxeP92sTvxQPdRSPjxbP469HXmMT3y2e5w92vzw/Ufzq3zb5j8Xz/MrgN/mbWf/IDzke6vCyiS+IT7TfavFCC1OPQzchbvSLPEKg5KHpSGu9wOMX+PO+Sd9gBqXNeH/mzbE2Yu3AiBMHha5dsKbO9OmCFA4nSTNmksd8xn01aaInU7EmTbxRiqRz4lHOIx2TKJ0XgmnB8OeL6fHwrNn2U1xldtNNGKVeJwoaGqeTLnZ4wXtGV/k5KXah25iXGnQV0qOs/zrosIR4Rm81nFQJlI5JAcMip4NTwrQ2zAbxKR256tfTrksOOOHhZxP9jE6Fq+4fpGvVjxJ7s3TwBm/oZk87NJbOPvz6nXQ5j6KWjvfUni3d7ykrY9sJR9y+ie+GhjryoNv4NM3lTnzBxrrn/dyKwwSejpaOTj+Udbz9Y+x/015qmJZnOlo68DCqwNtj5vmb9ptZ/+jvPSYglJe0Oxg9Sj7OESHTK3zSp5lUadtD7ODkOr0FYz4RyD0/7fBMAMNS5G3KinF41++upq+z6ahXJLx2PXuzh91UQDUl/GbuwL5hM9lQZ3A/BDazE4chHAKb6YyKpP5u/qMiL7ibMDERYTfDYt+Q6QSi3cOYw3nIlsakD2/y19WWsvBBBZO25MI33XDoJXfeJzdDYIVPIPaOnlJjNXXdHW2pBm6tHWNV5cN4wRvSYIy+sfGMbppKhU9QdTym7um3HCoAs0Fj0plHRJy7LLTQtc51+OfN9JGZN6cXImPMGm/gQxpA/qkAjYpiBsjLdLeneZIR8My+vfkIIdNjbQ2/SlEBVlS3YhiBRINcSzdGctkNasHogX9YMwaXEwowEvDGaLRQ1uTG8PVGwI53C237jgFyM+mcWI87oZ8ZAmxkxk46Cy0i1feC11AB1ivOETvjqmkW2ZOJu8M02FiLYYDGoBQrtIu5QIlGdjENjyHAOKlsTinTWmy0kBoKsEH+kLFn0zP9PkJzc/xS6DiGE/YIMuPh+Ng0FZL06v5ZypcwgbsKYSdEH47MdxpDozmhRlnuaG5npfVPRHqt8ymFI1W7MqJIP20Eeqdz1l2Qjuh86kNM/K90gCYhndL4uJAGQqB9+ad4Br/51M/iyw6/2sPmU0XzXUr1NMwmvADjU0v6KSHE/cJLHkE6IrdJ+JzggW7VRJtdYMEufOKpUUT6JUXOt5ouM++qmCkj8bupCVMGs4/YvJkOjNQebuH5VBJ2zQL9bC/g/drwxQHt/zLHcoJH+poXCKbrveGXAwb6yy8neMhKt8/HqaHd+ps9H3qeME17mWs6sWfsogaaRTz+6fwOr39cvtP/8PLp0+tn/tf/jt/160+v/08AefsP);lineShape=1;strokeColor=default;" vertex="1" parent="1">
          <mxGeometry x="417.56867345044884" y="111.04182334317375" width="160.20194403808136" height="139.90536357230326" as="geometry" />
        </mxCell>
        <mxCell id="2fRyMZQDYy7qSL2sGxyz-18" value="" style="shape=stencil(lVjZctswDPwav2LACyCf0/Q/MhOn8dSNM056/X2heqiKkLWp3xQFa+JYLEDt0t3b88Prfhf57f18+rr/eXh8f96lT7sYDy/P+/Ph3Z526X6X7p5O5/2X8+n7y+Pl79eHyXJ6+nb6Mf3CrwsuUKwTKPLvy4taqJa/bz5f7I+Hl4W9UC7ePqVt+5Cp8QDQSgoOiEo5DQCJlPM2IEfi8YTMVIBLpVDRARAExiDFJ4mJgUdqSW3enoF9ohJGhyIpOiBRlgGQMlV0gqVwjKAoCaiChVDHOqtQrfCEOLpUlZoCgFUhDoAWKKGgtedkPqFSbtuAall3LmVS4FKNFFwzBGIQtP1eGrlqTqIsVSGNPq2MXGqURmpopgCCtiRWBwid7tcBSjySVYxLoBsMoOwBERSuVUplBQDkM0CTlUsohkZ57GixtAYIqE5kFGYpMHuVESsNKLUd4YKYZAFF3VbciNTwCU5mjBsZqIDl1XWQNWHChQjBA5AwGTecME1tjsg0q8oiBsWA7FxKfWBsAXwMAapAm6mzqHSL+ISxcFJhU08xOPbZG3yCG6I2kgIqnHZlXHRQQi5ZpZMHBES+2pO4AAgin7VL9DEUTG9d9egHTd3U10HlpqZWJkFkMt1Y9ShkX/P7ktEVjcVJ+1Y9GnBT3whIviEqXrAaU3QAW4jQ0DItHdNqbxjwuyaqI13tTAb8trlcRtmwqDJaT+alcwZo5+PWeuKCXrBla2Vy9Ju6EKTJZMVFbdMeyYAB3BZn20MEBDc2u1IX6evBVgw8pskWS0FbXOhMmNM0L8v/GXTuynPdXvqUnZuaAiDrFODYDjH2MXn9+pC88mWBu3SsvqVNZlBLW0aK20MLrIL4+0mLXXauH9Cn/qIZBPx+6NNpYV9ATtlLvdmjhY/98DH/0ZWPPYfMHs1P7vq2uDmgNmA/0E1dErZ38tWgyK/vGbVf6LbiXcmjQH/cymPXiAbzL+Lt0fBnv6maPVK6W78ZfGxvD/8+UDwdjsfL943l//0HDXt1+RiS7v8A);lineShape=1;strokeColor=default;" vertex="1" parent="1">
          <mxGeometry x="427.14575667586814" y="140.2123736616054" width="63.89524322605939" height="22.05267014575179" as="geometry" />
        </mxCell>
        <mxCell id="2fRyMZQDYy7qSL2sGxyz-19" value="" style="shape=stencil(lVbLcsIwDPyaXDWW5OeZtv/BDFAypYQB+vr72s04oAREenMcrS3tyms3vDhtl4d1Q+Z0PnZv6692dd42/NQQtfvt+tie86jh54YXm+64fj12H/tV/31Ylsgyeu8+ywrfPQ4deFNQZH76GQMY/iZe+vhdu7+KjxbIj+KNUeITUBLxBJ7uxyeGKPNBA6RskAIwyg0QklUACawTAPbg+T4AzVBiRTiCgMoWEZIE+AhOA3igIACRgBUZUv4dBSDPRKXqGMBbCYgQlapzAk7SlInTig6hsjgAXE3yNoDBSuWiB1akDgZY7nBZ4iYgsx5GwkUwSkpTgMUq5cyUyINThCsZk+xvBp90WqVwVj1ARbfxASVl/dIYUmdUDaB0njzQAdDrrS07FYeKZh4eRnCKBjfOpx1MYaYFeK5V3TUZuUPIjaSxxBAkS9kIo5LS1CfLnppu2YhHupkHVjyx7keI6eWQmdNMA7Ga0JXLaB4Qx7wmC6h0twOUzRSDahn5spG+mnXTOsNAkpbkQ13hTvz4ZvAqo9NOZUiKypN8mKrhzKs3n2bNXSZ8IlUHnKeXg6jQM+2HnI5C/39fI4/j8+Dy9Nm0u13/crr+P34q5an+mcXPvw==);lineShape=1;strokeColor=default;" vertex="1" parent="1">
          <mxGeometry x="494.900998668435" y="152.8892026593494" width="7.045371988690476" height="2.2215946813012124" as="geometry" />
        </mxCell>
        <mxCell id="2fRyMZQDYy7qSL2sGxyz-20" value="" style="shape=stencil(lVbLbgIxDPyavY4SO88zbf8DCSirUkBAX3/fpKsFvAGr3LJZT2J7Zqx0PDuu5/tlR+Z4Ouzell/94rTu+Kkj6rfr5aE/lVXHzx3PVrvD8vWw+9guhu/9vEbW1fvus57wPeBiAKWKIvMz7BgY+7fxMsRv+u1VfGKkKOItsrkfnw1CEPERHJV4j+zk+R4pKIAMKxOiAJfuA6wpFRqB4ASr1ZDAXgBchicF4MCyqb4AnNLVBM8CECKsRoMFZ9lWC8f3AZERrQQQjEJECGAJCGmk5iaglJhllwKpVHsPljx4hlGo9oQkteGK+BSqK0CmxAaUH0nJZpDCQ1t0Vu3QdpXBSlMrbTSxJynKa3Vhxhb8U3geVuloVbY83xKickHrHSoARRW37OlgFdLaCeDKyNDs2cwYH1Tz1CE2kbZD1mjgcWad3WbGxt3muRnDxZ6kEPEwIJQJJJmrSSpFBzu9IROC5gU7nncG6HO1uDdOxHQh/yaCC8I1VyhVF7FRnBYRlRljGVkWkRyMIvAIMlMevBJPcDIhr4/V0hCZj3Nqixr3UFJZK/lMJh6PYr9Tr2neCyKdsrg8Nlb9ZjO8Va7/Tx8nZWt42PDzLw==);lineShape=1;strokeColor=default;" vertex="1" parent="1">
          <mxGeometry x="505.92238629441" y="151.81584749859599" width="4.984873182127558" height="3.276377141775356" as="geometry" />
        </mxCell>
        <mxCell id="2fRyMZQDYy7qSL2sGxyz-21" value="" style="shape=stencil(rVbLbsIwEPyaXFf2+n2m7X8gEUpUSlCgr7/vplECjtOhSL0Zs5Nd786MXZnVabc+1hWr07lrX+qPZnPeVeahYm4Ou7przrKqzGNlVtu2q5+79u2wGX4f131kv3pt3/svfA447UmZHsXqa9hRpNTPxtMQv28OV/HREess3pK2ID5Rslm8Jwfik3wuZvHakE0AEMiGDCAVcQCARDbPYAIF8ztAq6klI8IxrilSymvynlIEAGlKniEk8igDU3QZQBrNABAj2TyDdDoggCGfDzo5cgAgFc+6lDR5BgA3p57kRGcITDoHBD0OfxmgyM8GJ2zR9wAsk0MZipI4kkMZikOLAgMQXNnWSAZQqZ8bzwSKjlwSQxQOplYyTysKIEHJbbEYgzIU6jGGFPCMBYHaQA5IuvQAz8RIoIXLyCDDDR/LAdFDYpRGmcT4/D1OLAKN/wko74arTi8jRA4+TyFycKAmcjlZEzZvNzJn6qoMBnCJxyFNY5vovhivKOUn9vhuKG8G6RmopySqGcn+t3oMw/4U52UNTbvop8Z+F0dZXcwCXp08V4EYNqDDva+R2/GyuDx9ts1+P7ycrv+fP5Vka3hmmcdv);lineShape=1;strokeColor=default;" vertex="1" parent="1">
          <mxGeometry x="518.9343830973144" y="150.92656250000005" width="6.64867845021945" height="2.146874999999909" as="geometry" />
        </mxCell>
        <mxCell id="2fRyMZQDYy7qSL2sGxyz-22" value="" style="shape=stencil(lVZdcwIhDPw197oDBAg8W/s/nFHrTa06ar/+faE3XIU7M/YNMUvCbrJHR4vLbnXadEZdrufj6+azX193HT11xvSH3ebcX9Oqo2VHi+3xvHk5H98P6+H3aZUj8+rt+JFP+BpwTKCYUUZ9DzsKSv1uPA/x+/5wEx80oqriDZQX4iOcqeIZMd6Pjw7WVfGaYYSCYoTiuqAAFgBajTcsCKtBUooAXdfkCD4IACoVFIC3cFZgiaGpZsmA3X0AR+iGVoYVMrCC0zUglJyzAG8K7SPAggWAc60QnuHNfYCNCA2tDCdksImlRjhXbvUggAyCwFIuydfNpBCEO0wvrZXIUqa11oFEkrJutdAKRjg/NwY18VE4P3eerUUQ68mtXdevCUEoaDo8xsILDjAzn8SF5QctIOnoJYArszK2qoYWANnFmulRIAmgEWpbZQ8SWnXqw2k+STDWfwO8h6oBIcBKA83lvAJIvHnBlNK4Nb2RlHGCTyZdG5+8EX8Wkb8eTQpfmJ7vpjABKFihwbUu8zXSlCZIkNoVXcdeisV15hPA1jIkD7HCDaZfq1SPINs47+O8eRihL2zr89qABJXTaNVd0SqWFn+vjW2/3w+Pldv/29dJ2hpeNrT8AQ==);lineShape=1;strokeColor=default;" vertex="1" parent="1">
          <mxGeometry x="545.1270901737316" y="150.79808537605163" width="4.510434322178298" height="3.0676322948399957" as="geometry" />
        </mxCell>
        <mxCell id="2fRyMZQDYy7qSL2sGxyz-23" value="" style="shape=stencil(lVbLUsMwDPyaXDWWbPlxhvIfzNDSDKVl2vL6e2QySSq3EcPNcbKxV7sru/N3p+3j27ojdzofDy/rz/7pvO38fUfU77frY3+WUedXnb/bHI7r5+Phff80PL891i/r6PXwUf/wNeByASwVRe57mPERAv3OPAyAXb+/AJQIFBQgyIw3AAVSVgBOkJIJCKwAsUAOBoCBNIeMgMYKWTZAClAccF4GpASsSZcEriwDIkPWK6Bz4Nwygn1bJqmDM4QIBLEBBCBeBngPsSlTBDRYk5RJs04M0agrMYSklfOQ0VwBnfYGQrY4ULtCQHCGN+pr1P4mYEsHHL02AuomjRVmihOAgQ3ScxEvVkiGmapMTUbFLFbkJiNMVaLR8UuRc9qubAt34eZJajaVq4HRdq2higZAIqnLVGNrsK6hjzoQDN6QurYVrVxtPcaW+CoQc3O77b4r5YrdLKX5el2luUEvAsp/ABTBaW9kEc4gjbGtUnaAltJA2hlJQmvI4Ns+Jolyxv/FF5oASyc0CFw5VXqC2ZTAaRt5NPlGiDo7hKbt0I/lmM4GGk+L2xuiNp1iIoOA7Lfo5NhN9fok+fOoYmy+T0oAGcwXjk2/2w33lcv37QVFpobLjV/9AA==);lineShape=1;strokeColor=default;" vertex="1" parent="1">
          <mxGeometry x="443.5512635264281" y="183.54952018479617" width="3.2230755116520413" height="3.224848179439732" as="geometry" />
        </mxCell>
        <mxCell id="2fRyMZQDYy7qSL2sGxyz-24" value="" style="shape=stencil(lVbLctswDPwaXTEk+ALPafofmYlTa+raGcfp4+8LV0PVQKLN5CZRWJGLxQKc0t3L/uF5N3F4uZxP33e/5sfLfkpfJub5uN+d54s+Tel+SndPp/Pu2/n0enxc3p8frpHXpx+nn9c//F5whXq6gjj8WRYCcf+38HUJP8zHm3COVJuJj5G6bAMyUxUD4Ea9bgNqo5wNIAulvA3olWoxgBYoBwBonnNjigUAZFBcAYUYHalT7RbQKQHSMQQKwSAkUwB51S3ECiFCApRTQIoG0NNY2WKdLGvNtAASmtfoAJ1iA4BCYoW4ycP7iEz5zRaMtkjj8wpoFJB0TIl9mgpiHalZEqKskRCRilMuj0xvAcQVeB8lv8WhWAtpvWacJXckdUTCOojbIeAdKnHwgIiLqVgdWsSuFqrVAj50UHFH0saAdujUrQ7CmHQfnW4FNGy57oVT7Tv2aHPVqp7Cva9a0vqLgmqpjnlw4ziYpUydPaAiHT4LqIWK698C05oDie0apcOGH1eK6wzK1EC1aqVZoVOhCLoMD1XX+DQM9f6BPIGkcxgwjhRshlhgE1PzWgmUkQAJguerKw30vDfTLdZh7414doNhbcsb8b4HU04oPW6KFNgp2N9IsO2TN7GeDmib/dnxCPzkhe3DcH34fzd8mg+H5Wp5+93fJXVpuYem+78=);lineShape=1;strokeColor=default;" vertex="1" parent="1">
          <mxGeometry x="447.04465278399994" y="181.0438385037803" width="19.120551937517575" height="5.397031498879414" as="geometry" />
        </mxCell>
        <mxCell id="2fRyMZQDYy7qSL2sGxyz-25" value="" style="shape=stencil(lVbLcsIwDPyaXDW2JL/OlP4HM4SSKQUG6OvvqzQTikwQ5WaM1rK0q40bmh3Xi33boDueDrvX9rNbntYNPTWI3XbdHrqTrBqaNzRb7Q7ty2H3vl0Ov/eLPrJfve0++hO+BlwsUFKPQvc97Dhw7nfjeYjfdNuL+FQg6HgENOJzBq/j83jAZHxhyFHF+wwcDECGEhSAHKRyG+DducIRwQzkjRQJileAkCAYKQpCLgogbUY2uhSAdZdSBmcAUgQm3VYCl28DYoTka0A2ipYSiTXAjVROAlhKzLoGhGDUwARUdcmPl5wGOEAN4AwZHwFQACTzSqylIfImq4ZSZ/AewkNtpVErN3nDaj7RGIdeGFzFF+P8XnmatQjOaKlIu+gOeZlYo6XXwyMZ2FDqxHxSgWR5xpUFBBpp+afJxADRKKJ3MQ1IAcIdm9SA7Mec0zyLD1cABncHkB4CeChaGcIlGzUErC1DuDTHDUclnLXh7K8JYU2EcGm5kkwLabkW27tFnZU2skyUIT/xXR0vExWNgRPbrUyMTQNwQJVWvUnb9TAk0+ixvj+ebXZaFnVD/Z3Pp6hCJ6gplsXfa2PVbTbDY+Xy//p1IlvDy4bmPw==);lineShape=1;strokeColor=default;" vertex="1" parent="1">
          <mxGeometry x="490.3375661440009" y="178.79097224128782" width="4.019589858296058" height="2.876504377803485" as="geometry" />
        </mxCell>
        <mxCell id="2fRyMZQDYy7qSL2sGxyz-26" value="" style="shape=stencil(lZbbctswDES/Rq87IMHrc5L+R2bi1Jq6dsZxc/n7UtVIMWh7O3mTZByDIHZBDnr3un182QxeXk/Hw6/N+/h02g56P3g/7reb43hqT4M+DHr3fDhufh4Pf/ZP8/vL4xQ5Pf0+vE3/8DFzLkLrRHn5nL8IfPj34cccvxv3Z/GaEcXEZ0xvt+KrINv4IEiRAAFRLRAhDGgrigaIHsKWVBGCAZKgkJqdCKQrWhALTeGKAYrwbcpLjStQkBMBFMUCNcLX20CpqM4CbZGk6hKRQg9UIYBDsEW3qgJZUs4oHeDhMgFaibaGEngGRba7NP0FEVMDkgVSRFACBFRv1ZeoXFvRodN3gbDGSZ8h+MWztxonNoNWRNbpCnU9UJjlFNrVoPCkcTUhJQs0EzJ5F9TO1Jn7oWkz28ZlKFFrA1Ln6Uz70MRc7KQsCY5liMsYWuWttHHVwXd+KHCs023FtuizUXWd8Ci+T5GIvidALwB2QLQabYbU5EW04dwF0MYxq2GZpKs0Co1vBu7iIxyRkkJsF6JQYbgrZijkcJBlTq9uS3SuXhw+nttZlpG4xnt6pDtku3637tiN/enPhWXuXw1vJunGFzdybxpHi3XrifF1f2EG+O595//x7eHrcvU87nbz3ez89/4y1j7NFzl9+As=);lineShape=1;strokeColor=default;" vertex="1" parent="1">
          <mxGeometry x="493.8681479320853" y="178.87204696200456" width="8.47412356018367" height="3.696254323359881" as="geometry" />
        </mxCell>
        <mxCell id="2fRyMZQDYy7qSL2sGxyz-27" value="" style="shape=stencil(lVbLUsMwDPyaXDWWbPlxhvIfzNDSDKVl2vL6e2QySSq3EcPNcbKxV7sru/N3p+3j27ojdzofDy/rz/7pvO38fUfU77frY3+WUedXnb/bHI7r5+Phff80PL891i/r6PXwUf/wNeByASwVRe57mPERAv3OPAyAXb+/AJQIFBQgyIw3AAVSVgBOkJIJCKwAsUAOBoCBNIeMgMYKWTZAClAccF4GpASsSZcEriwDIkPWK6Bz4Nwygn1bJqmDM4QIBLEBBCBeBngPsSlTBDRYk5RJs04M0agrMYSklfOQ0VwBnfYGQrY4ULtCQHCGN+pr1P4mYEsHHL02AuomjRVmihOAgQ3ScxEvVkiGmapMTUbFLFbkJiNMVaLR8UuRc9qubAt34eZJajaVq4HRdq2higZAIqnLVGNrsK6hjzoQDN6QurYVrVxtPcaW+CoQc3O77b4r5YrdLKX5el2luUEvAsp/ABTBaW9kEc4gjbGtUnaAltJA2hlJQmvI4Ns+Jolyxv/FF5oASyc0CFw5VXqC2ZTAaRt5NPlGiDo7hKbt0I/lmM4GGk+L2xuiNp1iIoOA7Lfo5NhN9fok+fOoYmy+T0oAGcwXjk2/2w33lcv37QVFpobLjV/9AA==);lineShape=1;strokeColor=default;" vertex="1" parent="1">
          <mxGeometry x="549.5512635264281" y="180.54952018479617" width="3.2230755116520413" height="3.224848179439732" as="geometry" />
        </mxCell>
        <mxCell id="2fRyMZQDYy7qSL2sGxyz-28" value="" style="shape=stencil(lVbLUsMwDPyaXDWWbPlxhvIfzNDSDKVl2vL6e2QySSq3EcPNcbKxV7sru/N3p+3j27ojdzofDy/rz/7pvO38fUfU77frY3+WUedXnb/bHI7r5+Phff80PL891i/r6PXwUf/wNeByASwVRe57mPERAv3OPAyAXb+/AJQIFBQgyIw3AAVSVgBOkJIJCKwAsUAOBoCBNIeMgMYKWTZAClAccF4GpASsSZcEriwDIkPWK6Bz4Nwygn1bJqmDM4QIBLEBBCBeBngPsSlTBDRYk5RJs04M0agrMYSklfOQ0VwBnfYGQrY4ULtCQHCGN+pr1P4mYEsHHL02AuomjRVmihOAgQ3ScxEvVkiGmapMTUbFLFbkJiNMVaLR8UuRc9qubAt34eZJajaVq4HRdq2higZAIqnLVGNrsK6hjzoQDN6QurYVrVxtPcaW+CoQc3O77b4r5YrdLKX5el2luUEvAsp/ABTBaW9kEc4gjbGtUnaAltJA2hlJQmvI4Ns+Jolyxv/FF5oASyc0CFw5VXqC2ZTAaRt5NPlGiDo7hKbt0I/lmM4GGk+L2xuiNp1iIoOA7Lfo5NhN9fok+fOoYmy+T0oAGcwXjk2/2w33lcv37QVFpobLjV/9AA==);lineShape=1;strokeColor=default;" vertex="1" parent="1">
          <mxGeometry x="558.5512635264281" y="178.54952018479617" width="3.2230755116520413" height="3.224848179439732" as="geometry" />
        </mxCell>
        <mxCell id="2fRyMZQDYy7qSL2sGxyz-29" value="" style="shape=stencil(lZbLctswDEW/Rts7BPjEOo//yEycWlPXzjhOm/x9yKhqDcpC4h1N+pAEcHHFwd+8bB+eNwO7l9Px8HPzZ3w8bQd/OzCP++3mOJ7qaPB3g795Ohw3P46H1/3j9Pv5of2zjX4dfrcd3iaOnINzDWP3Pk0lgeTPmfuJ2I37M0IyigayIFoAIXgFlAIygEKIUQESUNI6UG/MpIECietAjEiigLM8XCQCI3RHZAitA94hJw0wiqwDTBANlIhgpIkShHUh0pzpNYB01CkhGzGQoOjKxQwfjBgygo4h1NIUI0sFrK8UPLyRpUigogE3b3FZGwE5XwPkjJT6KwVDGlXNQRZBGydIrQNdk1YRZN0QrXBsAk6f0KRhneAhOq1NfEbh6jLptFZ5i5Gl7BG1Wr9ooFTLpMX3ZY/+U/M3bcAH+C4I22g4IGrva1ZmAFSXw8IsLSBCNNDs+GrAsI0q787vad7hcsx9w0U2TWPxPanWWSxX6k3Js1mDhXVzdQxDqeTBWngUTFW0/XS3FThLRbHvfw9ntH8ofcXcfODlRuDe5+02qK2edBuwef+y+HomO6HLJwPxbFB/iTr4/+J4Gne76cFyvt6/UOrU9Lrxdx8=);lineShape=1;strokeColor=default;" vertex="1" parent="1">
          <mxGeometry x="447.3325233809087" y="218.33756614400113" width="2.876504377803485" height="4.019589858296058" as="geometry" />
        </mxCell>
        <mxCell id="2fRyMZQDYy7qSL2sGxyz-30" value="" style="shape=stencil(lVbLbhsxDPyavQ4kSqKkc5r+R4A4tVHXDhynj78vtwvXptydIjftiiPxMRxqSg9v26fXzSTh7Xw6ft382D2ft1P6NInsDtvNaXe21ZQep/TwcjxtvpyO74fn5fv1abacV9+O3+cTfi64giQzSMKv5UcWSPzz5/Niv98dbuwNoM0BUkPM64CcId0BpKO2dYA25OAAsaIRQM/Q6AABsRB7vWxf7ROzr1DvUEKoxL6hefuGIMS+Q5MP2CIiF8QQEPwNIkiJXtGGqgVIoACpHlCRWZIaJHsiJe6SovsYcoWwNBlVPZFyQyVU7QlNxxuUxSDIPktGXsbtHkeXrBmKEkBAHagUkTsFlKHSiXJjvsG7FAs6y1JE8YXrCCxmgQ4xozKHLIU+ggBl55fL9tU+MKZWxKF7LsRaI2r29srVot/JkfUab50+ONQ5Tw3ge03qRdHWAMWLdio8hgYdVN6qzopWkbxL2bLENLjcdXPjxP4oQK0OXuW1ohK9yKYXHtCs1wjzjAiD5s2CQFyyEPwcuRHmf7uE4ltnriTxKI2j0+pCIxhbYZZA4k9E9AE3G13k/IA82Asa4Z1lw+tp5Sy6G2tWdDYSbIb5Aqi1JpHfgObboCgCabQI9QOkBFovQR1m4F9KrdS3D/Mm0fp+9LH2f3tbXF+GL7v9fnlY3u6PL0n7tbxC0+Nv);lineShape=1;strokeColor=default;" vertex="1" parent="1">
          <mxGeometry x="457.0445224336695" y="221.64722758608764" width="16.957347026730076" height="3.3088218564269027" as="geometry" />
        </mxCell>
        <mxCell id="2fRyMZQDYy7qSL2sGxyz-31" value="" style="shape=stencil(lVbLctswDPwaXXdIgCTIc5r+R2bi1Jq6dsZx2+TvC1VVaogJEt1oGYvXLkAOfPO0v3vcDRSeLufT993v8f6yH/jLQDQe97vzeNHTwLcD3zyczrtv59PP4/38+/FuspxOP06/Jg/PMy5GtDyhKLz8+4KY/n74OtsfxuOVPTNqM/YBIbxvXyuYjD0hx/ftGyHYfLLrv2WkYPMnkAeoi7/XhBicHUBDthWzgJ0IMYR1iKxFixsi2hBFkKsDEBAbQA0Qr4i01LgAWkBpDiCg2gitgJ2UqqyJm5J0mK6MFC2AET0pBZDYohOS01YRtGoAotpwxC0FYgFZUJyie0AisFP0lJJlmsQlbiraRogZmba0taB5XVXeympA5QNhJDsOKE4+byjP7dCkGus/toX3Tw4PExJvms8kSI4u+hVQtEle0d2SUaWUsmWNKS91055UF8Ebt24Ra6eTQ/RmQH81XHX6bSa6y0cbV702IUiXkkNc6bTHIMc/o602THEXt5JgtSr+NL/u3Ks9z46O+oskLz3+nH1KiI4ounx0dMqWeslfqF0/I7ujqXzZXaT71ZvLtRz0mnXY3frW+dheD/8fVg/j4TC/y67/Xz/E9NP8iOPbPw==);lineShape=1;strokeColor=default;" vertex="1" parent="1">
          <mxGeometry x="488.904227243017" y="214.87037017766943" width="9.171848236858295" height="2.2592596446611424" as="geometry" />
        </mxCell>
        <mxCell id="2fRyMZQDYy7qSL2sGxyz-45" value="" style="shape=stencil(lVbLUsMwDPyaXDWWbPlxhvIfzNDSDKVl2vL6e2QySSq3EcPNcbKxV7sru/N3p+3j27ojdzofDy/rz/7pvO38fUfU77frY3+WUedXnb/bHI7r5+Phff80PL891i/r6PXwUf/wNeByASwVRe57mPERAv3OPAyAXb+/AJQIFBQgyIw3AAVSVgBOkJIJCKwAsUAOBoCBNIeMgMYKWTZAClAccF4GpASsSZcEriwDIkPWK6Bz4Nwygn1bJqmDM4QIBLEBBCBeBngPsSlTBDRYk5RJs04M0agrMYSklfOQ0VwBnfYGQrY4ULtCQHCGN+pr1P4mYEsHHL02AuomjRVmihOAgQ3ScxEvVkiGmapMTUbFLFbkJiNMVaLR8UuRc9qubAt34eZJajaVq4HRdq2higZAIqnLVGNrsK6hjzoQDN6QurYVrVxtPcaW+CoQc3O77b4r5YrdLKX5el2luUEvAsp/ABTBaW9kEc4gjbGtUnaAltJA2hlJQmvI4Ns+Jolyxv/FF5oASyc0CFw5VXqC2ZTAaRt5NPlGiDo7hKbt0I/lmM4GGk+L2xuiNp1iIoOA7Lfo5NhN9fok+fOoYmy+T0oAGcwXjk2/2w33lcv37QVFpobLjV/9AA==);lineShape=1;strokeColor=default;" vertex="1" parent="1">
          <mxGeometry x="460.5512635264281" y="292.54952018479594" width="3.2230755116520413" height="3.2248481794399595" as="geometry" />
        </mxCell>
        <mxCell id="2fRyMZQDYy7qSL2sGxyz-46" value="" style="shape=stencil(lVnJchw3DP2auaIIguvZy3+4ynI0FUVyyXKWvw+YKbSaYPeb+DZqASTWh4UX+fDj8cv3h0sMP95eX35/+Ov69e3xIh8vMV6fHx9er2/66yKfLvLh28vrw2+vLz+fv97+/v5lUI5ff7z8OU74+8ZXG7U8uGL45/YlUSr/ffh8o3+6Pu/pI/Xo6HM9py+FenL0BZxfAiUvT+Vz+hypevrSz+mT0nt5KpBHIgWZ6DOFcE4f2a5/py/xnJ7FzGH0hRo4v1HgibxTAubnQGF2FycScD6rfWZ9uZJkwFCIZ4YYiJFI3QyyMURqCZhUzCIbQ7IgPGZolGcfqFGjACdnanVmqNRRFGVKTuluRxyHKVOew04CzJusOsxWEj0C+KFk72kN3YwyWc9rM4NAs9ZKyemgdgO52SKl2XHSKAKztkphToakQgLH9WDJuzFk4gYYhOocGqlTBjr04j2dxRDtmKGZABtDI0EidUvIDQGEIvCDMrTZ06VCzOMQDLOMQ2E8Iq0VVWYzqfMZRF+vVGeZGlPDjihzMLU7wFcN6DbkC9QBQ+2GWxuDeg4EU9XzHLYWGK5Fa4O7ocIMGsXK6dANPY9xRnx1U4aOylWiMDtu5/xjsNR62RaZUMUqVMRrjdBVaxDPsdETMVAim193nkb0ybuhYRAQw5QtuLUkAROJAe9GLzB7ltAuGUZqojjTK2KgfM5efo2rgiCJwhx1KVkcntA7+ZU+Avvz2rNpyUaAxJSiZ4AIFg9uKMDF2lY52B4iIR02FfdKozRIdt7eqiAqOBuC7moVgpfBwJ4BmjUtvXAxu50xOLRQBgRgvFWmjeFO7m91ZscgqDtk4r4wIJGCzx5lCKjyUGpe5wIkatQXegbZ1ny3ql5DjZue75yW7MuZ/NHTJ2wgH3cJVgR1QXAaiw0FZ072gSpwyNMwchVh3IDSOfmxZ+iAGdwYpgyok9Rk86mwfTnNzqX1hBiWfFnTQIooFX6ZgZdCIja9nobGXBm08jTUevo5qWQ49owL5lCqgpuL4PvI0cYhBvYzRksYYCLJ7OjWsEjJb0g648jQDHV9pNioddyCZT+UdFwZRpc3O1o7VSRSij4dBgPqVBcYHiIhhm6lad9to0VP9YuYHm3oOG7PM8mccNoWRgSsbNPp5ukK+7C2FYJdLCFYat0vw1qAqwyNnDTrUIsNHWcMrqTr5Cb4huymyQYxYATzMn6i+qNKO8ep7zMIDc2vON+QNeCRH5btylifgFhq0TqvXQ8AR72+NG/ZhohjhrJsJiKsump1p4N0WLF0mHSLQLkzTBbfEysDyunUPcxIsYJxhhp+f5Ohp4V9PojABnQs8mbH3dlycfNKa00SPDlkt9rDw1izxd9Gj2to9sMn42Ey+taHMXQvq5vRUgP6aNXvfZ+MppJtw/G+DkdrydHquR0gHLVV/O7WyXCxOtzv9hfWW56FqKvmAbZ563NBgDmzPkfgbcr63BEwrizPKQEOF+tzDa6BCnQOGQMJWtkGv1sIsCi3peUMuGKy310yXO0oskcfP+XOytkt5olRth/Q3zk/OoTD5y/6Ch4GF3vineXqL7y1WOMhGcb/z3i78zx4l15/vL9Ffrs+Pd2eMvf/92+X+un27imf/gU=);lineShape=1;strokeColor=default;" vertex="1" parent="1">
          <mxGeometry x="434.0573948196802" y="280.8249855284537" width="29.09652508598083" height="49.87822215951269" as="geometry" />
        </mxCell>
        <mxCell id="2fRyMZQDYy7qSL2sGxyz-47" value="" style="shape=stencil(lVjbUhsxDP2avGpsy5btZ0r/gxlCyZQSBujt76ttxkskZw/wttlIXlk650j2jq9e7m+e9rsUXl6fj9/3vw+3r/c7/rJL6fB4v38+vOrTjq93fHV3fN5/ez7+fLw9/X66WSyXpx/HX8sKf05+NVOqi1cKf09vOtXy/8XXk/3D4fHMXgrl5u3btn0RyvIJ+ywUfTwC4uFCjY19DFR42yEJiQ0oJup52yF2isU6CJUAHDLlbhxSpNiBQ6AejQMnYoEOye6B+yjLRYdO3SYpV+KK7Gsw9lrGGJG9y6lkiqAIur6Np0ZiuL4rcm0UE0yQWJS2SgVlVCPK1kH3BCJKGoDDdaAIUMGNEnsHBFQtUYveoQKglkIhTCEBVCiXg+VaKxBGlX2WqhCDkGodMDgrdAZpbYps+wUNsoLCNSa27CydCiCbbtFjm6kALClymsWSalQF5GltKNbqEKCmKtSC3TQzdezgsqSqhqCxONiQUqCMvqD6YDcdGep2i163YyQBIUmj0L1DRJ1HJh0OQxYuO6gOO8bBrAoPAq90IAHAkDQ0a8UqdYALtXdkKCNnW/bFZogpo3h4JHxNEDXABGWWkzCsL1IpRGePmoJWuFdnH5BYaDl9PEiza6LsIEcCFFjVS9jlM6D1dTRKlseQAmofLWd0TsBqWuz62iKQveLN6fuQsq18ykQYQf2gDZk6pyRimIyEnDkEEJJS0kFCQ2LkwH6W6hhzyhmLUe37CNNpzBFvnETavnDebkCVGqWUfdfHk50mSGz8cfTorQqw51hC6zfi5OxhwZrXOGyvjaaK229Dg2kds/cZIFAXiCH4KWeRCVDi3r2sLDoNPqEO1eaI8zjEbDkkC9KchlRedtDh0e4694Hbyw7TKUcH8oZCmnqZIrGiKUezZB0qRlIT/4X6zlgU/dDf0nhzWb/Ec0Enq4AEUhuILZymISP2s1dIxSMaT3XEdoKntUcDsA7xbmLua6K3jglBJgewaRU48ZKKORrXNnP2CTSf9jEqrvaNMtqD19SeR6e+aB98X9M6d1CFSQGW0yC0d/HoIQQ12uCHZVVlJMIavyNngU1B7Z1c6GQFiBA8hrjBO5HoTzi8nqoug3RS1ARH93lyL1RQPMUPRvi2QgNyAC2QxirPzVIAxz/fMUXYlOc7rDi6+gfvyCLM/3wHF6H01jIdzgaitoQ0J2eP+K6ndnbHy4Hwy/arLL8NRegqRO3FAi5DwVJ7V9/ySXuhAHrfHE+F7Xver04xaP0pnw3O4XO9+ifx0MdJ54N4w/r/vr0+vF0w3x0eHk730+f/+wtpfXW6zObrfw==);lineShape=1;strokeColor=default;" vertex="1" parent="1">
          <mxGeometry x="471.79803161123004" y="301.5284275811857" width="24.50629814202921" height="26.722085168915783" as="geometry" />
        </mxCell>
        <mxCell id="2fRyMZQDYy7qSL2sGxyz-48" value="" style="shape=stencil(7VvLblw3DP0abwVRb63T9D8CxGmMpnHgJH38fcm6Gl8dzj2D7FrAO2dCjsQ3eai5y2++fnz35f4uxa/fnh5/vf/j4f23j3f5p7uUHj5/vH96+KZ/3eW3d/nNh8en+1+eHr9/fv/87y/vjNL++u3xd/uGP5/5UqhiTCn+9fyBtDDqP5/8/Ez/6eHzRj/TRm+fUPoxNvocQyuMvgH9WCee0Jf9/qUFaYw+799fJVT+/bu8tYYyGH0tG32TIFzeutOr/sl98vq2Rd+FyltC3OVtg95Hpes7fV4au0rfwsy7ftrS2FX6EdKuzzJCIfefIbWdPoaez+klhhh3ByqhRMpQdgY98wbD2K+kSmuMIYey28ysyBhKyIJXSkSpxgBRk9clTxkmhhkLe39CKUvRZwygVjV05VdqEGk5RHalHtKu1jJX8F1nmI6hhcxyRQwTGNKyzHWGtG58UWundlBHAC1l4em0hLTbQZ3vX1NeZ6ghQoLXBMAZ2i60SIidMow9BWgGZhlV6cH3QuUXAiuoX5AMoMdHiE+e4VtIGegjy/ANw1lCZxm+YUm7UXEayivrwOv0GgcR6Zk+u79/Y/L20BrQT/79A9LdqtFn9LMD/WT0I0T0B1ZBPH3h/jNC3hORfkDotaER0L/mDXIhDfEBDNzCmszRI3jRz3X1EIcrRWIzTVOposzEJ7QIg071gEREUIYCTlRoZswTG6OX1HedwZnNtED8KDc0g5YDylBD3RlqWansjAEyUeV13KrFxBNYlVW1Tmh/tcEiydqqNvRfkcqgOumgVm1eSDhoEU7OcJXIYA34ziC8xda+oO0Ju69vuE5fV759SWCD6KhqwtsTUqRGqE5iob1Uc7FQaSjoBNGgQw2d3Efp+wR6VtBaWvnwUKCIfpQ+oz4TiZvmZhxZPckZ/Rygf1ZwbEKBFicI07/6D9IXJm9e7nIogCTXtbL6pUMDwumhgGeaJYweukzaMxo9xDwt+Eovu34qHwHTMv+hGAwmcMTpQ3tSNjTWgRFpTQkLyYY9hVU4EmOaI2D60MTHnFQTc4fBV92QDdYFZwPNG0xL+n0DoIGyAvvsBHGzfuGJse8ndN65qB0mMGjvzlxDQ223dK/cNSaWzN6XVFcZ9AKlIgMTuruyr1dqpKD1uerdAXLpREvjkq4udqg0gY20BoiDa7CMNPIV52MzxdBpfGconcJwygCGK7Ky8hkDqNXarxsMMCZM2vf7E15m2zMG0JIVKiZ0QsNZG8wYZI3SRxiF+xK0LjVStfaxZrkDHsemO/V+mDbVvdm8rwx5v5I5C3FvY9hT5RTqS8oAmPHUgsLc2wXQLLRj0xvLnu7HpDPecI22KnoSBhPR4bSsSVIRAZiu6l2kZM3hADOhWlKGugtt0wA/YQgyUBkmNjI2xpE0owy5OgZ+QnNX6iSmlQFlkNWtnDFAySrcWyU6BLkkmjbsiIYMrMjNiamvZArimZocA9sSzOmcqVAAQBkkIYNw74PuxE5gQP5wps60jM6BqxfTEvdvmAPUDp20AsqQJjKw5YidAJYWOnpajDp3jfwEGLc1IBrXEgxLFnLsStc2KoWlvonjs12Jh1x3WYC1lXM6FEP4UmhigVDDUbVeY2hcS1AgCh/KfpyhodCGJpFWYOaF+R3ae9qHTvTWwZHnUbFLnImuwvT7oPmek25UuhvkDun2rF2HKjd552rd/K5Xrd1sY6gMdY8gayeYEG6B0S+7qzMZIH3ryMyqnHZMHQJiUkjJZhRYAPJ5d0SUwbY2zNTJgWhjwRBnzoSm5gViuFWyteucASeIeusESEyZO58ygAy5UShNGTDfJ5rJRnN1d9B8r2rNHoRmQV1c2pBV9s4sncFbB13oqS/hm4RCAcresQSp/yYWohkT0+Ay6I0BsrNRjZzgMcQ+KS5eLzj7AXdoDFUuq5s/aKkyhCnhCU0LKztBcM5qZY1qpyfAumEs3OyMATpd/YTle8OwXB/a2ZXcyiRXztAQuDM0ncngXqBIo65hMB0Ybgn1CtffvcL1/zu43tF3mt5VnxCSwkdudWjYk0riITndCwlZ8ONZDEMzMuhkWP2q99Y2AFb6k87n1auo88wbEfHV9osB6doVYIOnbStbw1Z85WHjNlslJyzKtphlC/e5wvbC0OlTTe2dABKzzRGJhFxwGFZfZMuAnPG1o3oK6/2VATzPgHR+JXjspIpm2VeFBmgy8wqY3bO2l0di1xkGgm6S6ThidnALd/YCK1+wo0PJZCUwC2LKwnNMGgjV65XoM+SGRUduvAqruBGcFNp/faX2+koN6P9br9Q6lrTG/bOvNzWHGsti2L/slkkxNmXAV8u8pvm35pZo2AkFY+DGeiElbAUL38SmywblUATZ41cZCO1Y70D8QhqiTVo1WaCJawcrfzGvzRY+pOZP8tURUOhEH2ApQwfMedAiKG7EKdy75bJhv7jGoLstESwg+cb7dFnd0MVbJ53fVa3TtWyse1EGAC1ypKCF2WEPoFxpTlWG5FaGDLSQ6BYek85GE5Ed8z0GvqJjtHbj1yOIHPHNWcG+vDeeVX+QPiLYbMgTub9bFd749U5EtK/xUcrZq/LZLrqls1B8JuLTy1KpA0XEpTNfQcQFWB1CgA0h0T36zRTycsijdAqsR3zKo/Ssi4r4vkNu+Q9CG7f0Ca87hP+aI+JAJPwJjHtIodWE2UsQcrRf5VD66l51M/sKTk9Kz9J6wnlO5WWr+IS/jlF6BiS4X/epffn3/+ivJW/R6x8vP8388PDp0/MvO4//jz/l1I+efwaa3/4N);lineShape=1;strokeColor=default;" vertex="1" parent="1">
          <mxGeometry x="500.76190275988574" y="290.6421822400939" width="93.47736419191824" height="42.57712608163274" as="geometry" />
        </mxCell>
        <mxCell id="2fRyMZQDYy7qSL2sGxyz-49" value="" style="shape=stencil(7VzJch03DPwaXVncl7Pj/IerLMeqOJZLtrP8fQArnDdszPREp+Sgm/xMvCFILI0G5t2lN18/vvtyfxf9129Pj7/e//Hw/tvHu/TTXYwPnz/ePz18k7/u0tu79ObD49P9L0+P3z+/f/73l3e6Uv/67fF3/YY/n+Wqy02Fov/r+YPiXRw/Pvn5ef2nh8+79cWFsKzPw4V4vj65VPH7aztfH13363p5Ymfra1rXD+fJfqIr6/5rcj2w9Tmv67urdD95/f6WXKx0P3Fd31yn5+nLsr5HFxJb38a6vtLvz66t+g4/Pzmxh76e/xB9y/n67lJf12dXib0F74oRaORAgzzf447+saljgTIPZBOILpIjCn3e6O6MPLtjcalVh96cZ04QnYdbS24QHfSawSw8d5vi4nrPrbjB/Ka6tG6pBTeI4cU2z2TnOYXp0PAJNbvABUAH8eVEbE+fsJpGja5xHcCbRSCwm25orTXwcNfQP0WAxV9xIJ9RwDMdxONAB89vuhsdRIDp0F03WwrsHiREm1PKzFqHiw0FqA7j4OIyuzgRgHtI3KfHNOadAE0M3Q1QekynPROoxkUTv+m6Ki1BoDBbGjPO7cMMSyZizKtPdwme5AkpmS2VeQzHAmX6104gMYHq6noPPTtPEnoSjwOBMO33WMCcUqs0P6SBwVhumub0MVP4JiDHwLYkgQz8IfMtFVcjCgTi03JxgAP0Cdw0WjAC3PhSQoHEkFibHrwLAp3HVkgopbvMIx8EAQGflWWg4QYIpInnzk4JBcK8ymOBjFsSvF25eef1prNoRcJM9oi4RYCBk5xdKUaAbCkbvJRlk8SW5EzAgXKl91AypqxcZqQ6FqgTdG4CeRYGxwId65gsqJI8QXJmMwJMB0lQAE7klFjloFkZSiWeFKUyKsa8GSITpUEH+SSSYFw2y9m5aGL30LD8kSDA8JIIeAgzncIfuemyhhnBrYU9oc7v26VdVnDoIUIW9Vzpgjr0rao+M2+ADr3Psv3slDCx8yyqN72Ge0mKnlmrn1XedkpycSTMKA6Gi2v04hSaAzMxaNS44a9NIM7geSwg+WZVWsIMC5Ui0CEuiXkTj5M0ntZ7ELiSSGKvJk9LxihM6TILmCkghRqrdlVgPdYYKCJTgfVYQ6OMTy0YNUKcGeNUAKyVUg61IHIQLMPuuWBUShRH6/rVLiKNSbp+wHpGQSm4W9dL9cOvDHKPp7hH1kM29JPEOlsP9Zun6LPWef+39TRWVCzGPMUL1SRnz++3uoH7Z7lcAk/A8xzMPht6cbj6ftCXU3S6H8gHPJTWWaRt+ymUw6wVGa7I0Y4IQDqQeiC+6MoEVjIqRp8AMLXQtKwCFghzAUiags09M6M2S9kd2qH3YAp0SXIs0DWP2LwWWhi2iOyqcmhEaUnCSFcPynBJKQt8rGyyEPDSOurQOKGvHISphpk7dEPgalZklHLBckGRAklpgp4AvChyJhFsGAJXygUWMkZA1Ck1Pkv8I2IM0JKdHKtsaUAjJlB41AfyHlJfsHKhGzqpZJqXu3EgQYkssYkANmMyLdtEhwAc2hZHzu4BIp8mL3YPyTCNmfrDKAdcZiOhcpgaSeISI0qGIXALZ61FAECkCDD0LwKjokBkxjewVi1b3+tMoBoBBlNFACKfnBLVYUyOemetrHsQ/IZadhKMzNRHwLnywDQGgnMpLlm9IALYja00s4tAWOO9FsjcmLC/2mjtOfrRlvgTAN2KAAtMoxlOrMxcfybQOwp45tQ2s2fapBwdK3Tl9fgpReNyNKN0DH3qQczlOtae6qPcIfAeIk9B42BLlQsgPZQoqawOZJy6k3s49tHKPQhDWaE5SAMNPKFyh3ixwGb+Ozwz2LlmRBuCmKjScVLzO46L5VEBD7ClFim7L5m6NnwC4yV6nfB/BxMZayAgzvJDdJCgIJ6piSZe2VIE+x604SACGO8T7R/0hgKZx3vBMzDNkQYtdcc2nLMrzBoz74i1ffIUfY+EfZzUaMtbngDVd+bltGCyatj9QZSWU8IZn0yr0d6QkFFynQlkM0kwaDTuwYxPJNpE1LIJBColTXQcoxkBVskl9IfGJ6fEgyGjNB6N1YPX2CpRgzKBHfFPHZyctOMTHM4o72DalFTAzCtJjcI6diIAwVjCPZuGqIas16jBaWjo41wxGxlz3BV3UjCLXrEzW3W753/YxWVEWDFfKd3XMBMKnYYQAUMSs3rglfR9JX3/56QvtrdmTX3KTsJgDPeXZhwsTgv5lxvSPs+FwHpC8SIdNMzjkdeeeqYAXiKnoZvBUxc99IpTXDlS1FmLgXjtKq5g/ki8o5dNueDpYFk1I9ZKEjOlI1JWAi1Yh7uaGVydsWL9544VurKPL2rrDz7KqS3x9R50jpjNMiQztLuNjh8LxHmImw59zhOdCeBwXJoc7dmWgPNtg84cquUAAMu0vpBT8gaAMWqlmNmeylGnTuebkVrWAymmOyzGwoYUdVTHoH+WCXWmxLL7TAcz9iUAjFErN8i4CXSazG8q7gToTZtAljutYPRM4kt00DMB5tBT81YVAx4rQxg5m/5BpKEye0Phxjl7cCiQTL1d+IxVMqBKzJHlB4W9EL0bBcLJjLkU3viJwwxa8uHpZLibwqfpkn2lptFZ6GSgtroUE6hYeooASyjJNhw6LReyVXpQzkCbYdDH4bYkeR9DZaUep0AB6m3PdQjIfkr0ZoTVbbhoE9jy6tkpwVhwj5QHVLYJXhuptIrR6VIQ4FsSj4PYOjydORSPg+g9AiX3U0AdBq+U7OsK/cJFzWsjF1PvsR5MBLI2pX0LT02DvUxgPO7GtZzp8PquzA8BZkuv78rMi/uP35WxW+K1qD1WHWPh1grwR6E0E6jIWrdOCYFop3x5dyxu/70JcKwRA7Z9tK9DTil0zEDjov9mujij0lMKCYGuTi8wAY+DAdpfY80ApDJ3PcJjoIu8iTyAxYCMnVxRmTH7EXkWHSEh7hbM60ed1qHeZKtEyV6PVtQ6JdI8mmnj+zfrdQyOnL/p4Krv8+8H8Mln3b3p6iU6lOERb2ee/YMZVLyASPjaq9RBnr1/YxioxF/KwCJJ1jMk3MyQe6G4tplStVD7bOb1oUqTQcPWwsW7Pd1Uwo03/zBfynoW4wxGyLwUaRhDxX5Yx8nQqpk38y174Wm8MjhN63h6X1DnyHrmX2YUWNczsvCFPyhxvV7+uP16xYeHT5+ef/xi///4axfy0fMvZaS3fwM=);lineShape=1;strokeColor=default;" vertex="1" parent="1">
          <mxGeometry x="483.735921357033" y="346.03164165593716" width="105.1961713773901" height="45.95544960095913" as="geometry" />
        </mxCell>
        <mxCell id="2fRyMZQDYy7qSL2sGxyz-50" value="" style="shape=stencil(rVfLctswDPwaXTEkwRfOSfofmYlTa+LaGcd9/X2hqnJMwt5GM7nJ8oICsMACHPjubfv4uhmCezsdDy+bn+PTaTvw/RDCuN9ujuNJnwZ+GPju+XDcfD0evu+f5t+vjxNyevp2+DGd8Gu28yR+Mgru9/wiEae/L77M8N24v4AXktrBvbsN94kcN/hMFeADU0wNvi4HXMWz4kOHF4CPgUpp8EKp3sYnTyk2eO/IgfwkISe9Acttg5yoht4ggxBKIC9dCP8ovI4vfciFGJxfmXLuKHMggKoRtyliknAbL4VqS7FmFJSE1J6CQBmdL+RTn9CAPiBLvs8f0KaI0EBayjhDyrw7h3huGy1EQJp+oktS1jRgg9hWRQ3EBaZVWpolUEVRV+JWKfRNBVEr0blNkzoJg84kbdCiYgS6Uw24Le2qbxDVqf9CUQFBLiUqbW0kFSTkkjGIWkyrXNJ+S4g4E7TXjgUNatMacQMZ3rR/0PmmMDz5VZVXyOc1pe3VQ9yfXfOwyjiaUrY/Y1mC+qAEZIYyb0WmaCGhLBkZU6GtyCWjk0okdMkI8UUePsnCDgetRtQ/dvoIrxxvqmMZJPbK/HRwwNkJrVEhabU7gBpkEIPdMtRAwJZxZY1xyyL0wT1JPCw/u4ipgQADu+kpcWjsmk1SIhRKs6gqPoMceROAdiiQGc2H7zlIQGVc39CVIQVu2brOApCgP458689Uh2Dc2hUDD08reXgsGH84Qtk28U5jB/rf5dPjOah8tRWta16E/Hb1kOEQWXkv+i9cH96vYM/jbjff4C7/769s+mq+7vHDHw==);lineShape=1;strokeColor=default;" vertex="1" parent="1">
          <mxGeometry x="587.1412429458112" y="198.03136568519335" width="45.00420392562614" height="1.9372686296132997" as="geometry" />
        </mxCell>
        <mxCell id="2fRyMZQDYy7qSL2sGxyz-51" value="" style="shape=stencil(lVfLctswDPwaXTEESfBxTtP/yEycWlPXzjhOH39fuCptEZI2k5uiLEwAuwtQQ3h42z+97gbv3i7n0/fdr/H5sh/Cl8H78bjfnceLPg3hcQgPL6fz7tv59H58nv5+fboir08/Tj+vv/B7iuNAPl6jvPszvXHE4d+LrxP+MB5n+OAs3pPnbXyMFLnDCwW/jZdE0uMrZYBPiZLr8BzhASVSMgUEEtkOqJVKHxAi5bwdwM6R63OKQgk0tVTiPkAKOVBEDpT7LmU9E+QkmkDqAgpTqaCIQpx7Hmpjcj1ArDA0oIK+sieWRUAERJAPFh8KkAbl0uMLBfD70jp4wyeqgLVIvm9p1RaAlqoTTL0qPIBXyowTPDnAQKbke7yD1mG1cl+w6rAgxkKrbxYQkYgShWQDEgqoC004qDrPTQK3AIZN1XFV2LLw33zrAYuia2zC2johL3QUE67BpJSpggDtkjPK074hphP5hdUKkLYyzX1bZ0NtS0y8yCmhEUZi3FwoQ3eK2CZF6M5o3CBQ3NGaQWlmgJfW8Zk7BSg1UTH9YWKA19lm+qMEAGF/Fh/VJ/3OyUIZFazztDdCio3z9YqLPUF8W9brklDOetWF3Gb+ekq1ZXzb5TriwRqMgWK/pNRLFbl/MYTVGhXQVuztgpkqXFK8wAtI6Hb63ZjtKrBeQBPB/TqVAMnOcoz7qRLrCdONieFGENAyjqS3TGzHrY8geyfy8JoW7MWUYWc0VXtPRltAJ3g1cI93sdHZB+P2k9f2j/H6cP9GeBkPh+kTY/5/+02hr6bvkfD4Fw==);lineShape=1;strokeColor=default;" vertex="1" parent="1">
          <mxGeometry x="628.7032701364355" y="192.69856881072042" width="11.851431451682856" height="21.494802476977156" as="geometry" />
        </mxCell>
        <mxCell id="2fRyMZQDYy7qSL2sGxyz-52" value="" style="shape=stencil(lVfZctswDPwavWJIgOdzmv5HZuLUmrp2xnGvvy9UVYkBOav0jZaxJBfHAhzk7mX/8LwbOLxczqevu5/j42U/yKeBeTzud+fxoqtB7ge5ezqdd1/Op+/Hx/n388NkOa2+nX5MO/yacb1RLROKw+/5SyYOfz98nu0P49Hal2bso5AwBLRgAByIEwR0ewIXKgUAOokFSKOYIaAkyzlQBFeKIVCwJIqSEHBEpRoNoAYqHQDY+7Vi1i1TYQNoTLW+D9D9gj2haeyBm0qlYDl0IQYnpEJZbG68Oe62YxeKVycg0ur0bO0j5Kynd0u5Q8qR2DJulVp8314ouf0LRXD/suTAq32iDuxjoFQ9QFCmJkp5BQAeiloq7kqZAnCR+kjYc2aQ2eqkHLxT/1X4bUBaATp1QFoBbPNO06IjDlop9gTNuwZEbJ1IPeM4aKRdphYSFGn2OqyAiup/Scwr+wxSNa98lBcVvE2ZxDFWLwMXBcpWXVTRErR3itrDhr0LmapXAgrMK3nEepop256gdSCoEVJcVWYCWa1tMooHoLqJ1XtIAUi81EVSPQWY1Ux9VZmCKpOp9f8BSKFms3rqOYC0NuISPekMACVTtHGe+iYgXZNv/trnNvpmt1fa6P21Ll3yg+OFAlzf3BhgFNAtYGNEqrqf5bAxhCnAycXGmFdfb/yxOVLtXaMSKNlVhzxHGUatqV7YMOukAIKmw1OxtRCWXL9tn/xYG6BcaKG40QJPRtOg4vdH9qq20e8P5UvHAm+P+Gp3cXqH/akDsOsHOF469SerFDgfbr5bQPvbfufo4u2R9DQeDvMb6/p//6jST/ODTO7/AA==);lineShape=1;strokeColor=default;" vertex="1" parent="1">
          <mxGeometry x="597.8375188089431" y="144.70881172791735" width="12.619341308580488" height="24.808806586314063" as="geometry" />
        </mxCell>
        <mxCell id="2fRyMZQDYy7qSL2sGxyz-53" value="" style="shape=stencil(7VnLchw3DPyavaJIgC+c/fgPVVmOtqJILll24r83mA0nQ3C21z66yrfV7rSIZ6PBOcmbzw93n+5PHD6/vjz/ef/3+cPrw0nenpjPTw/3L+dX+3SSdyd58/H55f6Pl+cvTx8uf3+660/2T389f+3/4Z8LTpgkdBSHb5dvUqSg/37z/gJ4PD/tAYFynAD2TS3XASxUdAKwUgCAmKnm+YRE/c+rgECpzj4I5XAdoFTT9HxO1JBFQtUd0ChWANDx8+ZCo5BgkMKcBs4kwGdOVOYgxUIhAkD2ie5eIZMKxTlvMcIocSWene6JaQDQfN50lMrx85Y3cc9nECMrTF0MCqAurBkie5cD8EBkATBVZJKQuixY6YG0Weknd4KFWSDAF4ZSA3k2QJ6jxEwJMYB141KrAZmUR79v3VCoojxk3w2pjmI8BhRK8wm5kYDEpSVx2Yob+JAKlRmQjAhBWA3QxEfpP147BjTSNgEaNRCkLN7nQAUYlJVY3fOoGYqMshnPVwqgtIvxxfy8VSpqnlJJ5knSGQRkuagHJGseYFK1fp7ryJxCJtXkc1Ar5O0WfBKqjH9xDLBum8uiMBUwStpSeNnyhgA6ymYX1gx4W8MYlhsgkQCnNY5C2wARSgBduq3XHoiSJqpzHozEECepEUBaTkA+VFLxPqA8qA5ZtIsSImIDtKW8EwDEEDzt9QkGKMOOKItSSmCaaKM6OyFmEzqhjgm7ARSnOpPODXFDT1qquXmAIPFm/eJOCCQoc5HYjZ+GoxSI52KygVSASU29xDUlwSCsHTA7bWSPdEM3yRWT6TmUhzgk826qZ1SuPFzcdRBSV5r8CdajkGfyon02QXet+By5Wo+iEdTLe+4H09VoovQGcixQxoz50R7lGw2hY0RttXHTJiccOgCRZRkqe5sQBWpKo+M0F5MNrYxMCp77bIwhbdKy15SKnbY5GufMWRgiOMEsdoS/S82xemi+wK2C0ZbYBdDsddVx6DHAGmZORIlDEx1LMpN88wmmQpHXllg3eQXvG3ZCWFoITa1cfTEJ3qXNJMdMScfadQwwUeYUkC2ioFxNGPNcGzWMzFwT982puIxXoOYnhGUazSCJnmhu6ERetK6VI+Jvo3cXVstMQ8t0WsZihbTBixK1GVTA0Pp95XB5/veVwy9w5cCjMvcSDhWG+iUo5cFTxwD2UtroHy0Q0cjeUUDFl4g2E9fdEo0Tv4BX3D2R8py2kuH0WaSPMQxaT8RvrrKp2OOZ7mVJrwokxtg7YIQUgUFxmYaRMYOJ1+kKt3teFgFLYkYhSgsgj/6+NqpkDqrRMtLEadkc+u0aurgKXlnZjohM6gAnWBVuPwZwt+N95UNOL2G1Ec+IVdW3f9puFK6F1fVa2hbZY0BdZE+Bk0SKpzADKHI6HwDQBV8nyex9aKj4xCfOolTQZOCx6uzycGO6/eTbpdsA+/D/y6yP58fHy7uw/e/+5Zd9dXlxJu++Aw==);lineShape=1;strokeColor=default;" vertex="1" parent="1">
          <mxGeometry x="615.6895075312327" y="153.3605648276582" width="31.193693087606334" height="14.815266923269633" as="geometry" />
        </mxCell>
        <mxCell id="2fRyMZQDYy7qSL2sGxyz-54" value="" style="shape=stencil(7VjLUhsxEPwaX1WSRhpJZ5L8B1WY4AoBCsjr79Mbl8xqtO5AVQ4ccjNrNzuPnp6WdnLxdHP5sN9F//T8eP9l/+Nw9Xyzkw+7GA93N/vHwzM+7eTjTi6u7x/3nx/vv91dHf9+uFx+uXz6ev99+Q8/jzj1LocFFf2v45PYXM1/nnw6Am4PdytAbk7rAAjNNQJI1ZU4AtSFeh4gybViAb6cB8TsQrCAkgggupzGpFN/sglAimEMKXkXIgFUl2QE4EmggOAHQFaXSVlD6VXvAEUOjb6hjCEVVIm/wZs3FCesD6lHfMohOyVVkqkPSXqQ24ApB8kuKSFfdL6NgNjJsg1AADoCvFMGyK6Mb8AAZQaotqyxukrKmr1L0QJYlXLsfV2FxJLOmLhoAY2FpDZpCS6Smc7VRbV9aGTiIDNxpAZkgVYJujSOqCjVJQCy4VKjMoMcqpnp0Nm1DSidOScAkiZ9gBj7UVvRezbTyMF0WoMTTwEylrWALASg4uKYdBUaUhGnBpBcIoDla6NLhYpx1V7ElZB5BmiWrSX3MmwCGmpSLYDl0LJVPoSUyDy0YrlUMCGEGg2NGweoeiozwYNM40ZB59jOatMEVWgbGYh2WmknAJIgZGrqZCxTwxolStakk/MEAL9ZXb0dCAAqCamW/vX6DSRp1CTolANpxFL1qUqBvQER69QHxu9g2Yd3elKlih04DgTIlFhI0gNY0TWwocZETmaDLWrUpJqhznyCwluHOll6L7JBQsKMBpM0hIkBqrVkpVFxxcRV04fY5fa1AKxu9gaEZNS4dLk9m7Rha6M+9M2AxaYat/4iVdtLax65QtmXSj/CrIaajRxcnybbiMp8ZbDCVE474xzA7FFs6kSSxgHDGFF4gcqS9laN4TaUJf3fG78bb5xtH/7mjY1zfQ/e2Jzk/rE3Rh/MNQLYxRxTmixWlh7kuRGVsXEwv4EAluPr5FxZ0jHbAaondm1vRReN3JcuVJu/95NvbdTyTRYR4szMj9+4pPCER96aVjSFHU/AmZEUwrcVGjDyGhVjHgCrZ7q7EiLzQezgpG5TtuOpdo/wzQbOG0J4Gg/GLI1SEfpt3PauLd10vcTfyP9fPNfY4OXWiLwAFipW24HC3qD9hLDaIcx6IiSdbg4CqWlJdjWLdJqcO7GKUcdEzwwlTHsw80N0s8YQ+st8nk57EABGDFV7QQkAOwJg0M3iXG7S2N1E7EZzVSV2FNPJIqEPzG+rt+YWizMT9Xrz3fUrAPjwclV+fbi9Pd60r7+3V+t4dLyWl4+/AQ==);lineShape=1;strokeColor=default;" vertex="1" parent="1">
          <mxGeometry x="651.5076492520893" y="156.48965459629153" width="16.802287646405603" height="18.802773454872522" as="geometry" />
        </mxCell>
        <mxCell id="2fRyMZQDYy7qSL2sGxyz-55" value="" style="shape=stencil(lVfbbtswDP0avxKiKInSc9f9R4GmS7CsKdLs9vejYSiN6PhgBfJgOzoSL4eH1CQP7/unt90Uw/vlfPq++314vuwn+TLFeHjd786Hiz1N8jjJw8vpvPt2Pv18fV7e357mlfPTj9OveYc/C65UijqjYvi7fGGh+dV+XxfA8fB6A8iZggMkKroNSIViGwBRiNs2QJoHSKKWAeBqcQfYmVUAIPT9OiArMW8DolKSAVCUCjApZoo8ALSQIpMyyRjWKiTApKSUiwcgp3MjZQ9IZRtQE3EdfWgYoNSaB4S0DWhMlVcnAB+ahXXMQw2UAZeameScjiQI0FZhNXoDpzkECmFEGJkAN+wIHsNUG5UAnXD8tsApsKklktGkJtjrQOpOsC1A5qoVWPGABE4wrrF4kxBdjQnNmRQpAZN0VRDmFaKrVaSLUq0UgA8GcFpZM+UKTUpjBVkYIsi0OV2dSQwBxuZ1ySkwyRKnwQOQ0xZEF1YDRCBMRgR2FRSIQUcxenP0TiOtnAsoraQPtCADuChZGJC4tmtB3lCjIkD1ImAlCsNqeu/YGjvht7SyrSoO9axPAwr7vmthiEDIrMs6et+I4f0uxz4RdgRSMrYKGktujjRSAZLRJJOZAuphLd64obAXShugGnAg+/W59hDczxrFkdqpdZW6b8+qSdskoWiUif6EeRwDxJtzNrrAoYv/1vxWxxNsZESDCZO4AygDg0qiOpIo9JH0/nr1pYZJWoySfn8B9mjsjPywH+2v4gvTNgAZ09zb2DXFvVC32lRyHCIF8bH1dZyGTRxB2dv64joCHM/N/upqsuvG/fWJsrthhM6orQS4hDHDotRAxWUswhB9+pb0HwB7+LiUvRyOx+VOd/u/v8TZp+UCKI//AA==);lineShape=1;strokeColor=default;" vertex="1" parent="1">
          <mxGeometry x="670.4209085528769" y="156.67956879695487" width="12.885604722434891" height="19.870507425312667" as="geometry" />
        </mxCell>
        <mxCell id="2fRyMZQDYy7qSL2sGxyz-56" value="" style="shape=stencil(lVfLbttADPwaXYnlcp/nNP2PAHFqoa4dOE4ff18KwsriWpqiN0XmrJbD4ZAZ5Onj+PJ+GLz7uF0v3w+/xtfbcZAvg/fj+Xi4jjd9GuR5kKe3y/Xw7Xr5PL/Of7+/TJHT04/Lz+mE3zMuUeIJ5N2f+YWjOr/4OoefxvMqnBPVbOK5EMs+wEdK1QB8IKn7AAnkowUs39wEBL1xsYBMHPYBUQHJAiIFcKXENP22Bgjlsg/IQr5L2lMBtFamJAagJIEUqvTxnhyK1yoEEy9UHYjPFGx8pYzOL1QspSqLigB6nq2yOIpAR+wcOWcpEhLEaaVkATFSBZ/QJKIVUsrkQJmVJWezzrEdsVcGtroomnWEdWb7hcIUEhSSt0nnQh4kXSrFDsDtktuA0ventocD/VkyRWsZAWtjAlhxS2pE712JO8vQ/kQ5VBILYKGA+9NZm0xNjdvxnmp3I9zP4cHDqHgQn6jY+AxNVaXd9TOrUpGOVBad5SUKSNqVqpW21MbZHqB07clUcHt2HCVpw2uvPbvZpr7MqGqRimUpq1DQlTYBoG6Pg2Hla7uzx9J052FvunXSmGwK0KTzs5vQ6joVJCHSZsEC4HbE9g4QmtYWFyuUgO1xoGTVp7aX0A7QBv7KuTOQt29LzhIf8NrTlLnEO/KgCA8bRgxwJXHNHRaL1AYHBLnejqTA3nmYndO0BfzofWy8MhaBSlVznawj3Aq5n/56fVDeZXm6b0eojwM5Wy2GYzy2lr2vwLAj/29j/me4PtyX87fxdJp3+/Xv/TKvr+Z/BOT5Lw==);lineShape=1;strokeColor=default;" vertex="1" parent="1">
          <mxGeometry x="597.73942361787" y="141.731785141454" width="23.452234472678583" height="3.693534547437366" as="geometry" />
        </mxCell>
        <mxCell id="2fRyMZQDYy7qSL2sGxyz-57" value="" style="shape=stencil(rVvJjh03DPyauQqSqPXsJP9hwON4EMdjjJ3t70NloO5WsbvaA+TmheynhUuxSD3Iu2+f3n99fIj+2/eX598e/3r68P3Tg/z0EOPTl0+PL0/f9U8P8vODvPv4/PL468vzH18+vP796/shOf70+/Of4wt/v+plV/xQiv6f139orpT//uGXV/HPT18W8dAX8RBciNfyybW2yidXPZOvaZXvLicmX+oiP1ZYqfz6fQkucvm4yhdX+hvkU3DC1x9W+ew6PR+U766FN8hnuVv/ag65usTXv8oX7+Qt3y9yYz9wXyXffL+u+y3VRX4+8P3uvDD5vH6/elcakwd/qZHas7haVnndEbFPcQnWU13ITD7IKq/+RfYbpzVu4SHQ+BBdXe2/iRP6fVn9t+V5g1fy6321OiPGlfx6nk3vl8uv6+neJXKe5vs9ukDPJ4G8uE7tP6z327NrJD4UJ+v590LPv7ueUb6T89fwHWEDGiDID4Q2f/+gwHYcw1zAptCoy48cE1EhM4XqfDEKzOg2mzkuiexBk4oPZtNkSaJ+Y04pk7gi6UQhEsPTvNU6KnhiSdJnYD6YRmWhLkzLPCgUZtt6cRUVmLGmimhCvaGTJWWP4UsVKlmSZkeIX6ogJP7m4jzsIU2XOldoiFhUgWWEEmYCOygEYq2aURPctNAcoikVHUgmbDhX0HswUYw5kCbVbn4hEWvVLBm8USCmoWkST2lLjecKZebJg4IQW9LEWqtRIBenmTUmo0A8rimUMEtiPt3ixLpHBXJKmowx3PM9aDYuggrspls9OVYGONuGXw/m7cmmezDmnehNjzNJqNBIEFCXx+jNQaeGrWTCTGN7qNPUjkGAmIYqAG5WnEFPqSKQbI0m9m58Wu8+3Cxp3YPabye2pArg0+qDiR8r+HQNNAONi1v9QSMVCzO7qR3KEXoPgvhQ653A9hDnmRwKKgagVQErMDU+klBUQUBhA/lXCn4NxlnhCttDQFtKjaZdVYCokQqtUlUhr7ak2KCwTQdTB4eJby4VoPBvtHDoW52zKWSXb5a07kFBHQvGqtDWU1KcKeyUzMUp3GdkSt8WsCmkGQsvjW+NrVqwMJCo/gA+HdUfmGls/rURPG3ezJUClAOh8oomzQUcKCcajDX0rscahO9BEd56rEFzEo9LWCVOIHslXyFSusZMz8gXSoKpPGDQxC014R1oVOMpGli8SEkJTU1eUJ6hEsHSJNIQWYsxaxpdFK5C/JKJCK4gOuxX6H6zYW0UojDSz9yXUFJrhDbzfSYvWNRz+WiQ7Y18mdfzY/tVc0z4fVqfR6wLOamiMSpBfqKAUEMUJnGaMEOZnNEuz4C/Biiw5+3Cz+XDDAcHf6ckjwkPjL2oeFucEipY2xVKdRSE74WixoIJpkwwcu5aruLXWWQ23Y9C2eg8K/X9nhhZmQ35TvO7KcMTjbJlxshdnDHRBde+pb2rW8UUwQ6yzgLp8HUqjohy3tt5wMf8kCkD0pB0z7TOaDMY7eKsBaOLWYONlink6xVRHifF6jzmXZyBl2oqHorMCya27ZovxCO6diO+mjEMF2oEGemOQsHpifMxUKTiFcRZIytjCt9qyYuT8ZhBWFgyBIG6x/8nHjwajdCjCRGPUqhNhjyLgEP+5vlPcD0MUI8SAPEBw68xoNVHyurqf2fEr4zU3aukXd6T9Vt8w4tRi58CrQcsPguTOf9B/BdoELH4citNL/ErFHE0fA98jOthnGDZepK7PE0+BemDQJu4Wj+APfuJA65ITUiGfgbGy0I9gTytojMSXZ4CtL4hrMP5cKquY/1DCVDNiEDH8P02mydoPakpdPWXxvFrRcw4Ih7fMPyAQmbKTZrEGIT2EAc3CS6T+R4KksqBA4G9U3UgPiiDa6wodM7gJlMWe05xJew3qCGxRDC4/zVwqSVRMlOw8ht4n/8C3MMg0Rg3IdiguKPpBDd9RwQK4sk7qlEV1iUlng8GC72aRkrclgQTVCp3S0rwC42HDEEHGr1XrtAAcEWKRQdXD4COj3r1hJses0zcvOsa9nKfTN+VxyFY58BFgwAktlJpJdMrwtIaKBXSTeqvvDzpHXN585xs7GbE56ZRZDp8oxXFTKObCZBITyl4jwm9b/MRl5uAJmLhbZk2a/FNoU02/urmsGPXaJ+/b1HlR38hYdYdMyM37H5DBTYM1b3ZdKHEVDPGNCY6GJNbzOhBpqGvZTOglenFKdYDp9699lzBNtUz34Nt22fOr9nBgDwB17mCHT3INGedDDdk2qY8GZ/gwbXGk8E0xnmPERCzaapQTRTItCtQshkyufkFwVg5jpUpKMw298BItNywUzQGlhgLUXC+cTgQ4zvFbFozO6NFAkLj0ZdnE77NjOLwprpWkzheV2k5rGgHp1Ia9QfpZqawUYJEqpllaxRWKsSDVqtmDBaMxQzWqgIbLB9z5w0V2NCV4lqMS52zDHU2KQ4KjJkfHNa66UNivSJi0IM6ZQ5CM4Gp8/FRg/o6H+DtWNN03l/OSM/2xntTJp1UOkDtzahcpjDXz/HhA5Jh3JNFPnwA2cp7yot6JDrHADUxU4/seOPzLh5dufFsayY6m1D0GXAaoHEuKWABWnk9GZA609zLujYB02DljZWI51N5uWomOKqnE00RM1Th4Ny03m8eWAj2Ym4ecAiOrNw8ELHy/AGKkb954GLl+Tyjkb95oCMI4m8eAFl5/sDIyN88YDLrH4mKpVZDlWcafwTT3njgRc8HqeZEuVrBGid4ypqZCcB2894JYG+7eT4GVFC7ee2Ezk4TdkJa9AZnIRlXaa5OOGRQKQOUkfOuN71CnO2k12QmqHhtbIiZxgdyJnrcxXmj3ryZfNOQwd0Tyxtx/cP+mvPj0+fPr49Bj/+Prz/1n15fjsrP/wI=);lineShape=1;strokeColor=default;" vertex="1" parent="1">
          <mxGeometry x="709.707689849316" y="110.02986111147482" width="109.6043184337268" height="116.63337580102836" as="geometry" />
        </mxCell>
        <mxCell id="2fRyMZQDYy7qSL2sGxyz-58" value="" style="shape=stencil(lZbLctswDEW/Rts7BPjEOo//yEycWlPXzjhOm/x9yKhqDcpC4h1N+pAEcHHFwd+8bB+eNwO7l9Px8HPzZ3w8bQd/OzCP++3mOJ7qaPB3g795Ohw3P46H1/3j9Pv5of2zjX4dfrcd3iaOnINzDWP3Pk0lgeTPmfuJ2I37M0IyigayIFoAIXgFlAIygEKIUQESUNI6UG/MpIECietAjEiigLM8XCQCI3RHZAitA94hJw0wiqwDTBANlIhgpIkShHUh0pzpNYB01CkhGzGQoOjKxQwfjBgygo4h1NIUI0sFrK8UPLyRpUigogE3b3FZGwE5XwPkjJT6KwVDGlXNQRZBGydIrQNdk1YRZN0QrXBsAk6f0KRhneAhOq1NfEbh6jLptFZ5i5Gl7BG1Wr9ooFTLpMX3ZY/+U/M3bcAH+C4I22g4IGrva1ZmAFSXw8IsLSBCNNDs+GrAsI0q787vad7hcsx9w0U2TWPxPanWWSxX6k3Js1mDhXVzdQxDqeTBWngUTFW0/XS3FThLRbHvfw9ntH8ofcXcfODlRuDe5+02qK2edBuwef+y+HomO6HLJwPxbFB/iTr4/+J4Gne76cFyvt6/UOrU9Lrxdx8=);lineShape=1;strokeColor=default;" vertex="1" parent="1">
          <mxGeometry x="773.3325233809087" y="146.33756614400113" width="2.876504377803485" height="4.019589858295944" as="geometry" />
        </mxCell>
        <mxCell id="2fRyMZQDYy7qSL2sGxyz-59" value="" style="shape=stencil(lVZdU+MwDPw1ed2xrdiWn4H7H8xQrpkrLVPKffz7UyaTA8WwV94cRWtLWmntQW5e9vfPuyGFl8v59GP3a3q47Ae5HVKajvvdebrYapC7QW4eT+fd9/Pp9fiwfD/fz57z6un0c97h94KrgjrOqBT+LJbWEBfLtwVwmI7vAKlA1QFiCAjhc0RUJI9oFaIEEJCbA2iDkhNGlOD8qyKUz/0Dms+5CKQy/+D3HytSIwlAq/OXiJH4F0jxJa0oQvaXbUAVkeRrAQVf0IhI8k0N1fsHmq8oomfYGEmErwzZxGNtSAjOAcVXyGqWSURZMHqKx4hGQuoB2ZL6T0jZc2BbENLmpH2R1HiPvKq+jVqmczPTthk0s5AT5r7YABTKGi+heeJaghK16Dpb02q5bnKKIhMWusnMCYX0RTf5UlBIhTplsQgbK1AnXWaJTCp0nax/J9CAevnl4vtV//4+CFBCmNp2dRM/kwrr+SCeYSqNLW4vD5OKRAbZZiRHH1Ba1e9jgGLcqHVCptdTfx+M6yBdi8iZ9lEfVKlUXfq0a6WC1xfWqKkkiZ65JuuZV7aG3ftMjr78FrkCYIu3p8/jdDgsL6f3/7dPJTMtzyy5+ws=);lineShape=1;strokeColor=default;" vertex="1" parent="1">
          <mxGeometry x="770.8333399697958" y="146.84416033186164" width="4.29433741946923" height="2.311679336276711" as="geometry" />
        </mxCell>
        <mxCell id="2fRyMZQDYy7qSL2sGxyz-60" value="" style="shape=stencil(lVbLbhsxDPyavQ4kinqd0/Q/AsSpF3XtwHHa5u/D7SKJKWQHzW0tcySRnBlqSjdP+7vH3STh6XI+/dz9me8v+yl9m0Tm4353ni/2NaXbKd08nM67H+fT8/F+/f14t0QuX79Ov5cd/q643iC6oCS8rCtS0Mu/le8r4DAfrwA1j4AmiIEAIjR7QENJ24CiiP6EbisEkBWheEBDyNsAFUj3gI5OACkg6AgoBBAtxegBFbFtAzricCNB7dvx9q9PuVnbdDveEgg+PkBYAhAfXxNUSNMgycUXy5fQKCqyT6AIbbJkJH9CbmisZxXqW5ArSiWs6MgynlAjyTmMJ5SIRpIuDX2oUkFj2tGRFtaGwAAZxRO1djSSg+0X/ZWMSJmp03jmq2RMVdKHpeqDOgsVmxak4YT+RpbPO23691WKIdAymXzEe9LigyTrKAi+TOZJSvSmI5daRyB9MCq10VVZGwKSL+rSeULur8aLicsnYIplJU2C4h2j0wRSQ6xebahkf7W54y9kFsiGQhr9IlBDNfsZLJ5TqAa0cX9l8X101EjnrMlwkI2+FfjzAWLl8PVs1IA/5tH7fYQyepl4vkCRj7QrEb63zDyeDJEvP0b+A2AfH2+fh/lwWJ9O1/+PbyVbWt9Z6fYV);lineShape=1;strokeColor=default;" vertex="1" parent="1">
          <mxGeometry x="740.9768715767091" y="149.83578865507832" width="3.1845612703909865" height="5.685311189533536" as="geometry" />
        </mxCell>
        <mxCell id="2fRyMZQDYy7qSL2sGxyz-61" value="" style="shape=stencil(lZbRchshDEW/Zl/vAAIJntP0PzITp96pa2ccp23+PnJ3aBd5o2ne2IUDkq4kmOjuZf/wvJtSeLmcT993v+bHy36iL1NK83G/O88XHU10P9Hd0+m8+3Y+vR4fl+/nh+vK6+jH6ed1h98LJ4wWrlQKb8ufSMjxz5+vC3CYjyugNTAPQCVQcIGSRqAiJAcoKDIALSHLx4Dul/IIMGL7GBAF6ghUiAMwQ8oYpRAQHK9LRjU2aeCcIzKhxhEQVAegfANk14mkPhqvA8QRIjHISK1xdZxO0g34C0Rk5wRKaDQAIojsRClaqYUgTm6UiDoqJxHs5DcT2AABzQGkIAd7gpCTrgW1Wh+aI1zT6WqjlIsDVFS2OogT1lU2r6R2jxCkUeoWETxAp026FgTHJjW5jrmhbgVHatWJjUnN9brUPr0Cmpd9AorWJM5OfgvKjdPNiRKF3nxXvc8rCK1RGQuiCtiJ0qcBzYxRhqjSO/Vwk0l6oRSvyyCN61vvCdv1aSPK/T7azuwEHmuH3K6q5pPp9L1rbq9vPYn7elXQsYcqiMx67x7RlONg93fCU3jDfi+cuVftKj6OWlpkiU38i1eUGWyquJf19vrPvkf+A9DBv+fP03w4LK+n9bx9Lumv5alF9+8=);lineShape=1;strokeColor=default;" vertex="1" parent="1">
          <mxGeometry x="740.9159362686264" y="166.90844011315573" width="2.818345691242939" height="7.128637004236452" as="geometry" />
        </mxCell>
        <mxCell id="2fRyMZQDYy7qSL2sGxyz-62" value="" style="shape=stencil(lZbdUuMwDIWfJrcay7It+xrY92CGss1saZlS9uftV5lMSq20B7hzXX+RLOlIHuTubfv4uhlieDsdD782f8an03aQ+yHGcb/dHMeTrQZ5GOTu+XDc/Dwe3vdP8+/Xx+nktHo5/J6+8HfmSqaSJiqGf/MOM9V558cM7Mb9BaCJRDpAMrV4G2iNuLdQIymwYEB1gJIEACiF2AGNSRkAgZr2QKYMAPNYnIVKAgBlaq0H7FbgDoUp5BWQbwM5UMnepQTCmiyvq0ujKMmqNCysrQAgUmGfuKwAEOLQA7Kk8jqgPkpaSYFLKa2ATBGFVUj6KGmkCiwUs9DrQT8VUIveQmyg+BLVvpbsEwxcapFanwdViiAPVjnc36EyxXob4BAouMxZMQFi0ktvwkSITDRZNH8GrPOAuJoDyVlQKGqrhLySXMKpLn0iLuJwq5pa9SYCrlfvUyEF9WqKENdoBDZL01x03dVcAon4NqC+9Yl1MnA+EPeK4wznw6r0OFICeebla+cILQav58zXXSEG6uSw1Mz5ulRAhrl4+eNZFZMfPWYQ9VRrJuzOoxJNwY/nsCj1+nn1c4fh2MlpGZQf8UG6z420v29eNq6LUpYRcy5PKsD/bz94vgDY4uN99TzudvPz7PJ//x6zrfktJw//AQ==);lineShape=1;strokeColor=default;" vertex="1" parent="1">
          <mxGeometry x="749.8545948474466" y="182.8491243325302" width="3.481211318260648" height="8.346838011786986" as="geometry" />
        </mxCell>
        <mxCell id="2fRyMZQDYy7qSL2sGxyz-63" value="" style="shape=stencil(rVZdb9swDPw1fj1IpCRKz133Pwo0XYxlSZFmX/9+9Fx3oVWzCLA3ReFJ5N2R1sB3L/uH591A4eVyPn3d/RwfL/uBPw1E43G/O48XXQ18P/Dd0+m8+3I+fT8+zr+fH6bIafXt9GM64deMiwLOE4rC79cdSPq78XmOP4zHq/ga0aKJDwjBiRdIMPGEQtvxjVCrzSeAnAtaWSekFTSngtbAYgBcUHgbEMNbiQsiEyQ6V9SFwwVQKrIHyBAygEpLlu8DIsjKNhHn6ZZRLU2aZHWqloa2uqG5RUsCr27I4LoNKA2p2KIL2JG65LXUwkhOSiUhWB1yRfBS6gBJzXRTSlSQHeH6oiOjtFtoTW4DTbrZC7R/nPN7Y0TED5xnzxfEcou1deQUrz+75uGI7GjwTn8mWUjbHAG2hsJgh6RpyNgbRI3ksaTdaIdMbQvPW3Py1QVv3SNuSv0gvuLhPyH6j4OKQ47Y6uVoy1bmanZ4AvF6jIkzldRM3ciITjcQms1HxJ0YEcFSVNTdTnz/ZciuzL1TE6IzkLp8WI3luKKrV3eyc37HpypYnfhOLwE5bdD7QTec3r/1NfJxvC7+PX2exsNhfjld/79+KunW/Mzi+z8=);lineShape=1;strokeColor=default;" vertex="1" parent="1">
          <mxGeometry x="765.8104625975016" y="181.75843570334519" width="6.854910769535763" height="2.4831285933096297" as="geometry" />
        </mxCell>
        <mxCell id="2fRyMZQDYy7qSL2sGxyz-64" value="" style="shape=stencil(jVbRbtswDPwavxKSKJHSc9f9R4Gmi7EsKdJsa/9+9Ax1ph0f9ubIvOhI3tEc+OHt+PR6GFJ4u10v3w+/x+fbceAvQ0rj+Xi4jjd7Gvhx4IeXy/Xw7Xr5eX6ef78+TZHT04/Lr+kf3mdcbBTDhErhYz5JmUL7e/J1BpzG8wJQhCR7AFXdjxeLZxcfKIT9eBWqnlCknPbjq3S6PV6o1f34xlQ8nygUIwBUYg9ISjXvA2L4zLAjcqAGENMV4gDFmiA4ieqTLlRBElal6G/QTK3gNvgbaqACANZnjR6QYKNNSJo8pdZJ3gVk7Yw/AYkYSCNHYk9JEiVQJVYqHpAbFDfLmpKdCLqhkagXE3e938+hUPaUYiJF/jRpeH9mUqA9YUprf2bw/8qUZR0PSlR5rTzjAxJum6ZNCTMAaLfKoqQKZNFat8qiaQVNgEbJN81koWjGlF7ChfAiyKHWtdtM2gl4wcwYt+ZBN4T+egnA5hFPyQrNQBicqfikp0IDSjZGV2VdTM77iE3WxqkCTnEzJ21yCvqarCd3VcrAPdyluagqUnek4KWnAQ6YzZdEIuQTSP08KhF+DTfmz0wB1Mda5uvJBW4L5t2ViqzEAoR9fx8BGfzHAmMP/9afl/F0mren5fv1umRH86rFj38A);lineShape=1;strokeColor=default;" vertex="1" parent="1">
          <mxGeometry x="734.8502864199554" y="148.23067901688307" width="3.7833755856472635" height="2.913145600058442" as="geometry" />
        </mxCell>
        <mxCell id="2fRyMZQDYy7qSL2sGxyz-65" value="" style="shape=stencil(lVfLctswDPwaXTEkwec5Tf8jM3FqT1074zh9/H2haugaoLVObrKMFQEssAAnfnjbPr1upuDezqfj982v3fN5O/GXKYTdYbs57c7yNPHjxA8vx9Pm2+n4fnhefr8+zZbz04/jz/kLvxeco5JmUHB/lhelUvX/3nxd7Pe7w5U9EzdlnxP5sm5fKDllnxIx+L4PlLVDsVGNAFApsgbk7uNNQIg2hOipAgA7SlEBOFNBOcpUdQwcYAyRqQUFCJmcWwckT8krgG8UQQypUtNZ8gx5y5JETVyGSSrBxhwpgAikzLJOqhAPvl8jeZ0iTwWktDby2h/XM3DTvlVywdgjBsQ+Z2OfA7BvFAzFFIH/Ym++nygkaG8IrlQAv95d4rskVBhAGZI+1B753FtvDZBMzTUqGQKc5kySFEAQQkI0AKaCWChUgwXAsii9iq9caqguMuWiAQ67lClUnaXSW2MN4AxAYkBpHQHCPUrr4BJW1DFm7uLxwaT63tyrrGm1u+P/UBauB7Rad9H4g/R9LOzYm/uDnSNTEfTyrd70xFgtrLwnKL+jvMgchWU66peHQYwCOVcFZs3pGCStdyT4c4B5JpTBJdD989AxgADlQqZaGRSsofWIeyVfKxioVZnLxaQ1Qx6SLAa6eZhht6VAzgBan+23t5dodzzZwCoImktX9ctsi71YbgNEHzTTc1TgBCmEpk+QvHm0dsp+pIOWhSYApv2wCBdRQXBCsgfUBO3Z7i+iggk4FPo6dLFvsBkkvGbt4Z5tJ+eVSq0AONsDEGfOSpj0dwBTR7Zy831pBFDXzhZdi3C5cHZqNg+LdNDsWmFCnVUvKYgG4zVaVPmO/1ETVh1VUECfvQnet5eH/9fOl91+v9xar/+311R5tVxx+fEv);lineShape=1;strokeColor=default;" vertex="1" parent="1">
          <mxGeometry x="747.0680966485211" y="136.05725382669232" width="47.84380009901588" height="7.8742472093338165" as="geometry" />
        </mxCell>
        <mxCell id="2fRyMZQDYy7qSL2sGxyz-66" value="" style="shape=stencil(lZbLctswDEW/Rts7BPjEOo//yEycWlPXzjhOm/x9yKhqDcpC4h1N+pAEcHHFwd+8bB+eNwO7l9Px8HPzZ3w8bQd/OzCP++3mOJ7qaPB3g795Ohw3P46H1/3j9Pv5of2zjX4dfrcd3iaOnINzDWP3Pk0lgeTPmfuJ2I37M0IyigayIFoAIXgFlAIygEKIUQESUNI6UG/MpIECietAjEiigLM8XCQCI3RHZAitA94hJw0wiqwDTBANlIhgpIkShHUh0pzpNYB01CkhGzGQoOjKxQwfjBgygo4h1NIUI0sFrK8UPLyRpUigogE3b3FZGwE5XwPkjJT6KwVDGlXNQRZBGydIrQNdk1YRZN0QrXBsAk6f0KRhneAhOq1NfEbh6jLptFZ5i5Gl7BG1Wr9ooFTLpMX3ZY/+U/M3bcAH+C4I22g4IGrva1ZmAFSXw8IsLSBCNNDs+GrAsI0q787vad7hcsx9w0U2TWPxPanWWSxX6k3Js1mDhXVzdQxDqeTBWngUTFW0/XS3FThLRbHvfw9ntH8ofcXcfODlRuDe5+02qK2edBuwef+y+HomO6HLJwPxbFB/iTr4/+J4Gne76cFyvt6/UOrU9Lrxdx8=);lineShape=1;strokeColor=default;" vertex="1" parent="1">
          <mxGeometry x="742.3325233809087" y="188.33756614400113" width="2.876504377803485" height="4.019589858296058" as="geometry" />
        </mxCell>
        <mxCell id="2fRyMZQDYy7qSL2sGxyz-67" value="" style="shape=stencil(lVfLctswDPwaXzHgmzyn6X9kJk7tqWtnHKePvy9UDR0DlLbOTZawJsDFLsFNeHjbPb1uN57fLufT9+2v/fNltwlfNt7vj7vteX+Rp0143ISHl9N5++18ej8+z79fn6bI6enH6ef0D79nXKBUJpDnP/OL6Mm7f2++zvGH/fEmvhE3He+o+vV4l8hnC2hxHeAdFTdkVACgUjYpBWKQUkjEeQCAFSJTiTalDFaImVywAK7rgBSoaRqCp8gAIEUnBfCZIkgpJ4p6BdnoBIouQpwu2l25XwTURFkX7XANLVPRKTH5AOIL5Wrjwaa2SklXIKyBzmvNtmqBbSHxRce7QA5oxzETs86IIUKWaKaEQiFDQNYrhAhZEwBruYVGCQFqJ+lGPR4BJGOjnkgV90UcVmiICOk8YxlMFQEiNa0e8YSaICDplMQIIyIuUtCmJM3nUfNF26zinMgyphq0Gq4+uLpJeoHQXW2VBatOGC8023hGLFerNtdZXG1UnX/qW7yqBK//n6lh6ZimcIUKOtoW5Bxxo4pjmL5zfdFVS9J9Fwo15JHieTql6fREbVRsW4g6E0rps4Cauz10QGZKICU5ecwuFU8BAHLuA8JVCq7rdfn0FB6Mdio+n6V19LbKNiDjHieAiXsgn3HGmLgH+hmnGOG+AB7GOUkAyIfHSUxSQkyPs54AoA/bYfJGUstF22n147xbLmGooPaZY7mCgeZMAVkAObOlHpoS24OqFjhtc/9609ioTwdDKrG78n3xuVAEDA/5iJQLENpQb4rQ5If9jK3PAvfxFVP3v/v6YZr8Qb2fvR39P14ePq5iL/vDYb7J3X63Vzd5NV/7wuNf);lineShape=1;strokeColor=default;" vertex="1" parent="1">
          <mxGeometry x="767.7917086617449" y="178.99215125227465" width="33.84270832165839" height="4.241875201800212" as="geometry" />
        </mxCell>
        <mxCell id="2fRyMZQDYy7qSL2sGxyz-68" value="" style="shape=stencil(lVjLctswDPwaXzF8gzin6X9kJk7tqRtnHPf194WqoSyC1ra5yTbWBLDAAtQuPrwfnt72u+Der5fz1/3P4/P1sIufdiEcXw/7y/GqT7v4uIsPL+fL/svl/P31ef789jRZTk/fzj+mf/g14zwlnkDB/Z6/KEIl/f3m82x/Or6u7DOlYO0DsPeO/ACoFQAyxdoB2FHmbUBwVF1/QiWOAFAo+h4QWxbuAqJvDjRADuQLABTKfQyxks/bgOSIpQOEROwBIFnevMYAgk5MteeBKQfAsyPps5pgjnKiXPqQyQuwr1TF2EcQsFIkYvwJ4P9vZbxwRg4wwFp2ztgX4E9VxkxdkwP5r9mWhFYh6BtxFExVUwD+S6UcO3tHzkF7YWMfAb8i7eelQsmDeNWebT49yKfaS59PdRDJhFviW3VARBnSE/qK8EwMungKoQeoWjLiTFoLrroYaZ0CnDmhUMUslz5obeOEXFLdYXtCBn0jmpNqY0iokNQBsVlyKGimGCwPsFSZQu+SD01sNk/oXaq4d5hKz5uKGXbI9I5vYrBFghlpS3Nv2Rut1lpHnEkL7+YPpExsFSVMgE7sXts1YShesVrtPVUsLmIYLq1INj3qM6QpSjhFuU+RzhvBajE2DhRsXTrMCYxZ+DBgGAkxwBk+zhwFILUYh5oCkESOUzNGWNrjWFZARXM/WZmPiQpeLMwgiZkExKCbi+l+Xd+QzGdP3rjEcLdIKj/RAuB2lyn0G6ouiBm4lLwt7yRtK76/oaqm9i1dAhW0A4c2vhcNYLhwhmEHrgKD1g42xEmGpTHeFKbxCGIY7yLTVoNKw152VlvH/RPsVn6T2g370SF0sXB2OOsoQguGs7N5SikgzdlBIhFuectcWnEs2L7vnFpaiv/TPsCSGPxhgbeKIV4ucEsd8skRSvbAF3u4ow71oHdfhyr6g7f3f9vrw+1VwcvxdJrfNKx/t68W9Kv5tUR8/AM=);lineShape=1;strokeColor=default;" vertex="1" parent="1">
          <mxGeometry x="722.0880372126867" y="171.81129624351502" width="61.858696768091704" height="6.131881729338943" as="geometry" />
        </mxCell>
        <mxCell id="2fRyMZQDYy7qSL2sGxyz-69" value="" style="shape=stencil(lVbLbhsxDPyavRKSqBfPafofAWLXi7p24DhN8vfhdqG1xbWnyE1eDymSw6E48MPr7ullMwT3ej4df2/ex+fzbuAfQwjjYbc5jWc9Dfw48MP2eNr8Oh3fDs/z75enCTmd/hz/Th4+ZrtAuUxGwX3OH2qimv59+Tnj9+PhGs/E0hnkSlLuG8RMmTuDWCnwfQP1x7EzCBpSvW8ggUKfg28ebuOZcn+BIwYpSyJfDd45gM9UvPUPEpZKTmz8yL+Qz32BqHqIr6FngArw792S38IxFUSArJqIKk649gX1rjXJbYPSAl4MPIlACkJfIh+ogC6VaDlTA0EkMIWVAewijdjbHDyqqmu6agZCKUB87HMulFBAK3yiiPHSy4YpopL6FctUEGds21qbArV1pGzxDsk+W8YceYQva/+C4qltcF5kGVA9xfqPMP6bsnRYlrUnrLYK350rZg7pjYhh9dePdm3phCj+rkGJ9rXhTAxCSipC09QCR4uKypnZ5SkA4Vc7KCbeQVVLE8mCl/b83H7+yAdDAn5udHIle4GAOaGqZYtnwMHSxVcJR5Cwt6NXheQBZY6SiSdRBvmqansV6OBAG8tKNbovoHq6tp0seAfntGsPy9JAWh+A9y27BV/Igbny7Q3tv3g9XNbB7bjfz9vk9f92fdRP8+rJj18=);lineShape=1;strokeColor=default;" vertex="1" parent="1">
          <mxGeometry x="732.0434726306621" y="214.46844375504247" width="16.80245572473268" height="12.486369333169478" as="geometry" />
        </mxCell>
        <mxCell id="2fRyMZQDYy7qSL2sGxyz-70" value="" style="shape=stencil(rVfLbhsxDPyavRJ6UtI5Tf8jQJzaqGsHjtPH35fbrbYm1zt2gN7WMkcSyRmSGuLD2/bpdTME93Y+Hb9ufuyez9shfhpC2B22m9PuLF9DfBziw8vxtPlyOr4fnqffr0+j5fj17fh93OHnhAsU4wgK7te0UGQl/Fn5PNnvd4cLe78ERPJuHRA8tQWAyzogeuKsAbJFBYBGrSgAFwpxHZCYMitArlR4HZADVa8AskUBV5L9WDsdIzngNCeqTgGCo+zXARITr6/kHTFIXCmUqvaBHAhSTRR0kDyFtm7fChXtsiMHeNEqpWzs/+b9un3rNJsjRAwCJPas7TMxur+wSAe0UQb38W72bw5Q7DRZO6Fqj33FIWo2ZZKDgmPakgYkyCIBmCQHJp9glnOygARo15iqAWRYYAQQNI8k0Q2Is2UqTYdVMge0JoBs8iArQAojQPvgRQsoSrmXk7mEkUc3Ep81lWIX05q9dfmWNpO2F+4ie6FFMPYBlDuxr/Y+FeW4We2nXpFXlaM5UXvA7tam9C3kQbNdyjMxSnGzFX4s2DfqlxFCxAWpUjYFT2iFtVlMueBeQP4PQHpC1p1WEoHEXKoVc3TQB5k+DPMiUwQVjBfSSbl3xusA16U49wWGRTVLnzRidn3l+nghatNXqoE8oEZynZtz65FeCE6QEclMC1IRPMjDcggTdqFuuxzzhL8BnWDtLzR4/QQqxR7A0D4k60ECeXaL/WXqAw44m7QmeYf2Rs7NwwlvUZFq6UXtTvvUi/h996kSMZDhhb+jVuH+Jp4ldxLely8Z+9tH+CCloHyEcDceLrft5ePfK+llt99Pj6zL/+2rSpamF1l8/A0=);lineShape=1;strokeColor=default;" vertex="1" parent="1">
          <mxGeometry x="757.0621807377379" y="200.11985218983864" width="40.2616477405486" height="6.824849758673281" as="geometry" />
        </mxCell>
        <mxCell id="2fRyMZQDYy7qSL2sGxyz-71" value="" style="shape=stencil(7VrLchw3DPyavbL4Jnh2nP9wleVIFUVyyXIS/72b2eJ42TPba51y8W0tTw8JEGg0wDmld1/uP3y+O0X/5fXl+c+7fx4+vt6f0m+nGB+e7u9eHl7x65Ten9K7T88vd3+8PH99+nj+9+cP48nx66/nv8cb/j3jqutlgKL/dv5DcDn894ffz48/PjxdPB68S3F5vriSxPPJ+bS+H29oAlBcCCuguN4FoDrLCyBGF5UJ5mzdUjSXxZaid7UvgJRdFEZjA351aurOhA0xubB6NZfp52NAdr6tx4BNVgnodQWUefLHgOJsBVTvTLgVkVRtBVSXsgA0Do0WXfIasJ5DM1eVl5oLfgFYdk2vENctWXdF2YDIWYOvF+fVCt3lyABT54ANEACOVtHaZ35tgOayCj6b+bUBzEW1JXNpB+j6HOp6Dh1uUCtUzjgATK1QGBC81weRZ75cLNFN5mhtDGjqIKJrxgBFfYM2IvtVphy4ujIgKDcF5hnEhszROPNlS4gbXJm4npjX8V14S4MFNM8E4pnsijpp0NAKKCYrygCsJajkeZTXAH4FZJMlCEbHNZZy1AmRmGeSTauu1axCNSu5pgq1zQq1VcUigw8A4ntEV1OFuvNJBxC6Cr7g/LpCiLdOOlK0SiKDS/zq1SLTJyN91mPDC0TRRRS0NT+DKyJ5EGZ9NViX3Ir9kJJxWZxxLRyndYbV8fOVoy4EScMAkLQaR6wsqGwxXGTKhJ1eHTVbRN0ArFGXoqvK6MKJgFTLyug8y+uWzMkVERY17eiiORNxUVGZ1nPIVbJwq64EBijRYIlFNLakGAy6yNaDu0F5Pc8+4UKxBuElVCYjFk4uiWwe1ZVWaBJwIRG2fNi6j59GaGX/Q1Rs5S3L4BiANcAbeFOvUIj0kmSBoe5WVjKdQhCcJNS7l3qvx51UylOJH0eTTRMvRK7S3RY5OGCVF/UQGUHKvm/16zjn7GAFVUDRHpXdCkWEX4ncSvdNWB+Xk8JN3wAIL6G+1cIARfigxrSzIQreSKhA1P+0WfOOAd5FMrpq2d13NtRbHRZxH4Kvq24dGUzdSZJ0DBuI8BHwqpeGl3hLUQsTyG4yOkgVnTK3xl2LsVR2PVyUCZQq08zIcgVorKLhVpXTADSKJU2VB4AiS/vBlnRZPDC6yXHXgVttarRrB0cjiq7VxgiNXc+nusqD4Guuvy28mySBgwS6MfnZp2iRFeiABLJUGwc0k+TI7oDIdEeW9uwdpkr7WTIOcn7wZsCoD29iDVQgakNvrIAalwMDVE6jimZjgFIzEDuNgs9LqWuFyy7EhJrxQbkSVZoWfdgATa+wyShWAKCQhMuzG78GIC8NxS+MBiCuK6AVVCvA6EqdLgSREliJpyxoTqMgYwistG4Jcl3ZABOJZgbgRtu0W6EJqoT8p5xGwHvdf9NMEE1NFluCE2mFHGd0XdsSJRBqkqKZYvOYLttXtSXjLaFBTgrQdi14nHr/GsBW5kOTL73UZgZvgDQnndfc2imn5aUUOkkeOsrWMu+GlF3OWXBGFBchuKoAkWdjsFiOHI07Jvi0qQmizbC5GNcFXXM58sDEWrSS0RA3qp8Z9YqGDpqUxkRyP0PQK6SViYuW9jgHGpyUfkt408SrZtnqwku2HlyLkpRS4HOwIPMTAL+7k4pihV9XTGfAryumQwCPcv7vK6bQZ3Bett9iBQBILY1LWvVJQWc9Nq6B1WCwM7k2PfsBIK5JDRZQBWLctpCAa3JCBgAdHBSfytHQWNujqqrJTKh80iXIpA5lx/daU4bM4Z29/rQjcZ+IEiTPYV+z/BSNx0J6huZWRZGCYoE2u53LMq303u4CKM7PKo7Jnrsfk4+j0aACKmPCs6bP8nJmN+tOskn3HKFRTm/8fNnmGlmkPM96giyCgSvU9g3PMWuxaPbyS5TEnvHyHhDaL/Dj4u2ZJ89eMm7h1g7dpHh73XvGVAf/tu/Dbj6OHz8+Rfv08Ph4/pLt8v/50zX86fzZW3r/HQ==);lineShape=1;strokeColor=default;" vertex="1" parent="1">
          <mxGeometry x="713.8481943615425" y="269.8449900417065" width="30.594775299847697" height="38.01455870742848" as="geometry" />
        </mxCell>
        <mxCell id="2fRyMZQDYy7qSL2sGxyz-72" value="" style="shape=stencil(7VnLctswDPwaXzEE3zyn6X9kJk7jaRpnnPT194XqSjGX1jrtoafcHAUQCXB3AVCbcPV8f/O03Xj3/HLYf95+392+3G/Ch433u8f77WH3Yr824XoTru72h+2nw/7r4+3x76ebyXL69WX/bXrDj6OfetEweXn38/jES9TfDz4e7R92j729d519Ec/ttXT29iQm4qDiwaFKjusOTVrtA0g0Antb//5gW/TM3rfevkgpbD9/djvbR5WSScBFXL9AjOJIAJZxiCBaBMQhRPH9loJtMqw7RCcVHLJ4kqNY5vedJJXFkLy01J+aZbUShzajZnEI4kkMOc85OcFRIjEUj1nSSJFayoybxcFRpFYvoT+4TJFUw5z0V3vP7CNCNUltxD5JUrCn+89SPdgnkqBaUVvs/YyZDfNj+ydH3JzECvlRgqGmEtA+E2Y2w3Afb6GQM/uQwb7y98deS+t8IGv2AOkmypRRZ8C/2hfCgBak9hwzbYpsgYAB+zjL/VoEINZBeci2wiBdgW0pSu5XMG1i5aBliUAaQylBdavImmy8I7BT58RBzQz84Kym9USoSrWrFSyaxiVlQXipvYMlrjFuZnF9Xi0Pjaljwip1koc1xfbDEomgyYoI8H9iLBG8ZJUYCKQUHOYQgUFc4s0hJzyIymMACk0nxxwC4tVklhXzZAfr0cGzLA2MmIScOVRxER0YSadiruhQWDE3pR+yFMjBZRUH+DbwsRV0DvHEobIVnBRwUI5WI3VfDQ2trKmytOaGDoUQKBXszSe9ZVta6vGpA+vC4lCBbEtEBQzedQyaU7QNFGVyPFG0h4YdXGNZGquiowOAxQDSN4GPxRAGhzqDZS2tIDMTgfjBtYwOlKJFUkAHT3oTA18bYmDwNj7ooHzK5P6vHdrAuCiBOFjRDOBgeeMNLoxi1n8ksoIhJ4xZulB3weFCA+Sx57begU0lbRAya09Y12c7br16p6XWr44BvcxEPrvZXNJghG40aHNwME7yLNmklPoVpkaUjT7D/KkLQ9ZWcODg6DDwPuy9D3v/e9iDSstpn7AMqs1aDNAOq5pRJpCIS5w3vJBS5wblvMAXbHjszByJ2Zo2vMtzvJ9POPaERK/O4tKXnkhXJbCbrs7G2zxyDqZso5qyyuw9Tum2ycpuVNNwwcihZGIKI/TSbpy1d5jUaNwgGxrG4VDoBONQuaackZQqKqNJC2vwFG87tc5cPX8Cw0Uhv9L28w35267MPY7B/Ebe/tsjVKmODuhRenkRUCXcDNfz8MfB7gIfsXd3FJgZxxV+oVCQWdy8YkvAN6MDjHmsOigDT6Uu4+TbTsrsocviQPiHLz8X7O3H62emu93Dw/Er1en/8bOUPTp+0grXvwA=);lineShape=1;strokeColor=default;" vertex="1" parent="1">
          <mxGeometry x="750.4045159718548" y="283.91823348539515" width="22.135795396795857" height="44.90480872085027" as="geometry" />
        </mxCell>
        <mxCell id="2fRyMZQDYy7qSL2sGxyz-73" value="" style="shape=stencil(lVbLUsMwDPyaXDWWbPlxhvIfzNDSDKVl2vL6e2QySSq3EcPNcbKxV7sru/N3p+3j27ojdzofDy/rz/7pvO38fUfU77frY3+WUedXnb/bHI7r5+Phff80PL891i/r6PXwUf/wNeByASwVRe57mPERAv3OPAyAXb+/AJQIFBQgyIw3AAVSVgBOkJIJCKwAsUAOBoCBNIeMgMYKWTZAClAccF4GpASsSZcEriwDIkPWK6Bz4Nwygn1bJqmDM4QIBLEBBCBeBngPsSlTBDRYk5RJs04M0agrMYSklfOQ0VwBnfYGQrY4ULtCQHCGN+pr1P4mYEsHHL02AuomjRVmihOAgQ3ScxEvVkiGmapMTUbFLFbkJiNMVaLR8UuRc9qubAt34eZJajaVq4HRdq2higZAIqnLVGNrsK6hjzoQDN6QurYVrVxtPcaW+CoQc3O77b4r5YrdLKX5el2luUEvAsp/ABTBaW9kEc4gjbGtUnaAltJA2hlJQmvI4Ns+Jolyxv/FF5oASyc0CFw5VXqC2ZTAaRt5NPlGiDo7hKbt0I/lmM4GGk+L2xuiNp1iIoOA7Lfo5NhN9fok+fOoYmy+T0oAGcwXjk2/2w33lcv37QVFpobLjV/9AA==);lineShape=1;strokeColor=default;" vertex="1" parent="1">
          <mxGeometry x="780.5512635264281" y="270.54952018479617" width="3.2230755116520413" height="3.224848179439732" as="geometry" />
        </mxCell>
        <mxCell id="2fRyMZQDYy7qSL2sGxyz-74" value="" style="shape=stencil(lVfZbhsxDPwavxIUdfI5Tf8jQJzGaBoHTtLj78utoc2KsqfI23qXY4rDa7SLN6+Pdy/7nfDr2+n4ff/rcP/2uItfdiKH58f96fBmT7t4u4s3D8fT/tvp+P58f/79crdYLk8/jj+Xf/h9xolS4wUl/Of8JlLO/158Pds/HZ639pk4DfZBKDQAYKptAEigHK8DQqUWxxMF6CFkSg5gQRUASFTHGFKlgAElD4AcSTGg1QFQmAKg1WJYvm0BmUqFgDIGXZmSQlrTGHRtxCAP0vyRWqIAPCShMma6KTFgKTfKY+2pkKTrgGaZdh7sLwBL9tklzt5IuA7QQJomAPCg1g/BAyqIQSvl5FnKoLxVScrIElNBmWYmdrxaWKD6zEUZy1UjCQI0imPUmnoTXgaUXgkrIFMEQdgBgjtS6UxfTrWSigcIOFIrVMrkAQGiHxuaYdAtUMoTSyDoxn64Gg0RBF11ikGIBXqIzoPNZ5Dptv7fplwLCjpRnhsC1HezhigeIKghmNrc1AwAydO6jA3Uo8XvrLY24bV+qOppFVTe6heEtWgGiTOATrOyIUCbPCQ4jS1o7yFTwLQG9YCGaP0soNSp47Tn/vJGib7jNsPwIiK2foLVha1FJIDmlsuQV5M7PG7qpUcBoHXW1+IrFMAQ4D6qN4sdNdy0HRblAFbc+nUrTUDWmHTSPoz2VS/8jbhCVSF9rK/qzSoX8GM14RSuwtVji2k8f+SuIi4PYd/7i+QF5wmhK4q1SE3ggoBnNSlw78yCOEBJEkrn48M+YIVeRnsjCIyioD5ghupi6Rhx9owKQvxCwD0vk5xnyL8Ur3a4a+nL9tPYso0FCs46vhXHf0ITxUbQWNF2BQP8yySNpF+xrtl/7k74X3t7+LiAPhyens731+13f2G1V+fLbrz9Cw==);lineShape=1;strokeColor=default;" vertex="1" parent="1">
          <mxGeometry x="778.9279737090242" y="266.9577296774719" width="13.754238772116878" height="34.8322913148063" as="geometry" />
        </mxCell>
        <mxCell id="2fRyMZQDYy7qSL2sGxyz-75" value="" style="shape=stencil(lVfLchtBCPyavVLDMM+z4/yHqyxHqiiSS1YS++/DZjOKQdp2+bbahWGA7gZNcveyfXjeTDG8nE/H75vfu8fzdpIvU4y7w3Zz2p31aZL7Se6ejqfNt9Px5+Fx+f38MFvOTz+Ov+YTXhe/QEVmpxjelhetUeW/b74u9vvdwdiHYOxLpQDsC0k09qmOE27ac6XExkGEcl53iI2CjRCFIoggnbgbB07U4rqD3rhZhw5TyIVStTlTAvYlUyo2Awpt3b5His3YB3ifnqgmZ98TsC/j86UFVEF9eqNi89WWgI71Po67NEBGxW5jIlyhjvuAyVoI14KYKRaYQ7QRJMCmaZHE4TRR7LALLgcplAU4MGX2Dg3goimwnUMmATk0paJrNFMHVWqZsuNapQj60JJvdWTI5tnB5sAaE2BjvpItax9sXc3Z2mdiAG4t6j8sXy402LTWtWTtAzy/iyeb4g7ZF4r2/EgFMaERW3EpQ21WmePy1Y4B1N0iZ/2InE6PVGAEk7PaCKowDZOzW8XWIcIoQhrnvaNOR2yOJI46GhOL9uccSqFqJUwqVKTMQ04uY0cHBRCYJH7uzLMZYE+LmGxZc4J90L66yVDUAfRBseZkuFYokjo5ir1SbVDodda7daFFYjR8lKCWEK0QAwnjqyqphnQUQRls+6CigDSArybDrAoArawa5ESywQjNQ0k5WxBYx2C6SEDAO4lO4+QDIAkQPxZ6xcgjcStbhuRhz86Zr3AN/uza/JG9Pvzf0Z92+/2y4r//7nd6fbX8H5D7Pw==);lineShape=1;strokeColor=default;" vertex="1" parent="1">
          <mxGeometry x="775.6784511753935" y="272.5820006404017" width="18.4622852246207" height="7.68733551105538" as="geometry" />
        </mxCell>
        <mxCell id="2fRyMZQDYy7qSL2sGxyz-76" value="" style="shape=stencil(lVjLbhsxDPwaXwm9KZ3T9D8CxGmMpnHgOH38fWdraLviesfIzfZqLJEccka7i3fvzw9v+11w7+fT8fv+1+Hx/LyLX3YhHF6f96fDGZ928X4X756Op/230/Hj9fHy/e1hWjl9+nH8Of3D7wsuS/ITKLg/lx/UiWv/fvl6Wf9yeF2s90lqHQClSczbgBAk5xGQxZVtQPQS4wDIle4Qm/gxhuyk1W1AypLbAEhREtkB/1fHHaKTQrI0HaAMAF8lkKCnA4xH8qgMy1KS6O0OXkkdiuhYuKA9b1uFKyboJpoINZqlRvbiGZdw4jRSo0ghQXuVOnJJkaVAj2QqXZFoR9KaRcega5IUSeFKD3EBiCStWaWEERAkkbSWKm7MkoJL5Eiq4sYG0iBK6tBcfzzXwUshDdRwYh0B+AvSQA05SRbA6N1WaQWgMgCoEW0MjVS6tT7nZkDsUW0B7A6ZcgmAZkalSuaAbHZofXheB1TJZnpjeJJ+QJYsl9DlhHwtSxgrrVEiqwMeNwtgLdq8bVEcqbIsuS4fi6AzKVytdhgjrYxLABhRROEqydIEMDtkOirrSrJAPmVpdRLdCAjieVqtTkOT2BCIdvJNLcqGwEpFASiMrdq5uWjRxI5URYMN+kZPF+M1kigZld6BTCavhbNv1sAZUKXyINrKYSmbM9rZvGgI5h0+DZgEZ6QrVLEyRQl2GoOPgYkcGmw8EthSCV0ho0aCpvlMABBqN/J7UcvrfgYaVO0WTLRgdY1SI9NMFrVzbV4fxJEsrUTxRhli95xznRP1ubFPucVUYnKSug+Z/Vum1NbujGYb7ag2eCjy2J4wpWwDeOA8nggOsJAMBW8vG7icMFPceqPMHpfbQ7Vy6OjFISVLa85RmMM0cjRRjw7VMI7hRoLWAJSA6QgmrhmQ6DzmPnFZMzqCJHjCigxajzvk0O8FW7MirKQtkSyhalZHKnUME7PNzC50ZoOobeQFZiwzYghh5ClanxU6df+xWO/oqDDXSZwnk1ERbEqr79fF6wHbPqiOjkZnaaetD7+N9X7khM5Xv431hqU6k2RjfTA+mBsF103BwtUGNrn6PXYhyY7EG7r7W3haR0e1veK57ruvN9knX/PcXo8P/98pPR1eXi6vpJbP7Tso/HR5fxXv/wI=);lineShape=1;strokeColor=default;" vertex="1" parent="1">
          <mxGeometry x="791.7769722324838" y="281.62585662999754" width="20.97827806183568" height="18.76507058003449" as="geometry" />
        </mxCell>
        <mxCell id="2fRyMZQDYy7qSL2sGxyz-77" value="" style="shape=stencil(7VnLbhw5EPuauQqSSs9zHv9hIE48iGMHjpPs/v2yMat2iz1NI0Buyc2P5khVxWKxek725tvdzdfbU/Tfnp8eP9/+PH94vjvZ21OM54e726fzM3462buTvfn4+HT76enx+8OHy+9fb5Ynl5++PP5YPuGfCy5k19qCiv7fy19ScuXyl/cXwP35YQuoLvgJYNmlIADRhT6fYK7XY0B3fb5RxifY8fPNWZyfxyfE4+crP1+Ka+n4+TI+bTxfkYIin5/jbcVFLxJk4/gV0J1XJeiudAYUcSNcKdQZ0FzJxwCLrtkMAE8UABegGIILIoaUGVCTC6IKOYykr2XLzhQgDx6vvABA1AG0SfMJaIUsYiiBT0ArxC4AkXtnIbtoBQCsMEBxCYA6pxXtkUXhirkYGeA1oNKV6jjzOiCNMm0ARfQnANRwywlCYUAEKtwSgwb0zICkCld2MXQXVAxlhLgBNMWl4urcouZ10AAQ+YLLikuFOw5droQbWaqzCEC4pfDlceO147zLKkt1lGkj3apw1XiWABBF0BX/nmPIRbJ10bldDKoO3Q/mbLMkWrSjp+crGQgv0toD1yGmIc/XYyguzdQIRaa1RVfmEzC0q0rrOtFWgB9RXQeACNRAACi2ol1IKoOccaVx4WJ0WVwJ5KMpCkDTIpAzA6oS4+xy4Bi6OiHxQEGWmpbKMKcV3sAUwAbVVkCVTmA5YQ4ajrErIUuc1pC0tuZRphVgkktLHWapBFvlQKmsSwAkNbIa2x8AmpLKzuRDDEUEvfRD5iyptALQdz2dRT/U4DzF0FwUlcYJdR5ZQY8sADyxNUgxRpbIwqGBpF/CGK8MUMpXdl59AShqZPbey5U0vbvtgtYNFNsurdpgcaVROEW+NAzblhoqS2hIaiA9gX4ZAPI1kko91wvLErgllBXLhZHIDBt7NBHDzAuTKx9GbpqnTxsHXn9+53yQINWdvY1Rs+WdiCD4NSMbg2jKmGAlm+9kdbinozvx/gMqqiyVMcJXQJeOshvbaKxkqnla537O+gTYt0JbokknAyaRk1k0RFmfygsTVEp2W3d1LvWig0r1bFBnc6WgdNVz4WBy1fQBwOags5erMQA0clPUtuH3bLpK9X7PpqtU7++m+38d/oRNd25RSGVSJ4BLJJVVOkrIltHLqCYnUIaNJl3SaU2N2YrdV20n6GAyiK25ILKENZW2ROi5WmdA5jBPoF6lbYAz4sXVayMAm81HdO2jeQ/F8yroyHMaQ0+9jIaOzv3W/TCMB8/TVMdAqqLddm8bYLXU/bEF0PDR7w4iEztX+cLRWF/AQ2m4eWG1Lo1Sc51cT5CvibGo8cqQxyug64Ayxsx2SRcnoASRFNJk77+sIBuFzCKnANAGYEX2/nJjGs9l1PEIUKlsVZpJANjqNX2C5w0A3tC/ktbAgKKYvSZxA+jCAISdQsL1eMFVAHzkE1TzhMrDM626f0Q+rkOTs3BhK71trHKbfHlbs6HGKwDaiFOWDvrXv0F8HYAfXr6w/Hi+v79837n9P3/BiT9dvhy1d/8B);lineShape=1;strokeColor=default;" vertex="1" parent="1">
          <mxGeometry x="717.6844369760756" y="331.07791240061465" width="38.65716757996324" height="26.220750808323373" as="geometry" />
        </mxCell>
        <mxCell id="2fRyMZQDYy7qSL2sGxyz-78" value="" style="shape=stencil(7VrZbhw3EPyafSV4H8+O8x8GLEdCFMmQ5Rx/nyIWHA+LOzVQgCBAoDdptmuGzb6qm7yED9/uP329u3j77fXl+de7Px4+v95fwk8X7x+e7u9eHl7x1yV8vIQPX55f7n55ef7+9Pn6/9dPXbL/9dvz7/0Nf15xPphYO8rbv65PcjL++uTnK+Dx4WkGuDIDrCn2GOCqqXkCJDzxApBMajOgGZ8FwJuUeElZ6NBMc7N8MDYdyxfT6P15PLkpn02cNS5+bNpN+WScn+WrCeFYPpo0v79G48X7ownzhtZmgrAAPCBM8i2YJkzcTPT8/ti0wQorkKMAZGNni5Viqna6PJuswEuVW1sTIvtEUABnMnnp5re3AZ6tFsuwy1Gk1dkMoWoA7DbrAMskETjdUWfDQaskHAmRQJ7t4hmgzHZAKIvI6fKzZ0An4ald3s4a6C2C/Gw1Nx4cyTeW9yIyfTV+lrdjA47kcyX5oPazcaqwxjkpny3JWxE3AT/z+q0ITMiTU1tpL8g31jeJ/QxuJMIf8k3sD+QT20tlIsiX+f3eWBH1XT6TfFb+g/2ngHFnDkrVsmd7ZeFk2uwR0WsXxftml0B5lT6HPDTbrISRjg8BVG9gFpVLIytdk4nCTbGtZV5SzcYpO3sTqeKE8c3bgDwq6qY0TKlqsuUl9V0SoRPTiMQd8woiV8Q6QmtHpLz4QsKS5qqZvDRccqbO2bqXKEVc/IjeDRBMVswC7HGpaU7YAV9gQJIVpAPmIhh0AAEQZjuEILlFV7ox4EQHKiJwx5NdIlIOgFc6xOFqG8DJPAlADgtAKZ3GAnZLkr6UOFN2HUSIpsysE4AiIg6A7NgOJ1+ohQFNGa5wiMKXVGOBbW0EqDIv9XiYLX0ecbRL2GjprUvFArGVruG4OwJ1lt1LZNqJzKe4dvZMbAFQ/RQWYCkZe8m10T/RLuUmLY3y4ZcWTxG3BiI5J+PsRuK5Daijh90BVAABUO3yBdWFNeaeAKgqCgCRTwCq2FYAiGvAlEm1YdYuRW7z+MNPLICqDNE4k+Voogawb0Td3dbF1EnrUDmoc5KUDM5E3SoAVoQcAK6xDmoI05D6IgNUUAPASwqSqXcAfcFrw+XFv73MlV1pGts4SckASEvISTvUQf73MaoB7HxOTpLgfMRO+pJ0PNCoBICi0kZjLo1tPfkCsRMAVDbugMU1pB3A1hfnUwO9tjUke/dW3lqXrJFkX/xmQEVZXqqiKnJoFxwNAaMkrsXyKKMUSe/70HLOS/im6jjAf2gO2HsaxUPdUqir1CEu44mSZDygp2GA1U1Q4QECtqGoNquyHZJOxgDQyCrmM6XrQvrUUOy9p9n6gfee5l/paZQvvbmnKcuS6iATh2mGBt1Rt1lpnEZsgCp5KHyJQjTpA4rkFs5n5QkIFsC8tUg2EwO7RsmSrYc2ft5NpOSoMrLSdTvkOJq10uy0nYzh8ljADpD1ZDDQGG47WrsNwALmmEbjpahDH5/TZFBzPgDoWAatosp8faA/LylV6a1+OW2MTgZQP36bAV4nY9iBnM9Zeb536xREjk/fT0H+96cg8/v/21OQvh4aWsmxAeTpjkHT71/236VBgI4cgsgINFAdCTyUYjjoAoKQIXKOhK9aemxJXSaBqqb1WwN0jpPl4GM9x8knh7eeh2LIpYpru8aTkmr1RYClI6n17KoHRU47aSX5hLvpqxXL3ZPdCOv2JnGo9XGRWNCSWtrWxh3JE01oJ/KeSnKQkyFr6nKzQh7uLTcxrOxSwzLlCfJOQubGPOkwQGmkWtb7AKEAUgMNeZJmCPBqGoX19koHGgOCPvTN3LkglFX31QsyjcLsKIlH+YtvbcXR2x8CaGaTBnc7XBJll/zGqxsAyCUVbmrByYNaUh73zHaAopaUlwk6tFJfSMtoeKNKh0k7M6Bq8shj1TLIzBGAR8NFTnrXa0awg+rkAaAcCddQdOSf3DE8A+CPH1cavzw8Pl5vRO5/5yuQeHS9Phk+/g0=);lineShape=1;strokeColor=default;" vertex="1" parent="1">
          <mxGeometry x="760.979073224787" y="309.8145115212915" width="50.41992185924801" height="40.252460225499135" as="geometry" />
        </mxCell>
        <mxCell id="2fRyMZQDYy7qSL2sGxyz-79" value="" style="shape=stencil(lVjZctswDPwav2JIghee0/Q/MhOn8TSNM056/X2hemgLkLWavDkMVsKxWIDa8d3788PbfpfC+8fp+H3/+/D48bzjL7uUDq/P+9PhQ3/t+H7Hd0/H0/7b6fjz9fH899vDZDn9+nH8NT3hzxkXM0WeUCn8PZ8Equ3/wdez/cvhdW7fqVn7TCWv2yemkI19J+F1ew7UrX2sFGUdkAPFYgCpUAMeZXUgGgDXkYObgFIpuZD1JK0DahgpGYCSqUYASMTNAPQRFQRdM7F1SU86iKE2Ku4NjTKoc4vUbZaqUAVBt+pj0EdkBBCSYAFMDLLUI9VuAWVU5jYgUa0WUEkqALBvhtapgzoogB27w4hqDVAsW9XJjoJmqtalrpVGb7gQ4QKo1EClexvtcgF0Kn0dIHGwfwAkUAMuSR5ZvwASCaCGNOqWS1IogjfEEChYMgnWGVE2O4BQAtzQ56XiAQUB6nB5BkCVEyVT9QApABCIbSFmeVirNcfFK4BYKpsc/RTQADmUzk5opjShJo2+haZCAHIoIFgZkI0mjSPtMwCqnPZczh6QUNCFevKAgN7Qh7xfAA2XOlKrCwAonPacf4O6hBqijTE7Dxp30LLlCuK3+ME7FQ7JgPhdQE8iylJfVFrglNMe7eIBDQWdfctdo1orHFvZ2OxRTfvCJ0ECXkaMc6FBTa1jbgFAs32avAvtY9zUYSFlMOjPAnR78PwuxEAFdPT7HsXrRtPtwbHvojy3d6zuV6aOZ1BV2bBB66hGZNIlz7k0TfsNgNXKjXVjWiNtlqaFZgNgXdKVCc32CWC51BoUJgU0W2ld+xiIqwKCA/AY9rcBcYy02eqKJnXpxFZndDlGI0j3f7FB6/pdgZKVxa6rUaHFMsu4ts2uEEjJcvNsLRneObJORctWvQYhEdBrletpPUErVlqMIL3KobRGXV3dAlQhNcRnVQZVbleBgs2pUhEULQweX6/SHejFYmXFW3QY8nY1L6AxI8XqzBn4nsaCczVPwBn2iQwbiUzNm6OWH/NuZo6Gxw1ngALF4AdsgLoeo2dZgF8kYhpln6UeRBt51P1qn9HzP/vJZtNef1y/Dz0dXl7On5fm//ffk/To/C2K7/8B);lineShape=1;strokeColor=default;" vertex="1" parent="1">
          <mxGeometry x="730.1557261905323" y="401.1510390397375" width="11.92803930882883" height="109.06367006648065" as="geometry" />
        </mxCell>
        <mxCell id="2fRyMZQDYy7qSL2sGxyz-80" value="" style="shape=stencil(lVfLchtBCPwaXakZmBdnx/kPV1mOVFEslyzn8fdho6wksLZdvq1WsANNNzAruXvdPLysV5xej4f99/Wv7eNxs5IvK+bt82Z92B7taSX3K7l72h/W3w77t+fH0++Xh8lyevqx/zl94ffJLydSnrw4/Tm9GZT6vxdfT/a77fO1faNUnL29aWnZgTP17By4kShwGJSbcxALKS87SKHqTygKcyiJWJ1DHVQHcKgxh1ZJ0QlKw6PaMzVZdqid2J/QB0TJAigepVGJedmhM4k/QRNJAQ4SUeqVBnJoNIaHVeczbzqMFB2sMgXAOgpx8lyqM1luOliKLN6BFJTB7LV6dlMHoCpT8hgl6iABFao12GdAPLX0on0CYtNGvQR7RviY1qK9onx15tgFnw/sR9AyrpeSBkZQRfkq1aBkGoBxlm/38TdSQGntVDz+nTqul3q+DWL0/UISuy+j7/NMr0s8A9nn2CX6TNgl/teID+Sb0dHjU+ZOuWjv6yUkWL/Nx8+UUTzWZT0+mRL6vsRpZj0R9YdCLQd7NJpMj0EvpnekF6NXCvYN61dzyLdifYXvG6FAvjmd+82lwP8rvnhAmAFwjH3aXmKBjaEFIZoj40qGLXpYSwyz3moAQrK527zmbXRXENLgOJQmmYITbO4GkKY+DGRgy0Fou1eFvL1/NKohJpk3ktsbzojKNxwSoNK0dHmpWVoKspYWk+jnaX7b4cz9c+UY5jANi0A+hnLLOneTKzINAGs2rnmUJM1A365DnN+cYINPsR9lW/OAPlOc9xYhAzW8k3/GDcz+9WobcE9Oca/upAjO99NJQbl4Xuov5ogOQsNLoELd13lzu5gXMOpNYD2ag9h7bOzGDNTYKUtIVUCZpirGvQbN1U/fEj+0t4fLlfRpu9udbrTX/8crrL06XX/l/i8=);lineShape=1;strokeColor=default;" vertex="1" parent="1">
          <mxGeometry x="728.8690542452596" y="489.59137180234484" width="19.625467653263968" height="23.58966604326497" as="geometry" />
        </mxCell>
        <mxCell id="2fRyMZQDYy7qSL2sGxyz-84" value="" style="shape=stencil(lVbLUsMwDPyaXDWWbPlxhvIfzNDSDKVl2vL6e2QySSq3EcPNcbKxV7sru/N3p+3j27ojdzofDy/rz/7pvO38fUfU77frY3+WUedXnb/bHI7r5+Phff80PL891i/r6PXwUf/wNeByASwVRe57mPERAv3OPAyAXb+/AJQIFBQgyIw3AAVSVgBOkJIJCKwAsUAOBoCBNIeMgMYKWTZAClAccF4GpASsSZcEriwDIkPWK6Bz4Nwygn1bJqmDM4QIBLEBBCBeBngPsSlTBDRYk5RJs04M0agrMYSklfOQ0VwBnfYGQrY4ULtCQHCGN+pr1P4mYEsHHL02AuomjRVmihOAgQ3ScxEvVkiGmapMTUbFLFbkJiNMVaLR8UuRc9qubAt34eZJajaVq4HRdq2higZAIqnLVGNrsK6hjzoQDN6QurYVrVxtPcaW+CoQc3O77b4r5YrdLKX5el2luUEvAsp/ABTBaW9kEc4gjbGtUnaAltJA2hlJQmvI4Ns+Jolyxv/FF5oASyc0CFw5VXqC2ZTAaRt5NPlGiDo7hKbt0I/lmM4GGk+L2xuiNp1iIoOA7Lfo5NhN9fok+fOoYmy+T0oAGcwXjk2/2w33lcv37QVFpobLjV/9AA==);lineShape=1;strokeColor=default;" vertex="1" parent="1">
          <mxGeometry x="753.5512635264281" y="428.54952018479617" width="3.2230755116520413" height="3.224848179439732" as="geometry" />
        </mxCell>
        <mxCell id="2fRyMZQDYy7qSL2sGxyz-85" value="" style="shape=stencil(rVjbbtswDP0avxKSKFHSc9f9R4GmS7AsKdJ0l78fPU+eRSfHKLC31OWxeDmkDj3ww9v+6XU3BPd2vZy/7n4cnq/7gT8NIRxO+93lcNVfAz8O/PByvuy+XM7vp+fp79en0XL89e38fXzDzwlXC6UyooL7NT1hKunPg8+T/fFwWtpnKr29D1QjBGTXAYKj6iBA+hNCIc7YpdyHECkzABTytQdUyh4CCneAmMmjoGvzuAESkwgE5B4gnjyKoVL1HSA7SigGBUgPSMTlPsA7R66vXHHkAULT5PogiuYBBcGUYgcYn4ATihAbgLSwbgI0xtJHrXnwACBCoQ96kYebiChUnD0ihvsAFvLZBpGBTyG1hpkBgRJwyQtJT/CSMZtsQ5TQSnk7BIqGS3oicMg18s/srrBDV8yTQAH0m2s1ndstkgfN4Kz/WpNSkf3fmTjbpzakblfM+q8TKYH3M2UzhPUJiFfIBWsfAOUKxdX7Hez9lo4FgIFDXt/nLaACBvlIEmyK0LXgk50VWjOHXEr2HuFMAbmUyPVTnjVv4C7UoMXQQjsfneBtX0YH66bjU6y9AF6LLdtoD94fbU5Hf0Bf6tjJq4ABr327L5YZBbybr7BFyRjPFVMxgXPLrzikpAPxcpuaS1aDeFObUsu2AQzKKwJpH6F8ujbWlo0PCKHijFcnoMmrfemTTVHCXcOmkVOL6h4gG4C0S/o/AcSOO1VfFbSBV5b1faPqK6NhVNr9OwNUU4ITlElWrglMK+sE7oNW8VVB62hnsVFrCc74mJromAE4hqTiq4+hOtj9Mqu/hR5E7ZOr1dkq+CrgUtGGFpslJFEVIKYOWAWPgL4fNnS2AvKKS0h7qdQy4mtjV1BA/tA2UthuIxv7jgLySr+gqaEAc/Fs7GwjoC/cxlaoAPnQ3qlZqkbCwMW2zIN09gjOjDECs6aSQ++PjclzABQ2Vp3e3mFWFKsJsbTQVizR2KM1p3o7hTfsdZOz/kOpk2z+cby6MxkBifN547MCrJcusyb/mA8f/pCyaa8//n21eTkcj9NHn+X/7VcefTR9IeLH3w==);lineShape=1;strokeColor=default;" vertex="1" parent="1">
          <mxGeometry x="740.736386460962" y="428.7842573308967" width="15.712170136861005" height="31.61052697636137" as="geometry" />
        </mxCell>
        <mxCell id="2fRyMZQDYy7qSL2sGxyz-86" value="" style="shape=stencil(lVjbclsxCPwavzKSkIR4Ttv/yEycxtM0zjjp7e/LqavYYJ9N+3bigCRgWVba8M3Lw+3zdlPSy+th/2X7Y3f3+rDhD5tSdk8P28Pu1b42/HHDN/f7w/bzYf/t6e749/PtYrl8fd1/X1b4efTLnZIsXiX9Ov7SKec/P3w62j/unrx9Sc4+N0oMHITYb1AKNeSgNLJ3UOK67mDrqd+BK3UQQ2nUfQysMGg7QK7OoVpUIAY7AKtzaJY3EAMLNe/QE0lZd6iJtHmHRrkDh0LDx9CVZACHStnvIDKXWHPovnCjETfgYHXozkH5vbS24R1sTwUOSslXesgEy/UjMWWPpZFxDBqPJEwtrTsYEP6i/6xwDcTQMxW/QxtUQKVtveLr0GwJtIOQeIeK02rI6T4GHlRBWqUQF+9QYNBiyPGFK0IJOcjsrzOaEYBW0ehgRCag0gYE8XVgKqBDhzWc759MCiIYdW4/7RO2l1nUkz0D4GmiHO0TsufY/7YAaE5tNCTYdwBTHZR6yE8D+Vel6vNvBQbnzynF5meYUNug+YAbbBsLICS0U0UB2KgNhDpH41oBuAd7RQVIVAPZwZYxAFUN6w8E6Epagj2aONYA2kN+MojXGmx4VqlzgTX7yELUUQOXmB9jJTAALd4UGALiYfQ49NNM8HV7jVIqTYBcr2+hPKI9YDhryJTjeZC94SHHeAEerF/yRT4RoeiE76leDRHEhRCsk2H+3R6t3+egfou34wMZoAMDVahXrCM5DKUBNZe1ZAozps4irmE0+x4zyVNBEaxpNEhZPPaWOemr1ox30axvVIODFR4cSfKkqTeeEJglEzjiC2d7CsjSIqH8kQbP3rsu0iSqaysl2sHuAy0Ms4THK9t092g1/DJoN5tG8UwV3ilO9PkWtUJpajtkT/CL5gH4vnSQCilvmcDewUqNLoNGWRLUcpkAXrtudr+DqeUM8J1NdvksNZ5X4usOplxDB9mcBYXLKc4pu7whpTMuhGafTHsdrREYjJUgX9zIGQdA4vvTlDKivQvd1eHcSfFyje9Dacr6E8sjssiTrE7mCXA8X/ApVXSrjpKF4WNIn9eqMwmLFELEcoFUbUBr0V7RW06JN0tjRYR8jkBgGkiB1/gwU6eEv27fYmkbPs//v129Y28fp4ey+93j4/Gd7fz/8WHNfjo+yvHH3w==);lineShape=1;strokeColor=default;" vertex="1" parent="1">
          <mxGeometry x="766.8017452674185" y="429.87258462385444" width="14.916933145231724" height="33.90980036489009" as="geometry" />
        </mxCell>
        <mxCell id="2fRyMZQDYy7qSL2sGxyz-87" value="" style="shape=stencil(5VjLctswDPwaXzEEn+A5Tf8jM3EaT9M44yR9/H2hulIEyF5Hp2amN1nmigS4uwC5SVfP9zdP200Mzy+H/dftj93ty/0mfdrEuHu83x52L/q0SdebdHW3P2y/HPavj7fH3083w8jh6dv++/CFn0dcZqphQMXw6/gmUml/Xnw+jn/YPc7Gl0hBzPhOJYPxlTib8SwUEwT0aBfUiAMANArVAFKhimZoVO0MORGjmIVqsYBOmQGgk9iklkwVzFA1q2wA+qaBoGuiZrehBeICAIXYZqlpGjoAVMo2BsnECNAo2yz1QCmeBzQeiTABCiUBAP1etwBdJF5SdzM0yFZNa3czCGVMDbEb1ztFRI04EmEGaICtufgYOAQKgBupj3+/GxEprlpUVFWnNWHHQD2vSSw3H8SFreNMxdEPk4NVQm7rMP3UGdlmSRoJAKRAYoMWhjMkoWYBbdL5aXJUSs43CtSc0s+JVN0wIf/OJHanS8AELxStM+U8loBzM3Qbg6ahAytTQHQVQjWCRFoo2xhipgaooarurigmqIeqS7K+oWTpIEvqfc7wFYBKSpOROTNABNQQLYKLGZCAOo9ZnwX9t2acBlTPVk1rAPugHpGtgHTjUElRgNiipcaDBKQeIW4G7Bp9YQJRqICdHiTvAOp8gK0SfKVWQAVLUsn7ne6wn9FKneqaJdWw2AcNGrlGHU1lnlbUYmVKjkv6CSRRFaSLQakBdlptq7h9yGMfeK7FclY50BtlSXylHgQEgm5l4RoXJJooVg9AJiCd+sIEkM0MFW2h6Yb0sOhnNK0CWodZazF3YxD1esSwKAsYWhwUxdTazmpQAlH06jWnVQ4pomd/htCaEdBO8LjiqVJXCmAGEa/qphpBgIWEJMKy2DSJtiwqvyKY4SM27HnRJn6Eht2deP+Xht0l9l837Fx9C/TWspwGaIdvVX3hCKtLYusbFw7JGnS2S7pwDOcydqrvPOjzlPV3XiWwdhfO+zJcklKjWboO1yGIfOz775ww+Xh069mVDvI+jcE3WW0s92epYQE8GcNpAHvD1zeoOw5jzzbFDL11URMT7ATCiVs7tGXeh5kE9Xu+L2F4guv+Ai7Axahoih8fEUG1OQ1uPDJHTV3pa8aLV0yAGk6JQvHxolN99YcSHm3mXDlwZGbYgq29wr08Xh/e7ovvdg8Px+vm+f/+fllfHe+m0/Vv);lineShape=1;strokeColor=default;" vertex="1" parent="1">
          <mxGeometry x="786.8693276895342" y="429.877127590953" width="5.35542315653538" height="33.07888925146926" as="geometry" />
        </mxCell>
        <mxCell id="2fRyMZQDYy7qSL2sGxyz-88" value="" style="shape=stencil(lVjZUhsxEPwav05pdOuZkP+gChNcIZgCcv19euNovRrZTeVtvau25ug5d+Hm7fHuZb/z7u399fh1//Nw//64C5923h+eH/evh3c87cLtLtw8HF/3X16P35/vT79f7paTy9O344/lH36dcE20LiDvfp9eqBMX/775fDr/dHjenFcvMY+AKE4JIEoNI6CKDwRQJcQB4KNEdx3gVdwoErQqiQCC5DYAQpaaCaBIGW+IQYK/Dgj47EZA62a4DMgSRyulIJH4ITRxo+NSEV+uAyBxKQMgq7RGbzBWwg2VKB1X5mx0CEQHAIxIsUpmN3jx1fqhEk/HaKkBrQq7oYgb/QBXJqZDkTjq4Ks4fkMybFVupSptNKsmCYRLyXdudkATT9idkrhRBbiNGDXDqCMx4HgSn8VJGzVOooSpxUubclImChTkh1EgLTRjlCRlBECkf+F0GVAmHoEWTIfaWbMyVSWRNFldt/kKKN1slwEqdYo2ZtaKUDEJwEklVqpZdLwhI3MzHZAxxhtKFk9uaGDqaNZFSAaoUsbwbEiTJNoaRDKAKIlVH7eSeUUkLlPrn1dAoWQCwJAJarEAxf/VkRv4CyWpu2Vbfs5CXgbEzuZzyPGghutmmQrTWi/IxPjanKhOZiKuA/1CnRxBEhkAfnJ1YTHXJJkbYDhmJWczE/gamOfUdkswdGLcCLYfA4CyL/UY3gJYCKE3ahYQmONqL08bpZVHUGjWrEpKIgCmJEIrKhIARqRMS8oi0hgQSxAyx9WJ3qjbH5h1CqDMlEbVzBbQmKdBDZ0AzA9qyyIANLu6iXyVlsXLAKJD9TZEa+ohda2O6uhplOJIksDyebwB7YQnfkBNs400zMp6gWgLBDpvKhLmE9PbRzpuoGNKo6cjLxBoyUwiQ2vN2tw8xXSIlK052W7DryPOZcCUyBQ6sDZU+7yzAgLNGqnZ3IqxjrQzUMHZPjqQ8IFA1fStSRJxW1qjazMKMBsB4EcNMGxEQr1Ue+LdTLrKZoFoMyuIwZTGsOENoFEmJZ3IvdL9GiCZ0bjSOTSB3GNmBbcqcTRUNK00IprN0uC+mWhyoY6Dm8xIA7I4Boi9c9mkgEx08FNmhRkKSQEYkcx4j4FDiVk19nXBZvhmDZxq38Ks5Es02U+7KLxh64DSc9xmUeTZRsOmJNiAdcUw4Bg8ynnkbGeF86yHniYN9TSBObvygYU9yZDO7pQwR0e2qpvmEtojaW8mzsfZ5tD3dmit5JQM0S4lKi2BqU9Q5+Msgqd1W6XxW3oePx+nk3Mv75vCQfz0vzvYj8/j4bzwfTg8PZ32xdvvdkGMV6flcrj9Aw==);lineShape=1;strokeColor=default;" vertex="1" parent="1">
          <mxGeometry x="787.6778261472618" y="427.68755162870684" width="26.760303868566098" height="36.15717113065489" as="geometry" />
        </mxCell>
        <mxCell id="2fRyMZQDYy7qSL2sGxyz-89" value="" style="shape=stencil(nVlJctswEHyNrijsyznLP1wVJVbFsV22s/0+zahACw2xGedmizMgZuvpGR7Cu+fbm8fjwdvnl6eHr8efp08vt4fw/uD96f72+HR6wV+H8OEQ3n1+eDp+eXr4fv/p/P/jzSK5/PXt4cdywq+znjW2LEre/j7/kJJp9e8vH8/yd6f7Ud6O8q6fsCHv8iAfo8lC3pnsBvlQjAvb8tHENsj7alralm8mxFHeSntd6sd1BReNz9sK3psQBoVmbBPy1eTRgiTPD3g8RsCbqhzkTBk96ky0Qr4aO97fmijukxCBRPJWnJ+tCY3kgwhYzv3xq73ObcsX2FvJnyqBSu6PX+OVRbxKM2mUR0Ikv61QvfGjwQ5HiBKokTMCWd6ECTWbNioExEDErFZTRx8tWSXe0OYyRlaIKDTXk35VSKaKtGiIKpXBGsjrCsE0QqLaseO6QmKFDKMVVBTGIuRWUleCW0dwKcV4daU1EbpCBf4pNLIT/tZksjICdxqNqM1Eka4N2TeGGqEpKl1rd8qqkGRFw0ZCAHg6iNwosT9eFaopCmMQOappFHUUINa629catRrGkuVX7GkAiFPiS6myDt6kxgpBpNPSOSI7tolYA4jKmH8IXRGhQzckaGq6+7jQC+Ai/ZzKcCTHGAkkuOpXkwnVyhsV7ucl9Qq5HujuwVXeSiBDMxgNBspUYXDgYsjOVBEzFCPhZJUY402kdogCl+eHmeCJ+6O7jf6JRfMjxvmgCZtn/0DeyfMpviCQir+Eni2rPLqp8Ofaii/kVVOY6AXko+IXvcQv5LPq5UyPYK8i5G26T5EtpzG6w/+yf3SgXeWb7oEmeJZXhLzy+WAiCtoLIztw2In7I5qR5YPwZ2K6H1cE28gf96b7hKm+tL2e77/jz6l+d+IF+TflA/DqTfkWGD938jlO9up6QYPzLK/qMV+rd0WHjJ3OV3hSmZXu4BXYW2H/KzxsTOcWvBX58x/ylM9FjxJ9/L/sL7K/5xHfloFT2luofxXJB1Ado73ov07cx6H9k0LSCp5np6zJKObJSGNElHTXZSaKGFLV7OQqNwHMnKrIQBRpFKqls9nrVR86CbggiorGAaepblqUQ0EIxhHZTRJYgLO0KmrozcKGtC4+Lt6gqAqmCOI2y5VEpHPm1QAUvIhDmdhQi5pNYPwjhr82lOtwlHghiFE+Kf7RmCDjl6IKbuqAeGdRCDMrOL3jm1YDmMPV0nGZcMdIw9FqSmmWuwJAQK5oKrcdJIuMQ+a1XVr3SFuBo+EvZplLKHlWABKLONRgLFFNFJB6g+PABSd7A7K10K5Pl2jJ0zLUyc1XAb0YFQCeUV3JMj8Cnqs35MKbryrrJ4epPch+jvZHA06ULooTKAFXxfkxMCFPsj8vdC6SvOILSAEqnSKbG9xhaX+tQ+xWvrsqpL4f3dpR0DbU71Q/g/ArCdqgkLSigM+SyDk0jTFHd76ZJEavnW8y0xJn55tP4uafsqT8qQ9MF/JVpETkgIGyebli4ZVG6VW9NeJP8kVQ8mnkWiikHIloBNmRd2+8j2OWsGOvnb6AaH9OX2R24mU74PxjPvzHN8Ydefzx+kHz8+nu7vw99PI5fwDFT+ePp+HDHw==);lineShape=1;strokeColor=default;" vertex="1" parent="1">
          <mxGeometry x="699.0536022519168" y="546.088943095295" width="32.850038039016" height="49.86298957420968" as="geometry" />
        </mxCell>
        <mxCell id="2fRyMZQDYy7qSL2sGxyz-90" value="" style="shape=stencil(7VrJcls3EPwaXlHAAIPl7Dj/4SrLESuK5JKV7e8zCI1HosHXr3zzQTeKmiaAWXsGOMUP3x4/fX04if/29vry+8Pf589vj6f4y0nk/Pz48Hp+s0+n+PEUP3x5eX347fXlz+fPl7+/fuqS/dMfL3/1X/jnglMXtIPE/3v5IgeX6v/f/HqRfzo/38gn18IsX50EJl/qJF+S00bl/SRfvavC5HOb5bPLZV9eXYqTfPOu6L58cS3N8nFo4K58EBcBkFxIBFBdXgHkBCIuBDxCJSo1QMuoo8JWiK7OTlHNKTwBJCezVkt2kWjVAHFeoQTXOEBmO5vfNeKnfYWKgMjPAHbIxeVMAOq8IiCwFdQpbMl8lR06O/EIoGrNri4rCNtScVoWAHFvsWhPy5aY81X0JQOUSAANXcPUSs/QXFkMR927uQaHri6RHBO987N75zZicA9QZ28tmzveBwQXIYAa9dYomLdrpK4Rk/OzlmrhZ6guQGZNQ9H3M/GipZ41WGkQdI2iIwbvAyx5g2tUaulknrNUNyFaSnX45gCo5UK2pTa8fwBSdp7VT/PWOXvHMtLzHqDO3np1xz0AJDIJLhNfMgBk72CHZluqWEQLLXEmL3CE8QP35bNLs7wVVWbmjPuxYsIOnJ0GkD/YD5AM7xrjMHmUpqs8NUDBlOdp8Jt8wd9nhafrH3/fc3mIApNnHKxhqvAjO+16aMDzMn22wQ2u8oXsR/2oYVf7Bi4fM8grj+EKJJj7Q8O8FXSkvt2InDdkEXYQ82EGWFZRvkKYqYU5bTg4w5xVVEbN2lOqn7ekVvjJChpwhSyUddoG/ELxWG+hcWGd1oywM2TMvVaWC/EMbaPibTXQyDdxPTuiX/qXQFbIaVDGDcAPbVQFWGcLdAWj7j4gIDOA6SQjoJD6YVQlewRUYmmjKnEBCFnBWiiIOCMvgQEUvdU2yTihAcA1uqUJ22kZk4YBmFpbQbUagKm1LZ2knYHl4dYw7xmAhagBvvfiN2rNJICC3yrNhtDRcuwusTSrygzRsPh3b2Er1NHw30SQJ/TFDAFs3gCJGcLKQUQAi1FzprauQALCAJDv7dCNGMICQgUBrNG7Ti1u7MDyvQE8BIRyO1hLBAGxRe0eoIJaI+0X2tJwG8CzFYxIgh2EMg1zDcwzMgZYe84X17TBQw7tEGllNwBO0BI3XEO2aoZjTVIHLK5BfWnhe5VPSn4cIIPwbwVChzverygV50lmSiG+dNX6DYBNrMpyhg4gWurN77JCZQAry4IA5hq5jKSyAfIIqfuAtVArZYnZL1oSWtm1jMS4WbrR3lPTUnetPjCA4MTKTCmc3UO3d0D6UsGZeNnIwR4gQP8sfIiesQJlpWrtHfFcH66W2QOE2ZfMMowlJsVkbIpWdgZLxrMdEme6HTBvqfc0rAlaAEd9mQ7PuenL2GzSAEAdMq1Y74OM90HGzzzI6D36sh8mH5b7Bb5/wdF8iPROxTp0OLDw60gD6GzhPh1l938RKV6sR4A4ZxWLisgLDmbGRFseXep4FtqsdrNBhfKDS+9WqLmOl3KU6HQhkfRaWPAMVscZIDYc3hhTYGqNgszZAPR+bplY9XtSdi+0XIZVPpo37wfn61piKyjmC6MWLMH3O8ZZrWUbVNwHvN+Tfge835OugJ/tnlSWQXqRI0CeC1zhzz16EoC8JIN879phuSdtpDGUghyj8QZdFElM43YIFZnzzVjtPmIZD7VGU18ISGx7C07UVPHKsDXO3JZGsoyCcV9JS3ue6Bw93JlZMybssT/qz4ZImvTLnIc/S/KYVQ+ePfnlopo/q1rGqgfPtjwO5zKvhR4H7iYvdP8wu1DeMwd8w2TyrDMKGPfa6DW74I2zVjofFWywD+QXFnmwn+X1xcF5EzZ2B/pMODU/sJcuV2fcH370meCxvH24vkn8cn56ujxpvP0/vmG0ry7vH+PH/wA=);lineShape=1;strokeColor=default;" vertex="1" parent="1">
          <mxGeometry x="743.8477814575085" y="540.4067272945763" width="44.713196931102175" height="44.88124498715297" as="geometry" />
        </mxCell>
        <mxCell id="2fRyMZQDYy7qSL2sGxyz-91" value="" style="shape=stencil(rVbRbtswDPwavxKSaInic9f9R4Gmi7EsKdJsa/9+9Ax5ERPfMGBvinMnkccjpYEf3vZPr7shhbfL+fR193N6vuwH/jSkNB33u/N0sdXAjwM/vJzOuy/n0/fj8/L79WlGzqtvpx/zDu8LL5LqTErhY/kglST8/vJ5wR+m4zV+9IRcaMzbBI5UuSOwUuJtwliJa0dIQiluEwpTGDtCrDSWbYKwzyHGtsVdgt6oFCiDA9QOKA4fgKiaSaPDlwrwQqXfP1EGNVBtx69FI1aIr308lTRBvBc0kSCBlHJvilgogxqrVbQ3RVQSlEIh7U1hGiVU40yhzyExFRQSUwyeAJOOFNWHVGSbUE0l6QkB9lqtrayrSkIMkq5C4mRlHJJ4Z6xW2YrI1a1QxClLv7+pjDuTe4msk5FTmZLv5IA6J1OqDs9of6EYXTxIH/N16fEjMe7k0pvORgFogxiCb32bdSOogJ0guSfYsEDDq1J1pqvNVVsaZdc4sY2DrSJIPy3SWsb/QxChMfW2w9OiFN/8bE4HKuXUfLwWusATWCj0zsjWe8AaNkzUWYNhr0W7ZPqQbGgiM2nLcMVbziAF8beCrgPtvqg3Mz7ge9PeItkfIKA7ud0xVwkISCC1h8qKt/YG+98MeF0jvIsPTb4Vn4jBDRL8Q2e+IYA+N71fC2w0m219vtVuA4CPN/sHUuS4f31s/hVviz8v25fpcFgextf/+5ewfVpe0fz4Cw==);lineShape=1;strokeColor=default;" vertex="1" parent="1">
          <mxGeometry x="755.9227988375524" y="547.2888535102488" width="17.069177513043087" height="8.792859315677333" as="geometry" />
        </mxCell>
        <mxCell id="2fRyMZQDYy7qSL2sGxyz-92" value="" style="shape=stencil(lVfLctswDPwaXTHgmzin6X9kJk7tqWtnHKdt/j5QXdoiJG3rmx5YglgsCHAID2/bp9fN4PntfDp+3/zaPZ+3Q/gyeL87bDen3VmfhvA4hIeX42nz7XR8Pzxf3l+fRsvx6cfx57jC7wvOeWI3ojx//P1CIfz58PViv98dpvaZJHb2QhXYe12/dvbqIBYAqBS4A4REEXjQ3+w7QGISAIiu/W6AHMn5dcBtvQYokTKIISknPUk1QA85U+mzUAV6KJ5yT6soDQIAlWLqAZVKWgfUMkt0JlcBQCg4u6UCYhBHLlhABDGIkigWEMCW9LefsRQjAJQFDxl5UBLZssSAVpFZ4jIlsCXHTGxclFZTqy6iBWSgPg3CAio5xjSxBaCiVhZdtYCCPISm5v+Uq4qJgwVkcAqoXP0MEEAitCBqtbQKoFUBzltAxABzkqk2KqBVAXmmPhhDpWoAiQTlgVtFTgAJZdovACLyECndB8gLgIRr1KdZ0A4WUJzlIaCghaRYAKR11iBGaaCDSYhnAMHnzH2ArPLug56cPMsI3yaFCa81rwNStq19lBdIRJR2vE/6KCqIyOR7bZRrC1geHvTYyB1AZ4EEtuSjnZeSa/JaPr/1FOjVF3BbdEylT4ROTBWNJxT6EHSFAPLGrUHdJr4KIp61HwfHMbY5vjK8Ym5Gq2v0y+Q0gd3M4Wxom4LqAzATrdwY7j3ZisH1UsgXa44aFGUbqkMFb7sTN1msqayKsUft0jnKztgLWv/ee8U/7fXhdol52e33lzvQ9L+99Oiny4UpPH4C);lineShape=1;strokeColor=default;" vertex="1" parent="1">
          <mxGeometry x="777.154135063759" y="558.1514419653556" width="14.032293174689585" height="54.124165788976825" as="geometry" />
        </mxCell>
        <mxCell id="2fRyMZQDYy7qSL2sGxyz-93" value="" style="shape=stencil(7VvJbh03EPwaXQnuy9lx/sOA5ViIYxmyneXvU4zA0WP1m3pAECA+6CZLLJPN3qq7OXfpzdeP777c30X/9dvT46/3fzy8//bxLv10F+PD54/3Tw/f8NNdenuX3nx4fLr/5enx++f3z//+8m6unD/99vj7/B/+fMZ558sERf/X8y96cL3985ufn9d/evi8rx/b+tZcLXJ929dnF6pcn/b13o0h1/ttfcV55Plj3tdnl5Ja33d5a3A5nK9PLu7nKdVVcf7m4n7/BecR9xOiC4E3yAqQXKk7YLjaBSA7v+9Q07q0M0AgHVQ3NICVHFwSlwoZxr5DK24oGZLruwzduyzUMI9EfgCpFAAHIEB3TQg9LW+3pBGlpmFKdEsjyWuFLYVd0yO76gWgu15Zhi6cOQ6XPd+Ssm4ARmY9JOGeCX828cVHCShkS1UqDoBKO5TlIWeAQYAsQ1I6IsQFoKiYEdyIJkgKPaS4jPkAwDREFEuJXRQAFeYBaAYwFCC7WFmGqBSXXSsMqOqWigu7LUFxQQNYD2VJdQYotEN1SXjcBJDi2spH1wGI1Xs67IfurwPaihEHoLqi9NBXOj4Aw3VxpBw4AyEIVOEPOboe+Uhe+EOGXgkQ10VfB8CDiTQgLilAW+njQtMq8uXuYt8BN47UOZBVHEl4XB4uRAZEYa0AZNqhaT2M5cEXgCiELia2Ik+rIADAqAxQ1KEE5hoTIAJZiZyyAGjqSJHjEoT2aofEtgRA1oBi9KAiHwBttyVoWrkoAJ0AQ5rGBGQGdGEakxKSeWsXLZ2tFXEpCxmqd2HfoRfJo0GbPQGiZJUAFMpAbXHxMwBxvunTChCdN8aXNCDutwQqXZTQcd3JAYi3diCClXXKmoA9eqehFReXqR2Agyuf6mFXHGijlMGz0FHHVhhf2100QA8qzCDc73oIXuZp+ANRhyzpUinMr+Lyj9P1uxaC1BrWk22HVRycra/7+f0qiM7WU2rwkuLO+6m0PioF1MVnX9bL8FK5ivaSJkHBlJ79qknP1hPp8ZIZYv3g86j6sxi64CW9wPrM//9QOaczQwranjvXkiHo1N+5LQEPUF4/JdhPlL2suBEJqWsAI1RVEgCcNpusJRFXuqkwio6NwdSS6kj1KJcPwFjXcB3QmQoDUAQAGYnIdtMZBHmboi8K6CDiezfVKjK5IkjI25TUZkkibgn1RKKCIUrrHokr7nkkEY5GMf2hLv15mPgOzag2AwDRGF/TO9TAgCAUNxo3SiezFdY6jr7lBUAR1QERTdtNWSsAwwBUxT0GB4Gqy1sA2mCASv0ADMOdVfdmAhoDFBWeRyLAkFEDgETcGclHyWC6aACoFjEA3CrxkqhO0zBNcXmtjbuZTSf0YcLMrDDUDpVlmDWMstZrLiqFrkxUZx2mzNsUPbXJrA4Atd1mPax2aNy9qVU29qBpGwRumEYLZgcVZobRQ5Ut3HE0/y9vSQO486Hr4eDtTKYv/vofIYYpGWZfWXl1NV2urAN+5NZebzIH9c59AwBUVY8D5N2re5VO2s0EAbk7C6Fn0R9ZaNVSAj3hqj5LoashrgCoDDFHSaSHJPPoZH00cghSBvDKZEicaqbb3kcrcuSAaoaTFjxCkWnTz5y/0fUnGV8OixKdAWisOfm9rhAJgApCzWVfS+L/vyTm87+WxNv6wS2eqOOK39cP2bSdbbBdv0GPDRHpiPBAAjUxqJl3iF3HUjMQS0l22wEgPn+rWViY8NxqRxaexpYoUxQAVFfNlqqWgQcAdQ1OzgC2LawG9XMHM31SrgBAIjKSFmE/Mw1mL11mnBq4U40iXM5Vqpm7Nz1XyVfysoxfpnne9MObYgf1QRZiryO3BXgduVnADzdyO4LKRXdSFcTloLEXDqRqw+L5OQMKAlXqwYGYOuuxR64sNMKMF8aXM5M8lE2qqnqhsQegrJLjKmC+f6BXU1nW6ClzmBlBEo0UjdAIleo9UFh9i4v+pxpMvj5Rega8PlG6BvjhnigV8zSmyVERbqlTH+NIYmeAbPoYqnmTMqesSX/UkUx+QFyS/pD4mfJLR/TMHyKFma4fZ5oO60XX6zoireh+bKFLFFRURCuHzoqhccUxxxwKkNdT44torJqHITBhGkFGsuBNy6pLsjHM+7gsZR6saBirYqGd+dhsqqmuHk9A5tNmNU3jkeOcK6kmIDcNq34U3HgGWr3uq5j2cJS8JzPHmBRaUQZTXOn3/VhPuVN/P5BNUtDfJ5gQf+P7h8z3g+Sfpbw0lJh1lTwPh7ok6+HE94P1Mvhy3IK/qGdY0cibpT2bzxNurDfly43z2EpYy+u5TXjjPj0/LbqhL28ezml7+Bff29xYjx9ePu758PDp0/O3QZd/54+B8KvnD4nS278B);lineShape=1;strokeColor=default;" vertex="1" parent="1">
          <mxGeometry x="776.6754026016074" y="526.1898480923248" width="55.24895442279785" height="51.070411692406196" as="geometry" />
        </mxCell>
        <mxCell id="2fRyMZQDYy7qSL2sGxyz-94" value="" style="shape=stencil(rVbLbhsxDPyavRISKVHSOU3/I0Cc2qhrB47TNn8fbheylzI8RYHe9jGzyyFHJCd5eNs+vW4mDm/n0/H75tfu+byd5MvEvDtsN6fd2a4meZzk4eV42nw7Hd8Pz8v969OMnK9+HH/OX/i98AJxmUkcPpYHtZLwnydfF/x+d1jhhZI6fGHifB9fSdnhcyFJ9/GxUhFHSEJRQUBMwRMkEgNCKsSeYEnIICRNJNERYoQaGlP1hECxAXyikgZ8AAqaUm4DvoKatUqxesWUAsC3Lu9SA1KB+ObxluKK8b4C0QQXHFDwBKaCFJhib7uYqEWc0qHGSgn42mqm2RNKz/I9UwzGNkJAIYUxqzFTA7aojVIdRUfgUzvqeUhr7E68R4ie0KCEay/peCVG328UfVKFCjJ2uFGM8dzP4fXgJGTsNOo1nyLbaX+9+j7ydSFtQ/wVH8wQh/xUfDCHRqQkIJ4YwiigQQfZD7IfH+agilqXWc7PD/MosoSlKAwpsiSjGmfigVD6hPg/BK29G17aqVIFGjJT8zYVJQV1EMu6r5sNLQWireG2mzGL6mCtpHpCKXCGWMNlT2hCigZ5JPUaLNFoitgMUJ8lq72gFjx2LzMXGgrWvHzZzL0K8Nr1XacUPv65n5XVDyoYCdLDXeHRWbhM7ZXgCNqvbSmDYJtyIB5bg3z3nRcT4IlwMw0YWuK2ueD2+K+76d/xdnFdhF92+/2yR6/fj4uzPVqWbnn8BA==);lineShape=1;strokeColor=default;" vertex="1" parent="1">
          <mxGeometry x="797.9422498118893" y="532.33611338014" width="16.938693409226744" height="11.721187303370243" as="geometry" />
        </mxCell>
        <mxCell id="2fRyMZQDYy7qSL2sGxyz-95" value="" style="rounded=1;whiteSpace=wrap;html=1;absoluteArcSize=1;arcSize=14;strokeWidth=2;" vertex="1" parent="1">
          <mxGeometry x="74.43" y="440" width="315.57" height="250" as="geometry" />
        </mxCell>
        <mxCell id="2fRyMZQDYy7qSL2sGxyz-99" value="JDK" style="text;html=1;align=center;verticalAlign=middle;resizable=0;points=[];autosize=1;strokeColor=none;fillColor=none;rotation=-1;" vertex="1" parent="1">
          <mxGeometry x="193.48000000000002" y="397.69" width="50" height="30" as="geometry" />
        </mxCell>
        <mxCell id="2fRyMZQDYy7qSL2sGxyz-102" value="JRE" style="rounded=1;whiteSpace=wrap;html=1;absoluteArcSize=1;arcSize=14;strokeWidth=2;" vertex="1" parent="1">
          <mxGeometry x="210" y="508" width="149.88" height="152.74" as="geometry" />
        </mxCell>
        <mxCell id="2fRyMZQDYy7qSL2sGxyz-103" value="JVM" style="rounded=1;whiteSpace=wrap;html=1;absoluteArcSize=1;arcSize=14;strokeWidth=2;" vertex="1" parent="1">
          <mxGeometry x="281.79" y="610" width="56.53" height="38.65" as="geometry" />
        </mxCell>
        <mxCell id="2fRyMZQDYy7qSL2sGxyz-104" value="" style="shape=stencil(rVjZbtswEPwavy5ILs/nNP2PAHFqo2kcOE6Pv++yBhPt0hrDQN9keUbaY/agNnz3tnt43W6CezsdD9+3v/aPp92Gv2xC2L/stsf9Sa42fL/hu6fDcfvteHh/eTz/fn3oyH714/CzP+H3mZcb1dhZwf0533Hkyr8bX8/45/3LAl89Na/wnrxfxzdPxSk8U6sAXyhpexoxA3yj1LQ9iVxbJ3gnDmqLxIWW4Csqa0KjkCEhax84U0RBEh+TIkSmCrIghKB9SB563QlBE8pI/KpJOq45ksOJiJpQHDF+Q9ZOl3yNULXTNYwwrBGcfkMVp1GUmLLOtNzxwGkxIOmwin5dWCdkEYKRtxgJnI4S1moJBbyBIwVNWCj+IkPkb+LaGtSGo6BbQHOjaFfwTgepStECdTvK+vm1UgYuS/kaXZTh0eUQUSkW70FPypP9mSpoGHUU+xIPVOTF4TYZhBwOVqdCyKjpxcmFOsp1jVCmnEVkUrQ9T0QRQRK8dDijIk+MnWZDCORA2iSsoVlCBiYVasXiUR0kStXiC5gLbFuq4BnUgbd10IcpGCNu6i2OKrBnGoSSY9Qe3ZjECxE1pOshgAXegbrhMcIWqmZgf6Kg/ZU6Q/aUqa9k2CcatTw9HxVNGK184UBECZ7mjUQITTSpsmRaVyP/PwlBJGxEFOFmwTwVfqQIshBFBNkSPCizLFVrCAzDWuJYz5aFBgpH8jovCgyc7v35plVECOGmZacrR7/hyjrVCTctbH1kaJOurISdoMMqSyfS0qf6l2st6NhCcJrQF2c0abMVX/hYpS8T0jDgg3AlcXG0lMX5Ag7/abvwHp5gSiXWmc4QLyukGVOJPOiSOdkdNcLjjsjGtNUIp2ZmexaJcGeWco5aRjzm6BreiCKMAKzik8Gjwun2aPs9XLDzNKY8jn+0vULWPeRvsodBB/ci0UOpBo8adq52j8LHg1u/EFzHy8Xn54in/fPz+WvG8n/7+UJunT998P1f);lineShape=1;strokeColor=default;" vertex="1" parent="1">
          <mxGeometry x="89.07361859313414" y="545.9794704585038" width="15.973130899207263" height="39.025167571139036" as="geometry" />
        </mxCell>
        <mxCell id="2fRyMZQDYy7qSL2sGxyz-105" value="" style="shape=stencil(lVhJchsxDHyNriiS4AKcneQfrrIcq+JYLtvZfh9MVFSGoKYt3yQNW8TSaACz45vXh9vn/S6F17eX47f9r8Pd28OOP+1SOjw97F8Ob/Zpx593fHN/fNl/fTn+eLo7fX++XU4un74ffy7/8PuEk0QqCyqFP6dfYqSQ//3y5QR4PDytAC0S8wRI24AaKUYPqLINKJGKM4kp1m1ADtTaCBAS3QZwopoGQJL+FxcB9pjDAOBCNQBAJtUBkBMVEKUUSUYfSiAGeYhKUkZAowSiZDGJY1hrpgycjpVqHgCWe0UmVQp1BCjkUiwkY1ilUi7YhzFxLcNML3kYw1orRZA4jj2Iq7AqMIkt6mM9ZKUEbsiZeKwH1k7Hy/UQfD1woApMKrVz80xvY1eEJeorLlMF1KhWDyP5cufKxfOmMo7dgQSdVyoj9RbNAAZpoDAalBJ02W5oY57ZqIIBzqRceyK3TMqOSQUSQyyoI7ktLwLybDdER+5ACm7Q5LXbAKjeNFOZbiggcVo7M1c+IO1Wc3qMUk2UkEnadfQMYGrA6RiMG2M51NIv3brCcaM2qGPmhDibpFfUZYCJhtNihXTV4htQC7ABKVNQDxBk0vnx+gZUENK5dqUP0qZUW5SAeC/NIE55ANwwgC8IixuQDZnpamTCPriOtdAVcGmRDedD7EZezkPsMbm25JhkLmoEKH42eU82WhfrtTChG84dcBXWCDJtAHUFlHugrwUYWfANyeVBeoVsOu2ooTisHwU0I/NYcdYgFHCpVUqj09aCMohSK9RGatjYGsGosUxTY5QSYx/YO22TQ2RQD9FPodHYCgB2Q3MA7V5tzSbN+VChD1bBMkWJATVsvnL7hs10SMiWCW6sh5LhFGr/N+sSmhFZvC7ZrC4gSrYCOR8kwIpLpt5jHqwBNCDGNoDxqBomPAEoX/OisercFwFTX1/0HwQp+MG7CSW0nvj6tI6IJCP1OWTVGxCPjDRuQLS0I2Z7zcsNbt5xmg+NJnC9yhRcJQS8Ip4psBq7FUwZaVp+bAeExLbd3rGob3SXz6ufrDI0KAvVsRkm2KmK+oUyQPuX1yXJnQ9owJjex+AakOwlPsB520qEJ/uRXjc/2kbI6WUq9PFkEH9R33G4V8XWmOrX7fd2JHe+9gZ0pT2NMjo/+StwN5/jqfj8lK+lXyICTYSIePD/8BvAKwD24f8Lx/vD4+PpfeX6uX9BaT+dXm7y578=);lineShape=1;strokeColor=default;" vertex="1" parent="1">
          <mxGeometry x="109.67198926467404" y="563.7387677369311" width="17.266964397370884" height="22.85484514815448" as="geometry" />
        </mxCell>
        <mxCell id="2fRyMZQDYy7qSL2sGxyz-106" value="" style="shape=stencil(rVfbbtswDP0avxKSqBufu+4/CjRdgmVNkWa3vx89Q45F26cYsDdb5rFE8vCQGvjh/fj0dhiCe79dL18PP0/Pt+PAn4YQTq/Hw/V006eBHwd+eLlcD1+ul++vz9P729NoOT59u/wY//BrwvlMXEZUcL+nlUiS/i58nuzPp9elfaUYO3vPFHgfEBxF3wF0pVYAYHK1B1RK4EghEacOwIV8BAD9bHyeV7YBlWq/Q8pUZR/Anjh3gJzJgyhxtIASqbp9QPQUe0DVTIIjpRWgqNMeAISkz0NOlEHiciHpqZECZbBD4ZamOQ8zWbYBlYLrqSEtM5uAmij1PvhIHoRVg1h6avhACYS1KjcNwLcK2QSIoyI9QFcyAGiUVoAMuCTqdLBHciBKUlp9LQACnBZp/1uIACOnNU3F5kFAxSlAuAdoZkDiFBCM07XJwp7TtdclL1QQIFHt2Ro+TFwyAE8BAXzTiCUA1IOSz4RVj5QRvQs5Z51OaIdExduwIi4pwNT0vcPsAdgAImW0g/7P+KAdA4RVnZZVPRQgZFqizgBco+M2IBBXC0DKJ3ElMw4KmeQNH6AIVMoGEPAO0sR9kQckxt65FZm0yQW4hSkIr0X4XwGqvb0TzE0X9shkumJUuUXs8/ZIOgpEUHLax0tf1MXhNpobdebOHuH8k+bG3wCCxVVdZNtR5lxujydK8J5Nyi+HJqZknRhrBA1xrh159jrBPqpMKH0P0nmmgIoYZaVPRK6tUW4DfJvA5lTr8Ivaoh2YouozEiY76LLAisuNmbM9HjXYcjsEElTR7bQzLRJsP8qZnkYqUoBEK7nQBAMKOUvSCBmnndI02yax23xrmZx9pQxSNe/dzB2czlMLxN0c3ZGKDTyuRrG3EQcH+bHbRWOfgK/aTqNpHa369wrLTFIBDoPKKmPPbUrftv/XK+qH9vpwvw+/nM7n6Tq9/G7vz7o03b358Q8=);lineShape=1;strokeColor=default;" vertex="1" parent="1">
          <mxGeometry x="128.77095527027654" y="562.7685556425911" width="14.937128489104907" height="20.7930212765375" as="geometry" />
        </mxCell>
        <mxCell id="2fRyMZQDYy7qSL2sGxyz-107" value="" style="shape=stencil(7VnLUhwxDPyavar8ln0myX9QFRK2QoAC8vr79GTLsyMN25WccuG2DG6PJbVakueQr55vrx9vDik8vzw9fLn5cfz4cnvI7w4pHe9vb56OL/h1yO8P+erTw9PN56eHb/cfT38/Xi8rl19fH74vO/w84YpKLAsqhV+nJzFIbH+efDgB7o73G0AeosECsuRMAEGGBaQkJV4GpC7BHglPOjlSKlLUAHKTPgggShsGUIoMYkMcMuyRKrchqmg1gBYkJwJokuyRGiITCCD7I2mXTIwGoCUD6CqBGd0kWBsUVhEbUphE2NigLHBZNFq3quRKAE1qs4FTSZ0AhkRrdFYZjN5Rqj0StqjkSDnv2BplkCPlIsmyNVapJNJ5jetqgzR2IpVmXwByK90/7fYnRIICJBvmJJXsX4IUJzFTQl5fH6X79ZHkWoH+WFKEucHr64sXJCgU2795/0fJbP2aJWf/BJI2BeqWnf8D88+QZv0DRpH1NfgcAN9I3mO9i2+j4ojzDOv/TqWuruFc/dlmSvwlABZ3Dgj2RMjSQnJyeYN1EUjbSY5VhKhbwJpFrwIg/90mJdxcCYva8GKKd1ZC60X+rdG1iRKjR50yssY50TcMnTq1AuBWIqajT+KsAB64gebCVcEmjXAPgOEAndswvA0KeSLZAxuyjbQmWjZH86VfsyTCpVFE1QNYwo0kzUZaiwTCpRGmEzdvKCQOvXuJhNGZAdRrEtzaiQgsvYfjUp+hvAjYNReBH0ntkVqlMtOHr+SgN2tf4NZudQkJpCwOafaxG0AiXhpr5d4AWIME8o3kbQjEraB3dYAydeRiAtl8QIqy8hZD2IVaJ70uqoALxJDOc7RbIzTSEgcly46uiR+pTqHbZJAyJds1JUuOssjF2chu38DI9K+A5d9lFwcSOTDBddt4Moi41rrT+0SHGLRWfq7qU0gu9YbB9TJZImuGu/fSUtlZew69t2xF71CJlwCINkeXfpv1z+prFvqfRgL31tC/NfT/vaHn/nT2Rn7ZUaqvUhEUZx4qc79NjrGOp6zXM2sIoEQs7YeXLrCc1UEkpasI5zBemvu91g2uE6t2bqoavR2BElle98xv2pJvt1G22OVf301u5+L+KmBX+nujtymoafYFWukMU3wmoEIp8Wmd94KbCycmdd0PksilQBy0XJ66VI7SiAExewDCzhpn1Ap1Yl3oEAafulE1VloO0noHd07/yi+03DiS6X0WctOV5ECHEZQDN72EadEldXF9POco5Kv4/ROTR/URCHPiu1gOfPljIyp0ZFdu2HpQ0ncstA9cLh6cctF2AuuL6/jpPLukiJtn6eUL7HXNOOcb/OnWDymEz//8ieMvAPhx/qLy6Xh3d/ogs/2//wKDR6evN/n9bw==);lineShape=1;strokeColor=default;" vertex="1" parent="1">
          <mxGeometry x="146.60488389273678" y="563.768902118481" width="21.01397860411521" height="23.17345647496245" as="geometry" />
        </mxCell>
        <mxCell id="2fRyMZQDYy7qSL2sGxyz-108" value="" style="shape=stencil(rVjLbhsxDPwaXwlJFPU4p+l/BIjTGE3jwEn6+Ptya2hrUvYYKXpbrz0WyRlSI2345vXx7mW7SeH17bD/uv2xu3973PCnTUq758ftYfemTxu+3fDNw/6w/XLYvz/fHz+/3C2/XJ6+7b8v//DziMuJellQKfw6vklMpf158/kIeNo9O0AzgCiUESBQzQbQKZbLv+dKMdkFKgUEYOLmU5B0GaABJLsCrzGeBwjFagGVegCARMECMlOTywBNsViAaJ1BDrFQsFUtgSIDgFBjC+iQaF0hW0CLlDsA9JHiCmgkERAXqXcLyLBKOVKyTNdOjACdqs2hJoogB2kUbQ4lE9fLgFJ9SFLGm7OAmqnahtMgGVSprSmu4lPuAdNdxWzLykIBaKknEhsSZ8oIkIcQTgAJlLWXUcQTQAHE9UYh+Bwy4KHPPV2ogJ5WQHM5NDhmFNAdD50Eh8R2BdVvAExr0slJI1FCOWiKbgWGQ0CJa9kDBKhVpdHjBEAhaYpTSEh8Km9pPukAQlqGiu1p3WEaaqCV1xPiGOSggGST1nHfMKA7eevwRPIOnmmVN6OO01FpidMGguJjz/TSoohp8XNpGQIIUEmmFo24p9tUpYSSnqa38oCSjiFMY6OPnfjSEsU1RCDBSfiWiyOt/wNo7MskgneU4udM0bGB9yzn+WqAVEv3O0ptQ4/nAfp/toNaHXv9eSvQvL5Vj6ip09TUi1qQw9IqWTGdqOV8XcewPgkpo5Co2kGmow1tisE3XEtQ3ZO21cChLTFQsfGruSnIjvl+VmMCB/Go9+l+iCxrGrZlBTCUnVpWJ4qkAwN53D5c+cqxzhywpyc1Yw4QIGd6UCiWZB69dOkwI9aWBDjysngPjTUqPLaNlTTo0aV4mxSxr1oANqAr50MFBAfI1AFpOt2cmVSWI8o5e8egrYpcj8wHxApZkzgdiht0Pcu8Cx6AHEPWrz8GqBMPOKQ8nfeuJJ3VkU8AVFY1dtVq6Qpxizn9kDT+6XLiCkAf/t6FPOyeno5XKaff+7sTfXW8d+Hb3w==);lineShape=1;strokeColor=default;" vertex="1" parent="1">
          <mxGeometry x="166.50105090953662" y="556.1934095000972" width="19.150320179521714" height="24.517541731416713" as="geometry" />
        </mxCell>
        <mxCell id="2fRyMZQDYy7qSL2sGxyz-109" value="" style="shape=stencil(lVbLctswDPwaXTEgwOc5Tf8jM3FqTV074zht8/ehqqFs0NVqcpPlXRtY7IIc9OFt//S6G4TfLufTz92f8fmyH/TbIDIe97vzeKlPgz4O+vByOu9+nE/vx+f58+vThJyefp1+T7/wd+Y5Ej+RhD/mFzmSy//efJ/xh/F4ixcKbAgxUgYEdaTOEHyiLOuE4CknQ5BCARBSohgNwSklv04oqS+JySWAz8Q9nkFBFZ+4wwcF+EJSbAMUUf2Fkhq8timu4YtVNOB+Kz4bfCJxuB77+4VcgHgNtl+mzFhQ+wfOtRLXCM5OYPItarlaotwRUEmxn0EtKaGSllzdNO0LIATK1nVVhQjx0UY5NtXW8J1LPU5NoGIlkhbUtYZ9F0tSVH8itgIxKR5ZZ4qaSmwi3+MF6V/uPLSVgsidPnEjZd1ihI5zvPR3HfDGWsl2AHkLH2xB1aGKFe32RM1ARMHPpF1ohDzy3FcJ6W71VpEEnTaR2IrkhQQ0rdKOu2UK3Ab//7mFdlgs2zTD5aVULH7SGcxN+206OREYT1rMr2PGyRFy0v9BBslx7bi+waPkc79YpqiCIdfTtGs4wfOMmwMWfF2VQNCqhhWoaIvqGt56riyKreCdzVnhNsIVvNrFlavLYT3J6pMT3HRfvgNu4uvD9cL5Mh4O83319vv+glpfzZdbffwE);lineShape=1;strokeColor=default;" vertex="1" parent="1">
          <mxGeometry x="95.07260359996849" y="539.4729511593537" width="35.98868552550198" height="12.454234743549478" as="geometry" />
        </mxCell>
        <mxCell id="2fRyMZQDYy7qSL2sGxyz-110" value="" style="shape=stencil(7VrJchw3DP2aubK4Azw7zn+4ylI0FUVyyXJs/73BTLHVBDivNadcfJuFrwlifUDzlD58ffj05e4U/dfXl+e/776fP78+nNIfpxjPTw93L+dX+XRKH0/pw/3zy91fL8/fnj5fvn/51Ff2T/88/9uf8OOC846og6L/OX7w4b8f/rwsfzw/7ZZH18xyf315cRRveDo7zjcsD9EFI00F64urQa1PCaxnKz43oJzg6rw+OI5gfXZ5lie5BLQZycX5vMVFvr4+ibjz88k1cN4k8vhZ/uB8BgDSCg3yCLBD3gy6Adh5oKIcXKgTQHRagA0EUMsMKC7gHVjtwNAKAmizl4qeGwJEV9MMiGPPNSA7mu0glgnA0JkNoMBIKEVHjgAqANTkYtUAFAsUHDUNIOAa1FzMGpCA4Ti7ErSWCHgr0/h7r1YCgOaSAiRHQEvNuxg0IN8KSECtAkjRAMAZBJDJAAoEVHNolCUFwMkAgOFaGCH/3h2Ci94AgKUFkG47tCQVuwOIOAFUA8igVnVANQB8hsoGgCxtMp8AChapGC0VJJI3MZ1wxPFIjLuIi8DSXHQyFkADduC4SDMNRJykmaa0RCMG1wDJGipEeSh6Dag6kUnVi0ikMnxzA0hNAoemrHlSFsOBiOuA2ZeyFABQskSkOKs1V5y9q9mBh/+uDec11yhyaCCSpHuatVQqZD+SvZWW6laT1u6ddTKuNOrqGiCHnkWiOHLhGsCaL4neGkqVTecl0VsEERf8Rsg3xEFybSNeNkCF7ioA5RuiacSwGummQTIP4g6tGEDGIiVdgsQ0Eef7OJcgERL5BpNmWG1rVq4lJsW9RW8ofYsnKLIhACRSFd8oGoCcSThcMiKh5FpYA3butUZkXdr7IcCpi9cO3t0LkWkyeuXhj2tAGZRtZ2rYchRNE8WZkJo6gA0A+EbeqPMeAGqQJF9fNQBFUK6arncAsIMAsjnDAaCaM6Cilbfn7Q+NLa16xQ5AzaUArB3QGSyA4MBhIRLBBjmbsti2Pa8BdJ4hWKm74ZoBYF9SQ4RjgDcAjyOumTN4ZIeiSdyRWm2IEsxLiyRQIU3sIVoMAGWNquvucYgGG0AHIWp3OAjReCOALQCfQRfqAy3RIpE1UKhvBzQTogybfKGdWXEHeQRIM1LjVEfdWRrw1rLNk/ZF8WDYYqkAEEmoQDaVHbFv4fetmTMAtQqd0XZoI4+sAVU3l2IHQrPfNpL7npIhWhkNdaiwkxMSqSYbnVaiHWwABRhAnenOO3RqjERiPUY4It+sm3w+GIWI9yuRPKbGZshMmM0IW1d26F0Q2iFqJtD7LDQVYD3pk04O9VmikzwbTnpF1ARR0zWud6Pg0BJAZfbWjN2bknbvXurRDltL/96ePem8lPH8p4ukAAEaro8R5iTQJxsggGxPk8SUKC+xjrhEsLfkYIbABbtGNjtk+JJGOr/SNACxmd8z3Xft8HumOwD/70w36DTTAdhbsxEJ9XHM5tAZGo6LHs70ITDKS824t6RnNHENg6Xup8bANYSReXVooe+YJGo7FNwek9FSgbk1mxrXZ+uIGYcxLt0AEbcD3mS+gxedZpgTtwnSNYAaJfaXtegNddPTn7gF7RrAOkT7C2egpWQmJyHDEBXvV8y4vzRHtwSa7thpkPH1+qJJZYHhE9OgCZvZYNqLXjcPAfK9QPpWRDi6daE6Yw+DM8TRfr2th++B7aUR9FpgcSUFjQ8XF17Q8sV1GrxcRRiW3VjKwx7Ma1fGzN+P0NstB7Hox4hmtxxEonkv4cfNjncvv00YxJUXR0WUbqFINJ5amAkNnBdOgIaQN97YOlwuH94uh92fHx8vd8v2/+vLZPLT5SJa+vgL);lineShape=1;strokeColor=default;" vertex="1" parent="1">
          <mxGeometry x="864.1447567144974" y="56.10115878802003" width="110.94222324242173" height="614.5419993781484" as="geometry" />
        </mxCell>
        <mxCell id="2fRyMZQDYy7qSL2sGxyz-111" value="" style="shape=stencil(lVfLctswDPwaXTHgCyTPafofmYlTa+raGcfp4+9LVUNZBKXt+CbLCwFcAAtwcE8fx5f3w2D543a9fD/8Gl9vx8F9Gawdz8fDdbyVp8E9D+7p7XI9fLtePs+v8+/3lwk5Pf24/Jy+8Hu2k0SWJyvLf+Y3TFn+vfg640/jeYWPlrxp8IGiAfhI7Bq8scRx3yB5MqExsI447RtkQ7E9gRPoIUcKtjHwiTLwYJiJWxdiSLCLmBuDiTcLTp0pxMYgWRJgED2xbwwKD97vGwRPQVqDSNbtGzhHMbWZu/OwzdNSCouLQiw4hCdRIZUgwz6+S0NK5ECxMpmWo8SUQNqYnNN4DwqjfC1ovAGUGn3emCmB+O0GXjJIGcXQ4QGfnpLR+AjwYeP7SCyEfMePhfjU5UtATRd8W6HJ1K7YwYcOj7oyUA4aj/nhqPEZ5MtrbSxNb4CYWsoP4Yt37uJBQqc1ZTovqOfSHa7jEwgEa2mf8gXi5ypQ63qAeOnqx4J6MFU91vUM8JZc3y9IQskljcf96GP3fcBnIN/rCdA3qWys9QrEIxQ7fAD8C2Wj8RnE/zheD8kyZ9EYrtlc5ourHbddD8vnFgOpErydYNN5iDDDgfX6lANZlLJUO2oxKFMQeEiu/r1qsgREKC8L32pXsUAVC4mm3Z/KNpRASMWDtLT6DHWi7IBqsJaVToBB2TJVZZfeE6B0kTVLZS2NaDQF3ctLMW7jWVeGqcNtDx9F4WGrsd4wDRkUj9EHZpgzWdzf8QHxY7W2cxXLPbyaZXh1Eqd3FYatLL4q8wqPpCXo2YHbTMpuk3X8oMsk1p5a8YPx3XmRsDx6j/s/vjzcL41v4+k03znX/+tLZnk1X1Dd818=);lineShape=1;strokeColor=default;" vertex="1" parent="1">
          <mxGeometry x="957.6795039558615" y="205.1516546804162" width="22.17785323896169" height="60.65632364350108" as="geometry" />
        </mxCell>
        <mxCell id="2fRyMZQDYy7qSL2sGxyz-112" value="" style="shape=stencil(7VvJct02EPwaXVHYMTg7zn+4ynKkiiK5ZGX7+wyigCJ6yGZ8Sg66Se+xH4DBLD0N8CZ9+Hb36evtTfTfXp6ffr79/f7zy91N+uEmxvvHu9vn+xf96yZ9vEkfvjw93/70/PTr4+fX/79+Gk+Ov355+m38wh+vuCAut4GK/s/XT0p03f/9yY+vgIf7xz2gud4XQG6uVgposgKiK4UCSlwASVzhUwphBRQnDFBcLisgu8TWkJx0BEgigODiatZU508cAnSFeTWSd4XMqLi+LjlXF9r588k1v25zciGeP69btP5+9S5lsmDX4PnmhFkUf78Vl8j8I7qpBNfJBuT57fb8lf1lfb57l5kLJZcrAv7ZkjMnlXUHRGYkHa/YO1njRi5MFNEnWnfCAHlu6QZIrpLIVK+LsMuVJgsFCGSX7gqbknrxOiVNRyyUFRDXfdBAaGQfFJAgcsIc83QECOXm/AUA8ld1nvjqAKyL1vxVuZVSREDiI+SEgIspFZPwGvNWtXpFQOUjdAMozKya5b8XkOyUOACS8MjyzJe08nVjVhZAJgmMjSNpcgAaAhqLh2YqlTrfxQhQz73zwgEQcd01blZZzVrzDNpTwOremsgq3wdZY7qHOebpTkO6b5STxD6deQNEGg8pzPK9Ze9E15C0oKz70AJ17+GbK4kZuZVE3PAcyHxC90E9JwFN4iVLARXyUpyfnAFgSroznS26zq83gHK5C0BDgGdEqc0I3gCa+ZhZNS8JAuiUGpZdBUTmGoYQK4ClGQU0ACTXSUwrAOjSALCdlsked1MKJC8pIHmzaDYlQY4eebofTYIBCLOSoLe+8ZtTQEJAYWvoZgShI2jqBTajaYExAQX0dQT9hDmfkp0KSaDRJKDNWlzz0mBkbARtLFYrlUbJiQL6unHaazAamguuoabZThwDdImr82kFYt1P2UrgHkDioQTMSwrwJB5KMmuIs6M4BmieW6dUhDLj0tCXdOMi8aXxe8AEeJrRbYqG/rCuuAbk3hoPzL3VJt4kMlZFFQB9buiTyR4DkkurWUOdhfgYkJFKD3GAxEMtyJeGOMDW0FxeFy18zX22I5srTasdPt88Jkre9bU4a8d83lPXbsqyYQ+oG2nnH4HI0N5Enwe5Rw1aSRrWCUEzozNi0axtMGRVpXOBBKcCkCl16hQWoEmNuV2rmFU1bTLZrbXZaO8VJWaljsRHuRMrJeJNnxtorEmYFX9XP5lnS0QOoNHMUpgYs4Y87XYMyBgLwdNSInWyx90ILBrE9Ophq0bHAMsn/QyQY0A3FNfPpHYI0NYFeIyalXWhvUxX260hkTX0La3vrUQ2TgHdZlW2ho5S1AAQKykA+qvAObECgETrGpjzKaB7BLDqNgAwpULTzCHgagSYUr0aoSUEMMFOAcWMwITfsXEwQqMBNFwj4wid+1I1JZ316goALXdwALYGQR4TeMlVAJQ43bhyARAEeJKXxhqM87F2SQFQFEeq5GYFGWcEEMmtutPQI14wpRGi3ozArNQncdmvgTufGADTTLrJrQpgjXHwGznabzXz737g3zQgOoqIgRfqEaM2IHjq+05ARalVS1Bm2TgZ/SDOLvAY4JHkDpWFkQ2tUB0BbKuloGIXIy0Qyh3A+6KnIqICQAPR1MfkMcl49BAi9SXJKIQOd2VTSkZP8y4wQMSDsnG2wChZwOPfpD0aA3gkrkNsYv1An+3CxnQjpQJKjYG45kp5qHYcENO585bGuHfutOdraiXTDzCdXwHVdBzMNbSLgyklTw83FFCNa7DDvtEnmkaXNpYJVZZMubeuGdqySs/ItdHNazQI9YsqJrEGSqS1U8f4TPPo4kwLAD1jHAuzKZkMMHIMk1gSnmwMnZXpGRFLYuTNQA14Lj1kfzaCN3cbCj1hKoKCYElUgi9tcqPNMcJkmccAk7prpf1JiTMrbgChXdxQEBMCWEXMG0fdAZiVcp6q6m4NkQuzwFqHlkW8VdMo8LGx92TRQ1yG4/5LvRvqVUmUeWcjzOZGmYlmRRRaPO0erMifMr35Ms5OTABdHKu9n2G9n2GdAP6TMyweD0CWtIpS5xNUyJTwsaKY7KWIPjWzU28FaVOujplBg9OaRNeQMUSV3DDBKyWsQLKp4MeAgIB+cSnCFMU3cecY0JD97HrTY4S5GnV1jaJiQFxd1Kgoa1xdBbHXuy4um5jLV6Nk8ItLAHi/rXUIeL+t9T+5rQWu0a4ADch3mLX+X1pJmSm9gWkOmsYNcuZ8DZNA6bSyx2rOyhvVfmJBHtoyv9i6Ff4tfQdK+mJAjVka7V2DYDxobmUKcDAH0z1x/QoPRMYNNUZOsO8ToaeoYfrZ9nyknNLooOOcl/y+N3c02qTuJ8/DWcjF9beInXQJ/GoNaqDacLHAMeX2rTE4UYonw94AiSY89Qi8XccFmaEjZwSw8hwMhVbqxoqnejV0JoM5sSl1UwuF6o3j+gbU80jdSAH4uknjWd5jlzvuyTBH8ng/QwHsKP7tOHbX5dIrtt5kyERF1iHaZgSwWqhWQokl0ykFczBYOHML5mCw8D46dHNfKdM2IJh7L4Vf0grmJQ+1EtMCFADn3oVfxwvmNZ6yiS5ngO98/eoaoH+8ve315f7h4fVlsf33+HaYfvT6Zln6+Bc=);lineShape=1;strokeColor=default;" vertex="1" parent="1">
          <mxGeometry x="1001.616709302526" y="203.53936405835157" width="104.88550834066609" height="57.951658501063775" as="geometry" />
        </mxCell>
        <mxCell id="2fRyMZQDYy7qSL2sGxyz-117" value="" style="shape=stencil(lVbLUsMwDPyaXDWWbPlxhvIfzNDSDKVl2vL6e2QySSq3EcPNcbKxV7sru/N3p+3j27ojdzofDy/rz/7pvO38fUfU77frY3+WUedXnb/bHI7r5+Phff80PL891i/r6PXwUf/wNeByASwVRe57mPERAv3OPAyAXb+/AJQIFBQgyIw3AAVSVgBOkJIJCKwAsUAOBoCBNIeMgMYKWTZAClAccF4GpASsSZcEriwDIkPWK6Bz4Nwygn1bJqmDM4QIBLEBBCBeBngPsSlTBDRYk5RJs04M0agrMYSklfOQ0VwBnfYGQrY4ULtCQHCGN+pr1P4mYEsHHL02AuomjRVmihOAgQ3ScxEvVkiGmapMTUbFLFbkJiNMVaLR8UuRc9qubAt34eZJajaVq4HRdq2higZAIqnLVGNrsK6hjzoQDN6QurYVrVxtPcaW+CoQc3O77b4r5YrdLKX5el2luUEvAsp/ABTBaW9kEc4gjbGtUnaAltJA2hlJQmvI4Ns+Jolyxv/FF5oASyc0CFw5VXqC2ZTAaRt5NPlGiDo7hKbt0I/lmM4GGk+L2xuiNp1iIoOA7Lfo5NhN9fok+fOoYmy+T0oAGcwXjk2/2w33lcv37QVFpobLjV/9AA==);lineShape=1;strokeColor=default;" vertex="1" parent="1">
          <mxGeometry x="991.5512635264281" y="341.54952018479617" width="3.2230755116520413" height="3.224848179439732" as="geometry" />
        </mxCell>
        <mxCell id="2fRyMZQDYy7qSL2sGxyz-118" value="" style="shape=stencil(7VnJchQxDP2auapseZF9ZvmPVBHIFCGhQtj+HpnBzUjd8zqhuFDFLZnRG2t52uxDevHp5urj9YHDp8eH+/fXX49vHm8O6eWB+Xh3c/1wfNS/DunVIb14e/9w/e7h/vPdm9P/H6+G5Pjrw/2X8QvfTrhEgQeIw/fTBzFT6z8/eX2Svz3eWflq5Ru1iOQlG3nOxOWyfCG28ilQa5flhWqw8o0qkI+BQjeAXKkAgyNTtieUTAVYMBwoBlATxQoAMr+eAIkUBQA6ReskadPNmwCOxNEAWqEEvDTC3AygRwroBDW6WICegADqdatSF8rAaOVBZa9SRcxL/oSWKYHAJVXJniAFxkGp1iw1aqEKIp0DsXVrqZMs24CFCAtbO1UMKDYOOc+MugSo1kuqJHJrZgrJZlynFDDAZpz6rSMbeFUDGnYrT+acARLIaQXIChBBPmTN4OgBv9xwCZCd0UId2ZB81RgApFLe8FJAbtWytTIaUmOV0wpAKZqLbw4KEJBxCog2H5RL0IbiC5kCMiLfQrWzfKggcCXNdrakaIRxqIGSrRr6CYp0bb4ISIAqaRXqtsyIZhxI0cYUrUqtEgO36tcuH0ZtBYFrnYpVqWfKwGj9Pa9Sn8VzG8BULb3VKtR2VQFHPknE6IRC2RayynA06av+oNQIoMwooLtZI5AwAMjUeKH3zgkyS+8yXvHMkIsA61YdVwKg9wA4t87h46K8pVLck89WIXUR1qd6+YyCplW0OHnIiuYdFODgo/JSvTz6/e47esD+10zz+qBUVnlXvwIVlJjdF8gwq81FecvpuKtPc/Ko2Km8i6+WX+T/vsoAOGxrvLqXZ+T/5meLXfng5aE+QpK8vcg/4geLHX/KHPSfGC/x684OH2TS64xvOB/bs/jcfEncyZfm14TdfAzPynedN/zvw3rSfXx36lWf4X9aPYxhse+s4KL19C8ABAI2SkTGXWxVg0aS4SLRV30yYoDYqGknRtcWCmBrg/Z6RjYoT20e6DRR0AnVG63zSkHDwbJbLhORbunohOxt6AFu/TqkJbeTVzjKtlWzV0AE2aAbeHXXBMuF0jZgxT09E41Qsrpw0p8QNI5XXwCEYQUo4jN0zI2AGr+Zs3ApTbJsLy3VA3TvQZdyujwWB4jzXuz/Ev9/ifeAf22Jz37bHHsUNtq5VT9BlW8EztqQtcWgW7DkE0jLAoO6NC7mLJe08KDBcCSkDZxoEUCASnl1yYt2wZT8PqtLNzwh+Mv2jhNIBwXH1rNh4tI9smujY0ADRuikkFyTq/OqYRsQvE7jrgNNWG3euJ75taMXg+pPkA4vFnQ8ctyQCPkd2V8h1TTHzO3OTuI6UIFbuczLnCUdBA5keSbLE9sJzxn4bH5LoGTosGaZqicWoP96xMWvVMHPADuvYME/j4wQAg4FX/FihiND8Kk8Jmjg/zAZvMin6bFtAq38k+CzQvS1aMiD+Cp943PkefWqiPXh1VKL7WU/du74k33T3IkXzy7/RD78wavrjrz+8fuJ9+3x9vb0Qnz+vX8S1o9Oz8np1Q8=);lineShape=1;strokeColor=default;" vertex="1" parent="1">
          <mxGeometry x="991.1181920679232" y="333.1706254497358" width="57.63653633358172" height="66.0151072677013" as="geometry" />
        </mxCell>
        <mxCell id="2fRyMZQDYy7qSL2sGxyz-119" value="" style="shape=stencil(rVjbTtxADP2afbXG9lyfKf0PJKCsSgEBvf19nW4nYGdzqkp9y2btia/Hx3PQi5e7q6ebg6SX1+fHzzffj9evdwf9cBA5PtzdPB9f7emglwe9uH18vvn0/Pj14fr0++lqkVyevjx+W074cdJjoVEXLUk/T28Gaf/94uNJ/v748F6+EQ8nL4kk7yvY37k7BeV5xHkFpeYVslBHX6hUi1MomYYChUHifaiFKlBQIVWn0Ao1BgqVUnMKXSnLvkJOlLxJvVOtQCFTZ583gXkoiZr3YSh18IVimd58QcEXLIiJow8Z1FJTYp+4LvOI8wpWmz5KdsRo+wo9U/F5qJUEOG0WF198xYoFlMZgSskrrF6dV7CG8wq5UgFhtTSl0A+JGPgwEo3sOy5TQk5bMfsoSaOKEtdi4oRhlGojEafAhQoAASs+8U4zk6IGGsSh42CHZqXiLWrUgUEWwhzl0fmSI042GkCerVU02P+nsM4HKKaMrShAynLsHJNHgKSxrE1egDxT8xUxqALzUzTf0A70QIrJbTNaO+LB+DrRdUc81FqeE2hHfPhQKlUQGYO00CvUgKtKGsVR3HOMuxCjRoyYLhihY2QUGtOJcwikgNMt596YAoGwzzC/ZRV1bI8N2GcR7biqkQcJgHEbI5v+QKMrz1n7Tl4R3lAuG3nEaWLoB3VgPs+B8BacATtEN2AJTk+RCOAJl6LtZQZ3Dzv86cYBEGOlGoYbdHUznmU25P8QX2DeBz5BmF86qAR5RmBjaU9BXsH5OmZm1jqjBFK10M4wyKmDsiwcAUdnn52XHxvCBu1vKXa59QnizT3FfYcrZYALYw3ImmGFAD5ahDVbeGCBps28MoaXgddjTCK+KnRIzUedC9HaYoa1iNZqzHMVzCEHZW9SxcTZqDl7p1uD02Ihnf4LvU6QPA/RxqA2Gw9q/dIjxxsdMgGL+ggsNeF+zhvwWlKD5kCZ83xVYEgkdVOvHVPtZchrTASjfTtHRmNLFRoHy3IQlqoKWYqhZNi3DXcQDLDBkocNW9k7UuDZ9GtXC7z3qPEDdgLCmToXqHe4hO4kapxSnCBdWSP+Nu8zyJnlOKzmk4DviDcJ4mgiW7oiPW9oQd10PmVQoDbSehBHzGkZAJtlAfi6lAJH61FxypY7oYXf5Eskomhz/Ocbub/K28Pb9d/t8f7+dHv4/v94XWivTleNevkL);lineShape=1;strokeColor=default;" vertex="1" parent="1">
          <mxGeometry x="1053.0908499963061" y="357.7774530518079" width="29.331017327677273" height="30.64064653195578" as="geometry" />
        </mxCell>
        <mxCell id="2fRyMZQDYy7qSL2sGxyz-120" value="" style="shape=stencil(7VnJUhsxEP0aX7sktZbWmST/QRUQXCFAAdn+Pq24NIxa42f7lgM3M/Qb9fJ60+z46vX++vl2F9zr28vTt9tf+5u3+x1/2oWwf7y/fdm/6a8df97x1d3Ty+3Xl6cfjzeHv5+vm2T79f3pZ3vD7wOOKfoGCu7P4YEjln8PvhzEH/aPK3GhKka8/XVM3Eeqzsi7elw+eIr2/c4B+Uo5DfKeXDouz5UcD/JMBegTC9XRPUIM7E2JuI76RErggBzIjQeoBcUDQKZYRkClEo8DikZodCkXEuDTEonHE2IiAZwohXIeAIlJgA3irdHZUQRuFaYcRkCGRssUhxIoIYC+b/RSswolQiEXR2acPMGPKumTirykRo9eqq5n33YclAhjHComX1GVRhtqoYgATMGcsCTUNiBYtiogIfJ5SmwBgk5w/X1LxjlcM3KlGC9DiC2SJ5TKZctsnNVZJscCNinAmRNUyQwAicrop4rLgAJSsQCPAXkkeNVahQCzDQlmdfPSBPDIaO4ar1IoocBxb2errC6goSigjnxVyjM6QWvpaEPWgg9qn9KVR7omTwxU0iStY0+MngScoHXDjVnN+ooCKlO0KoVCARgtYlNOuxyqrpVtOfYMG7tWOh4D57X0IIAyZwKgIqBkdqa1e0iNli48AUAR0Aw25VgBFalUu8YrGwKo3wrIbAECMk4BNds4oPq9AYi9752rUiRBbtUR1MQhwTLT3MoWgIa+FrhgAajxNmrIBEBuVfJ5C4D5MNM7wYzbSKDYHX0MkKZIV1BbFWCKsQICqBpqgzU6UEZeir3JrgAe2ZB6Qq4SCA2idZr6WooiLpX+vnNPkN7R1jbgjIvpIi/pKFIvicNq2jk31DpYmlDHUzpdCJjI1BZTUAWk9h64AASmnExbDac+pB3rinmMXOS+tmwDUt9hlkYd4HLchuMxDroNejTgO1v62ivw7mdGAR1nMrJhmUUWQIXUUIBhn4ZSkFsXcn6sEB8rxP+/QihfTeetOn6jFJI+O6/2fBQHceSnJE2gbiggmp0D30ppKTO3ai0L0QohViWlI+qLWvtk9JJuNfDqIXQnLsUywkaqKefGE+IJLkXbg1jgFJed3czYw3Ej6fQwxkGbVgVxSM5en/hCDMinHWee19H9qfY00yEENjnd28x9bobkbvezIzFSXwXPvP9NkHjT9fKypW2ba4tq7P1uW/tOyXdxAc70dtaLvTodETdrRoQ36dp0zLUs3LmVOs6IR/h2M+IFOB1tiDMwdVJGXQVoPJnq+yx2niMdHEG8LT0OjpoTCRwcNC/8PnJSXH+8f4q52z88HL7krP9vP93oo8NnH/78Fw==);lineShape=1;strokeColor=default;" vertex="1" parent="1">
          <mxGeometry x="1079.0318117421102" y="346.8618036202497" width="28.37502867517378" height="42.66373283347548" as="geometry" />
        </mxCell>
        <mxCell id="2fRyMZQDYy7qSL2sGxyz-121" value="" style="shape=stencil(lVnZkhM5EPwavyqk0v0M7H8QwbDjYJghhmGPv9/UOmRa2e00vPlQdqmqss4+xXffHz9+eziZ//72+vLl4e/zp7fHU3x/Mjs/Pz68nt/w6RQ/nOK7zy+vD3++vvx4/nT5/u3jODk+fX35azzhnwsuulwGyPy/lx+CM///D39cjj+dnzfHs4txOd5c7bePV2dtfXp1WZzvzq+PH8+Pt88H70pdAMm7rADB9RWQzZUsAObaeqWSXEgCEKdFJqCmqdUxILkcVpua8+pK2QUCNJeaABQ2a48uqCvVqeIVUNz4egsA1tTCEqqwkhUXjXXwQocYGFC7KwpwvfHVcX268hAA5pAO+Q4AfiAAyCeCJ3UX1nBIJh2X4yTCBMQsJeTi8iohepeE46BiXj0Nz5hwXEEA+RVgMwaPASDCCgh9PuL4So39YH4+4hiAK5EOyGoigFJydbUSElUSOsQ+uXk1a5h58xiQXVuTQESUKwmJYxr8bcIP8GvbZb4mlLadDglJQAGKS6tZE4JW6GDQYVU66QBC1ujrlUB4ZSUQgQIIhO8qkXVOxgUVQ1+JHAf+dhGiUDpRmikzLRwD6k5CkxLiLuJqkCUrVi7SqEBFcAmJjCU03QXUacRr9kYBEFeqxhWo5ZnPDwENJWulN+qDclxvnGZ6kBJ6dxYYoHIrAMUY0IIEkFm7TZk3uhnv/A6hkusQQXdCUGutqWECIAtuDDM1BjTB7+EIAqTpy1sAiwxQ3Umvs/BvJSgd6mTzVgflucJNHwCqQABQAgPklQr33fB0FlkAAOa33bMScynIlgwAyvcAJBHUAPTCgKgiqLm8iyBT40Dn/mdcSdM775QuWkIzNqtkKyKuMyDfyQKVAV1L4AAC+bQEKkGj+dYR18msCCBl1jYv8Osh2spOgvLD7wJQP8KOSypEUTQpHlBRTNAbrUVc46ElOeyiraQrNR0PaPqIS7XqhqmxlVDZu2o2EmdvVOKg2hm/a2e6DNExKq4S0P9ENYzmyZxNh6WshPm40sjeZG6FhLZ6Oud7OlBuxUihatyYYNZ4SHXOIMdmNRfXiEua3paZraO9F1ZCW+lXakQErZCAAaKu9I6a3nE/jJpMxphgygrADGIiRDENUxUFf5uQgHnbr2w1vf5B45poGAV/9fRKY9Zgl0jGpXKnCwnKD2UXQJhBkprA82T/xkqqWy9wE23Vqlyd5M7pHjOIKihIlXSl4XvlB5tE2AyjynGp8UyDEM2CGimxHzD5yYG6c0dW/SyTt7J3pTVckHs7sL+sElqf7LqVvWlURBeo2Ar209S0GSlurQbJEaMjUqkvzgXuFVD1etM4z3S9nRkrWiqjTfZwAMTdAlVV9uBZB5RRBYDj1qxRkixZ16X1Zsnc5Jo87ZO9ak1cpbTXZTWJ3O+FNtdNxwbaTZWzfB0e97uUNzvYW8cpB8sysue0bND9XF/O415OPZ4HBi9nnmsO+XncxN0Dj7Ze3j1wgtDBa9Ppm+PiMsbvGbxcFYCyjY7LZpaXf15GeeQ+UzP+N19T3T2ODz/fiH0+Pz1dXqht/+c3aPjp8vYtfvgP);lineShape=1;strokeColor=default;" vertex="1" parent="1">
          <mxGeometry x="1117.1517799916883" y="320.15343196027106" width="47.2332781001428" height="56.884288219648624" as="geometry" />
        </mxCell>
        <mxCell id="2fRyMZQDYy7qSL2sGxyz-122" value="" style="shape=stencil(rVjLbhsxDPwaXwlJpB48p+l/BIjTGE3jIElff19uDW1WlD1Ggd7sXXIlkcPhUDu+eXu8e9nvUnh7fz1+3f883L8/7vjTLqXD8+P+9fBuv3Z8u+Obh+Pr/svr8fvz/en/y91iufz6dvyxfOHXya81qnHxSuH36UkMpPnvk88nh6fD89ah0PJu41BJC7CPxKO9faBetq/2Og/2mbQB+0Qc3PczX7YvjdJ0YI7AIVPQ0UGoKnBIJG4FpYYc1g10BztzSJcdslKS0cGeBODQSMcgsYVNoEMbs8aNAkiDnSGMW5JIGR2a+wZWB4Yr1EBxzIMIFYDUaq/HM0juYD8PVVvBbanCM7RMZQyrKBXgoLaCA3ckAXlQpjZuKTNFkGld0b86CKwfbSRjWHPtYDnvYEcc0Vos0yCsMRg2XImWTgqXluA2ckwkRWEqpOOpq8EVsJJGquOWmnTeOZ9q9plr2sv8ElzbGFfLJYKrhT2NW1pOBVaweqljlCyXDaSao3fYpOasR0pURvhZalCYolWE21OFVBYnbFiYEH/nzr2bPETQT5JHhhVtBCcIHTcbJEUQVLMfq6EaZ4ADh/611b7ApAXKxduj2omdHlb7DFFkmMjeHlGYNTee7BHoOqlv7FEzZI+4RRCA7wsFnuIJ4iOTfKkkgCnEV+WCB/B97uppY18BdXFHy2qPK2zCs9kXVMJdbW3sK6pgym36PshX6OpvYy8Q/zLFR0H9hh7tjT3D/Tg+sfyi+IepXiqUIcGLO8Ob4PgEbx8Av8UJDxnuP034tHoEeE6dbbb1CPDDJNXvP4L9G/6Tty/AXiY+rF3c/hf74uPz0cnPN/rOBqu98QnAZ4w+oCbyKgBQLL6D6RqzS03YUYpmqIZ41ZQbJVEQJ7InRVsBydJsUZ3OgNRQUcrZRwnpWNPiKj4PAYl3m+tco7dSQjp2GhyXzgqQoTK1+iviXfyIY7oX1fISxDGsNlYhMtWJLUxFompbojSWs6US6bM2DyACJ8c6zxMJbqmyz4PNRLCim5cs+coEL/4MgrW7DTROVEjrNHhJu7uuJgWSQJ63JBDeNvbxGFaukATyRMRGC3D+kD7rrpcKrc/05x1yJ8bVgTFrVGojt8YKte9yMTKuEBPcUmGvlkuXq+ftqy+HBMWFDXWOuwMk1mrdqjh7NG+ZdnKXZRYBdLmW/LgVoPg1DtXmzouqX6fpQ+Cor7PapwzqRtl3KiyudZoOsLhe7F2fgvldZk8/IUPAmQNPt4mI7azruGsBExBIjyxtqnqHfOVqI3uHhrYUpwvOCK+AdW1KWwcEOxs5pjNU1KbU3/WZgyC58M/X2Ncd7MfHrfnD4enpdOm+fe9v2e3R6Yaeb/8A);lineShape=1;strokeColor=default;" vertex="1" parent="1">
          <mxGeometry x="1141.274217645162" y="329.59830431074374" width="45.90627541420599" height="47.54940249684091" as="geometry" />
        </mxCell>
      </root>
    </mxGraphModel>
  </diagram>
</mxfile>
